<svg xmlns="http://www.w3.org/2000/svg" xmlns:xlink="http://www.w3.org/1999/xlink" viewBox="0 0 196 122.1"><defs><style>.cls-1{isolation:isolate;}.cls-2{opacity:0.7;mix-blend-mode:color-burn;}.cls-3{fill:#595959;}.cls-4{fill:url(#linear-gradient);}.cls-5{mix-blend-mode:screen;fill:url(#linear-gradient-2);}.cls-6{fill:url(#linear-gradient-3);}.cls-7{mix-blend-mode:multiply;fill:url(#linear-gradient-4);}.cls-8,.cls-9{fill:#d6d6d6;}.cls-9{fill-rule:evenodd;}</style><linearGradient id="linear-gradient" x1="61.65" y1="153.71" x2="136.24" y2="-36.45" gradientUnits="userSpaceOnUse"><stop offset="0" stop-color="#070707"/><stop offset="1" stop-color="#404040"/></linearGradient><linearGradient id="linear-gradient-2" x1="194.52" y1="58.55" x2="-100.09" y2="68.37" gradientUnits="userSpaceOnUse"><stop offset="0"/><stop offset="0.26" stop-color="#020202"/><stop offset="0.38" stop-color="#0a0a0a"/><stop offset="0.47" stop-color="#171717"/><stop offset="0.55" stop-color="#292929"/><stop offset="0.62" stop-color="#414141"/><stop offset="0.69" stop-color="#5e5e5e"/><stop offset="0.74" stop-color="#818181"/><stop offset="0.8" stop-color="#aaa"/><stop offset="0.85" stop-color="#d7d7d7"/><stop offset="0.89" stop-color="#fff"/></linearGradient><linearGradient id="linear-gradient-3" x1="31.78" y1="26.5" x2="31.78" y2="78.63" gradientUnits="userSpaceOnUse"><stop offset="0" stop-color="#ffca3f"/><stop offset="0.1" stop-color="#ca7c22"/><stop offset="0.19" stop-color="#fddb7a"/><stop offset="0.42" stop-color="#ffad45"/><stop offset="0.55" stop-color="#a95f0d"/><stop offset="0.66" stop-color="#ffad45"/><stop offset="0.79" stop-color="#ffff9b"/><stop offset="0.87" stop-color="#ffed7c"/><stop offset="1" stop-color="#ffca3f"/></linearGradient><linearGradient id="linear-gradient-4" x1="31.78" y1="13.87" x2="31.78" y2="79.13" xlink:href="#linear-gradient-3"/></defs><g class="cls-1"><g id="Layer_2" data-name="Layer 2"><g id="Layer_1-2" data-name="Layer 1"><g class="cls-2"><rect class="cls-3" width="196" height="122.1" rx="7.5"/></g><rect class="cls-4" width="196" height="122.1" rx="7.5"/><path class="cls-5" d="M188.5,0H50.68l72.55,122.1H188.5a7.5,7.5,0,0,0,7.5-7.5V7.5A7.5,7.5,0,0,0,188.5,0Z"/><rect class="cls-6" x="18.74" y="32.07" width="26.07" height="20.66" rx="3.72"/><path class="cls-7" d="M44.81,38.58V38.1H40v-6h-.48v6H35.69a4.28,4.28,0,0,0-3.67-3v-3h-.48v3a4.27,4.27,0,0,0-4,3H24v-6h-.48v6H18.74v.48h4.81v6.76H18.74v.47h4.81v6.91H24V45.81h3.41a4.29,4.29,0,0,0,4.1,3.33v3.58H32V49.11a4.29,4.29,0,0,0,3.77-3.3h3.77v6.91H40V45.81h4.77v-.47H42V38.58ZM27.37,45.34H24V38.58H27.4a5.16,5.16,0,0,0-.08.8,4.27,4.27,0,0,0,1,2.74,4.25,4.25,0,0,0-1,2.74C27.32,45,27.36,45.18,27.37,45.34Zm4.25,3.33a3.8,3.8,0,0,1-2.8-6.39l.15-.16L28.82,42a3.82,3.82,0,1,1,5.59,0l-.15.16.15.16a3.8,3.8,0,0,1-2.79,6.39Zm9.87-3.33H35.86c0-.16,0-.32,0-.48a4.25,4.25,0,0,0-1-2.74,4.27,4.27,0,0,0,1-2.74,5.16,5.16,0,0,0-.08-.8h5.66Z"/><path class="cls-8" d="M19.83,67l-.61-.63,1.83-2h1.52v9.1h-1v-8a.79.79,0,0,1,0-.33l0,0Z"/><path class="cls-8" d="M24.52,73.52V72.14a1,1,0,0,1,0-.31,1.06,1.06,0,0,1,.22-.22l4.31-3.94a.66.66,0,0,0,.21-.27,1.21,1.21,0,0,0,0-.38V65.86a1.14,1.14,0,0,0,0-.25s-.06-.09-.14-.15a.46.46,0,0,0-.18-.11,1,1,0,0,0-.3,0H26.38a1,1,0,0,0-.3,0,.65.65,0,0,0-.18.11.45.45,0,0,0-.14.15,1.14,1.14,0,0,0,0,.25v.25H24.65v-.52a.8.8,0,0,1,.31-.65l.31-.26a1,1,0,0,1,.63-.26h3.27a1,1,0,0,1,.63.26l.31.26a.8.8,0,0,1,.31.65v1.83a1.21,1.21,0,0,1,0,.38.54.54,0,0,1-.21.27L25.87,72a1,1,0,0,0-.22.26.85.85,0,0,0,0,.33v.06h4.81v.91Z"/><path class="cls-8" d="M37.63,68.91l.51.42a.78.78,0,0,1,.23.23,1.55,1.55,0,0,1,0,.39v2.4a1,1,0,0,1,0,.36,1.14,1.14,0,0,1-.2.27l-.24.24a.87.87,0,0,1-.61.3H33.62a1,1,0,0,1-.63-.26L32.68,73a.81.81,0,0,1-.31-.65v-.52h1.09v.24a1.26,1.26,0,0,0,0,.26.57.57,0,0,0,.14.15,1.08,1.08,0,0,0,.18.11,1.53,1.53,0,0,0,.3,0h2.57a1.53,1.53,0,0,0,.3,0,.62.62,0,0,0,.18-.11c.08-.07.13-.11.14-.15a1.26,1.26,0,0,0,0-.26v-2a.64.64,0,0,0-.23-.49l-.2-.17a1.07,1.07,0,0,0-.27-.2,2,2,0,0,0-.33,0H34.2v-.84h1.9a1.29,1.29,0,0,0,.33,0,1.07,1.07,0,0,0,.27-.2l.19-.15a.77.77,0,0,0,.23-.23,1,1,0,0,0,0-.32V65.86a.73.73,0,0,0,0-.25.32.32,0,0,0-.13-.15.65.65,0,0,0-.18-.11,1.07,1.07,0,0,0-.3,0H34.37a1.07,1.07,0,0,0-.31,0,.65.65,0,0,0-.18.11.45.45,0,0,0-.14.15,1.14,1.14,0,0,0,0,.25v.25H32.63v-.52a.8.8,0,0,1,.31-.65l.32-.26a.92.92,0,0,1,.62-.26H37a.93.93,0,0,1,.62.26l.31.26a.81.81,0,0,1,.32.65v2.13a.55.55,0,0,1,0,.28.72.72,0,0,1-.2.2l-.38.31a.61.61,0,0,1-.36.17v.07A.59.59,0,0,1,37.63,68.91Z"/><path class="cls-8" d="M44.82,67.93h1.1v2.6h1.24v.91H45.92v2.08h-1.1V71.44h-4.6V70.37l4.45-6h1.22l-4.33,5.81a.75.75,0,0,1-.22.24v.06h3.48Z"/><path class="cls-8" d="M60.94,67.54h2.94a.93.93,0,0,1,.62.26l.31.26a.81.81,0,0,1,.32.65v3.64a.82.82,0,0,1-.32.65l-.31.26a1,1,0,0,1-.62.26H60a1,1,0,0,1-.62-.26L59,73a.84.84,0,0,1-.31-.65v-.52h1.09v.24a1.26,1.26,0,0,0,0,.26.57.57,0,0,0,.14.15,1.08,1.08,0,0,0,.18.11,1.53,1.53,0,0,0,.3,0H63.4l.3,0a1.08,1.08,0,0,0,.18-.11.57.57,0,0,0,.14-.15,1.26,1.26,0,0,0,0-.26V69a1.07,1.07,0,0,0,0-.25.45.45,0,0,0-.14-.15.65.65,0,0,0-.18-.11,1.07,1.07,0,0,0-.3,0H60.89a.92.92,0,0,0-.62.26.7.7,0,0,0-.32.52H58.86V64.42H65v.91H60v2.84H60c0-.09.1-.21.28-.35A1.2,1.2,0,0,1,60.94,67.54Z"/><path class="cls-8" d="M73.91,66.11H72.82v-.25a.73.73,0,0,0,0-.25.4.4,0,0,0-.13-.15.56.56,0,0,0-.19-.11,1,1,0,0,0-.29,0H69.06a1,1,0,0,0-.29,0,.56.56,0,0,0-.19.11.4.4,0,0,0-.13.15,1.14,1.14,0,0,0,0,.25v2.59h0l.06-.07q.46-.45.72-.45H72.8a1,1,0,0,1,.62.26l.31.26a.8.8,0,0,1,.31.65v3.25a.81.81,0,0,1-.31.65l-.31.26a1,1,0,0,1-.62.26H68.58a1,1,0,0,1-.62-.26L67.65,73a.81.81,0,0,1-.31-.65V65.59a.8.8,0,0,1,.31-.65l.31-.26a1,1,0,0,1,.62-.26h4.09a1,1,0,0,1,.62.26l.31.26a.8.8,0,0,1,.31.65Zm-1,6v-2.7a.73.73,0,0,0,0-.25A.4.4,0,0,0,72.8,69a.56.56,0,0,0-.19-.11,1,1,0,0,0-.3,0H69.39a1.34,1.34,0,0,0-.33,0,2.76,2.76,0,0,0-.32.17c-.2.12-.3.23-.31.33v2.71a1.26,1.26,0,0,0,0,.26s.06.08.13.15a.8.8,0,0,0,.19.11,1.48,1.48,0,0,0,.29,0h3.25a1.53,1.53,0,0,0,.3,0,.8.8,0,0,0,.19-.11c.07-.07.12-.11.13-.15A.8.8,0,0,0,73,72.07Z"/><path class="cls-8" d="M76.61,73.52l4.27-7.93a.6.6,0,0,1,.22-.26H75.47v-.91h6.67v1L77.8,73.52Z"/><path class="cls-8" d="M84.27,69.5l.61-.51a.64.64,0,0,1,.37-.17v-.06a.64.64,0,0,1-.37-.17l-.43-.34a.56.56,0,0,1-.2-.44V65.59a.8.8,0,0,1,.31-.65l.31-.26a1,1,0,0,1,.63-.26h4a1,1,0,0,1,.63.26l.31.26a.8.8,0,0,1,.31.65v2.22a.54.54,0,0,1-.21.44l-.43.34a.61.61,0,0,1-.36.17v.06a.61.61,0,0,1,.36.17l.62.51a.6.6,0,0,1,.18.51v2.34a.82.82,0,0,1-.32.65c-.06,0-.17.13-.31.26a1,1,0,0,1-.62.26H85.34a1,1,0,0,1-.63-.26A2.33,2.33,0,0,0,84.4,73a.84.84,0,0,1-.31-.65V70A.6.6,0,0,1,84.27,69.5Zm4.53-.14H86.17a.8.8,0,0,0-.26,0,.69.69,0,0,0-.22.15l-.29.23a.79.79,0,0,0-.19.19.85.85,0,0,0,0,.28v1.84a1.26,1.26,0,0,0,0,.26.57.57,0,0,0,.14.15,1.08,1.08,0,0,0,.18.11,1.53,1.53,0,0,0,.3,0h3.33l.3,0a1.08,1.08,0,0,0,.18-.11.57.57,0,0,0,.14-.15,1.26,1.26,0,0,0,0-.26V70.23a.85.85,0,0,0,0-.28.72.72,0,0,0-.2-.19l-.28-.23a.82.82,0,0,0-.22-.15A.83.83,0,0,0,88.8,69.36Zm.19-4H86a1,1,0,0,0-.3,0,.46.46,0,0,0-.18.11c-.08.06-.13.11-.14.15a1.14,1.14,0,0,0,0,.25v1.69a.89.89,0,0,0,0,.29s.07.1.18.19l.33.27a.92.92,0,0,0,.21.13,1.62,1.62,0,0,0,.3,0h2.19a1.7,1.7,0,0,0,.3,0,.73.73,0,0,0,.2-.13l.34-.27c.11-.09.17-.15.18-.19a.89.89,0,0,0,0-.29V65.86a1.14,1.14,0,0,0,0-.25s-.06-.09-.14-.15a.65.65,0,0,0-.18-.11A1,1,0,0,0,89,65.33Z"/><path class="cls-8" d="M103,71.83h1.1v.24a.8.8,0,0,0,0,.26s0,.08.13.15a1.08,1.08,0,0,0,.18.11,1.76,1.76,0,0,0,.31,0h3.11a1.53,1.53,0,0,0,.3,0,.62.62,0,0,0,.18-.11c.08-.07.13-.11.14-.15a.8.8,0,0,0,0-.26V69.49h0l-.07.06c-.3.3-.54.46-.71.46h-3.54a1,1,0,0,1-.62-.26l-.31-.26a.81.81,0,0,1-.31-.65V65.59a.8.8,0,0,1,.31-.65l.31-.26a.93.93,0,0,1,.62-.26h4.21a1,1,0,0,1,.63.26l.31.26a.8.8,0,0,1,.31.65v6.76a.81.81,0,0,1-.31.65l-.31.26a1,1,0,0,1-.63.26h-4.08a1,1,0,0,1-.62-.26l-.31-.26a.82.82,0,0,1-.32-.65Zm1-6v2.7a.8.8,0,0,0,0,.26.4.4,0,0,0,.13.15.8.8,0,0,0,.19.11,1.48,1.48,0,0,0,.29,0h2.93a1.21,1.21,0,0,0,.33,0,1.72,1.72,0,0,0,.32-.17c.2-.12.3-.23.31-.32V65.86a.73.73,0,0,0,0-.25s-.06-.09-.14-.15a.46.46,0,0,0-.18-.11,1,1,0,0,0-.3,0h-3.25a1,1,0,0,0-.29,0,.56.56,0,0,0-.19.11.4.4,0,0,0-.13.15A.73.73,0,0,0,103.93,65.86Z"/><path class="cls-8" d="M113.14,64.42h5.15a.92.92,0,0,1,.62.26l.32.26a.83.83,0,0,1,.31.65v6.76a.84.84,0,0,1-.31.65l-.32.26a1,1,0,0,1-.62.26h-5.15a1,1,0,0,1-.62-.26l-.31-.26a.82.82,0,0,1-.32-.65V65.59a.81.81,0,0,1,.32-.65l.31-.26A1,1,0,0,1,113.14,64.42Zm5.31,7.65V65.86a1.14,1.14,0,0,0,0-.25.45.45,0,0,0-.14-.15.65.65,0,0,0-.18-.11,1.07,1.07,0,0,0-.3,0h-4.19a1.07,1.07,0,0,0-.3,0,.65.65,0,0,0-.18.11.32.32,0,0,0-.13.15.73.73,0,0,0,0,.25v6.21a.8.8,0,0,0,0,.26s0,.08.13.15a1.08,1.08,0,0,0,.18.11,1.7,1.7,0,0,0,.3,0h4.19l.3,0a1.08,1.08,0,0,0,.18-.11.57.57,0,0,0,.14-.15A1.26,1.26,0,0,0,118.45,72.07Z"/><path class="cls-8" d="M122.05,67l-.61-.63,1.83-2h1.52v9.1h-1v-8a1.11,1.11,0,0,1,0-.33l0,0Z"/><path class="cls-8" d="M126.74,73.52V72.14a1,1,0,0,1,0-.31,1.06,1.06,0,0,1,.22-.22l4.31-3.94a.76.76,0,0,0,.21-.27,1.21,1.21,0,0,0,0-.38V65.86a1.14,1.14,0,0,0,0-.25s-.06-.09-.14-.15a.65.65,0,0,0-.18-.11,1,1,0,0,0-.3,0H128.6a1,1,0,0,0-.3,0,.65.65,0,0,0-.18.11c-.08.06-.13.11-.14.15a1.14,1.14,0,0,0,0,.25v.25h-1.09v-.52a.8.8,0,0,1,.31-.65l.31-.26a1,1,0,0,1,.63-.26h3.27a1,1,0,0,1,.63.26l.31.26a.8.8,0,0,1,.31.65v1.83a1.21,1.21,0,0,1,0,.38.54.54,0,0,1-.21.27L128.09,72a1,1,0,0,0-.22.26.85.85,0,0,0,0,.33v.06h4.81v.91Z"/><path class="cls-8" d="M149.6,68.91l.51.42a.78.78,0,0,1,.23.23,1.55,1.55,0,0,1,0,.39v2.4a1,1,0,0,1,0,.36,1.24,1.24,0,0,1-.21.27l-.23.24a.87.87,0,0,1-.61.3h-3.69a1,1,0,0,1-.63-.26l-.31-.26a.81.81,0,0,1-.31-.65v-.52h1.09v.24a1.26,1.26,0,0,0,0,.26s.06.08.14.15a1.08,1.08,0,0,0,.18.11,1.53,1.53,0,0,0,.3,0h2.57a1.53,1.53,0,0,0,.3,0,1.08,1.08,0,0,0,.18-.11c.08-.07.13-.11.14-.15a1.26,1.26,0,0,0,0-.26v-2a.62.62,0,0,0-.24-.49l-.19-.17a1.07,1.07,0,0,0-.27-.2,2,2,0,0,0-.33,0h-2.08v-.84h1.9a1.2,1.2,0,0,0,.32,0,.92.92,0,0,0,.28-.2l.19-.15a.93.93,0,0,0,.23-.23,1,1,0,0,0,0-.32V65.86a.73.73,0,0,0,0-.25.4.4,0,0,0-.13-.15.65.65,0,0,0-.18-.11,1.07,1.07,0,0,0-.3,0h-2.15a1.07,1.07,0,0,0-.31,0,.65.65,0,0,0-.18.11c-.08.06-.13.11-.14.15a1.14,1.14,0,0,0,0,.25v.25H144.6v-.52a.8.8,0,0,1,.31-.65l.31-.26a1,1,0,0,1,.63-.26H149a.93.93,0,0,1,.62.26l.31.26a.8.8,0,0,1,.31.65v2.13a.78.78,0,0,1,0,.28.72.72,0,0,1-.2.2l-.38.31a.64.64,0,0,1-.36.17v.07A.62.62,0,0,1,149.6,68.91Z"/><path class="cls-8" d="M156.79,67.93h1.09v2.6h1.25v.91h-1.25v2.08h-1.09V71.44h-4.6V70.37l4.45-6h1.22l-4.33,5.81a.75.75,0,0,1-.22.24v.06h3.48Z"/><path class="cls-8" d="M163.16,67.54h2.94a.93.93,0,0,1,.62.26l.32.26a.83.83,0,0,1,.31.65v3.64A.84.84,0,0,1,167,73l-.32.26a1,1,0,0,1-.62.26h-3.9a1,1,0,0,1-.63-.26l-.31-.26a.81.81,0,0,1-.31-.65v-.52H162v.24a1.26,1.26,0,0,0,0,.26.57.57,0,0,0,.14.15,1.08,1.08,0,0,0,.18.11,1.53,1.53,0,0,0,.3,0h2.94a1.7,1.7,0,0,0,.3,0,1.08,1.08,0,0,0,.18-.11c.08-.07.12-.11.13-.15a.8.8,0,0,0,0-.26V69a.69.69,0,0,0,0-.25.32.32,0,0,0-.13-.15.65.65,0,0,0-.18-.11,1.07,1.07,0,0,0-.3,0h-2.51a1,1,0,0,0-.63.26.72.72,0,0,0-.31.52h-1.09V64.42h6.11v.91h-5v2.84h.05c0-.09.11-.21.29-.35A1.2,1.2,0,0,1,163.16,67.54Z"/><path class="cls-8" d="M176.13,66.11H175v-.25a.73.73,0,0,0,0-.25s-.06-.09-.14-.15a.46.46,0,0,0-.18-.11,1,1,0,0,0-.3,0h-3.11a1,1,0,0,0-.3,0,.56.56,0,0,0-.19.11.4.4,0,0,0-.13.15.73.73,0,0,0,0,.25v2.59h0l.07-.07c.3-.3.54-.45.71-.45H175a1,1,0,0,1,.62.26l.31.26a.8.8,0,0,1,.31.65v3.25A.81.81,0,0,1,176,73l-.31.26a1,1,0,0,1-.62.26H170.8a1,1,0,0,1-.62-.26l-.31-.26a.81.81,0,0,1-.31-.65V65.59a.8.8,0,0,1,.31-.65l.31-.26a1,1,0,0,1,.62-.26h4.08a1,1,0,0,1,.63.26l.31.26a.8.8,0,0,1,.31.65Zm-1,6v-2.7a.73.73,0,0,0,0-.25A.4.4,0,0,0,175,69a.56.56,0,0,0-.19-.11,1,1,0,0,0-.29,0h-2.93a1.29,1.29,0,0,0-.33,0A2.76,2.76,0,0,0,171,69c-.2.12-.3.23-.31.33v2.71a.8.8,0,0,0,0,.26s.06.08.13.15a.8.8,0,0,0,.19.11,1.53,1.53,0,0,0,.3,0h3.25a1.48,1.48,0,0,0,.29,0,.8.8,0,0,0,.19-.11c.07-.07.12-.11.13-.15A.8.8,0,0,0,175.17,72.07Z"/><path class="cls-8" d="M24.53,101.87h0a1.88,1.88,0,0,1-.08-.52V95.69h.91v7.59h-.91l-4-6.09h0a1.57,1.57,0,0,1,.08.52v5.56h-.91V95.69h.91Z"/><path class="cls-8" d="M30.94,102.85h0q0,.12-.24.27a1.77,1.77,0,0,1-.27.14,1.26,1.26,0,0,1-.26,0H28.28a.77.77,0,0,1-.52-.22l-.26-.21a.68.68,0,0,1-.26-.55V101a.67.67,0,0,1,.26-.54l.26-.21a.77.77,0,0,1,.52-.22h2.2l.14.1a.31.31,0,0,1,.13.21h0V99.06a1.1,1.1,0,0,0,0-.21.44.44,0,0,0-.12-.12.52.52,0,0,0-.15-.09.73.73,0,0,0-.25,0H28.5a.75.75,0,0,0-.26,0,1,1,0,0,0-.27.19l-.65-.55.26-.21a1.23,1.23,0,0,1,.27-.19.75.75,0,0,1,.26,0h2.55a.79.79,0,0,1,.52.22l.26.21a.68.68,0,0,1,.26.55v3.24a.84.84,0,0,0,0,.21.36.36,0,0,0,.11.12.34.34,0,0,1,.12.13s0,.1,0,.21v.53h-.38a.72.72,0,0,1-.26,0,.55.55,0,0,1-.2-.13Q30.94,103,30.94,102.85Zm-2.79-1.62v.85a1,1,0,0,0,0,.21.32.32,0,0,0,.12.12.42.42,0,0,0,.15.09.69.69,0,0,0,.25,0H30l.27,0a1.41,1.41,0,0,0,.26-.14.73.73,0,0,0,.23-.18.45.45,0,0,0,0-.21v-.74a1,1,0,0,0,0-.21.44.44,0,0,0-.12-.12.42.42,0,0,0-.15-.1H28.43a.35.35,0,0,0-.15.1.32.32,0,0,0-.12.12A1,1,0,0,0,28.15,101.23Z"/><path class="cls-8" d="M37.48,98.38h0q0-.09.21-.24l.16-.12.26-.14.27,0h1.72a.77.77,0,0,1,.52.22l.26.21a.68.68,0,0,1,.26.55v4.44h-.91V99.06a1.1,1.1,0,0,0,0-.21.32.32,0,0,0-.12-.12.42.42,0,0,0-.15-.09.73.73,0,0,0-.25,0H38.55l-.26,0a1.77,1.77,0,0,0-.27.14c-.17.1-.25.2-.26.28v4.22h-.91V99.06a.91.91,0,0,0,0-.21.36.36,0,0,0-.11-.12l-.15-.09a.73.73,0,0,0-.25,0h-1.1l-.26,0a1.77,1.77,0,0,0-.27.14.88.88,0,0,0-.23.18.45.45,0,0,0,0,.21v4.11h-.91V99.06a1.1,1.1,0,0,0,0-.21.44.44,0,0,0-.12-.12.3.3,0,0,1-.11-.13.78.78,0,0,1,0-.21v-.53h.38a.82.82,0,0,1,.27,0,1.23,1.23,0,0,1,.2.13.42.42,0,0,1,.17.27h0q0-.12.24-.27a1.77,1.77,0,0,1,.27-.14,1.26,1.26,0,0,1,.26,0h1.63a.79.79,0,0,1,.52.22A.77.77,0,0,1,37.48,98.38Z"/><path class="cls-8" d="M46.56,102.3l.65.55-.26.21a1,1,0,0,1-.27.19.72.72,0,0,1-.26,0H43.53a.81.81,0,0,1-.53-.22l-.26-.21a.71.71,0,0,1-.26-.55V98.84a.71.71,0,0,1,.26-.55l.26-.21a.81.81,0,0,1,.53-.22h2.52a.9.9,0,0,1,.52.22l.27.21a.66.66,0,0,1,.26.55v2.22H43.39v1a.84.84,0,0,0,0,.21.32.32,0,0,0,.12.12.42.42,0,0,0,.15.09.66.66,0,0,0,.25,0H46a.72.72,0,0,0,.26,0A1,1,0,0,0,46.56,102.3Zm-.37-2V99.06a.56.56,0,0,0,0-.21.36.36,0,0,0-.11-.12.42.42,0,0,0-.15-.09.73.73,0,0,0-.25,0H43.93a.66.66,0,0,0-.25,0,.42.42,0,0,0-.15.09.32.32,0,0,0-.12.12.91.91,0,0,0,0,.21v1.29Z"/><path class="cls-8" d="M55,99.81H52.42a.79.79,0,0,1-.52-.22l-.29-.24a.57.57,0,0,1-.23-.44V96.67a.67.67,0,0,1,.26-.54l.26-.22a.84.84,0,0,1,.52-.22H55.3a.82.82,0,0,1,.52.22l.26.22a.65.65,0,0,1,.27.54v.43h-.92v-.2a1,1,0,0,0,0-.21s-.05-.08-.12-.13a.42.42,0,0,0-.15-.09,1.07,1.07,0,0,0-.25,0H52.82a1.14,1.14,0,0,0-.25,0l-.15.09a.3.3,0,0,0-.11.13.78.78,0,0,0,0,.21v1.71a.78.78,0,0,0,0,.21.36.36,0,0,0,.11.12.53.53,0,0,0,.15.1h2.84a.82.82,0,0,1,.52.22l.26.22a.65.65,0,0,1,.26.54v2.27a.68.68,0,0,1-.26.55l-.26.21a.77.77,0,0,1-.52.22h-3.1a.81.81,0,0,1-.52-.22l-.26-.21a.71.71,0,0,1-.26-.55v-.43h.91v.21a.84.84,0,0,0,0,.21.36.36,0,0,0,.11.12l.15.09a.73.73,0,0,0,.25,0H55a.73.73,0,0,0,.25,0,.42.42,0,0,0,.15-.09.32.32,0,0,0,.12-.12,1,1,0,0,0,0-.21v-1.82a1.16,1.16,0,0,0,0-.22.32.32,0,0,0-.12-.12.42.42,0,0,0-.15-.09A1.14,1.14,0,0,0,55,99.81Z"/><path class="cls-8" d="M60.66,103.28H59a.77.77,0,0,1-.52-.22l-.26-.21a.68.68,0,0,1-.26-.55V97.86h.91v4.22a1,1,0,0,0,0,.21.32.32,0,0,0,.12.12.42.42,0,0,0,.15.09.69.69,0,0,0,.25,0h1.17l.26,0a1.14,1.14,0,0,0,.27-.14.73.73,0,0,0,.23-.18.45.45,0,0,0,0-.21V97.86h.91v4.22a.53.53,0,0,0,0,.21.28.28,0,0,0,.11.12.3.3,0,0,1,.11.13.78.78,0,0,1,0,.21v.53h-.38a.82.82,0,0,1-.27,0,.78.78,0,0,1-.2-.13.42.42,0,0,1-.17-.27h0q0,.12-.24.27a1.77,1.77,0,0,1-.27.14Z"/><path class="cls-8" d="M63.79,97.86h.38a.82.82,0,0,1,.27,0,.91.91,0,0,1,.19.13q.18.15.18.27h0q0-.12.24-.27a1.77,1.77,0,0,1,.27-.14,1.26,1.26,0,0,1,.26,0h1a.81.81,0,0,1,.52.22l.26.21-.65.55-.13-.11-.15-.09a.73.73,0,0,0-.25,0h-.47l-.26,0a1.77,1.77,0,0,0-.27.14A.88.88,0,0,0,65,99a.45.45,0,0,0,0,.21v4.11h-.91V99.06a.91.91,0,0,0,0-.21.36.36,0,0,0-.11-.12.3.3,0,0,1-.11-.13.5.5,0,0,1,0-.21Z"/><path class="cls-8" d="M68.32,97.86h.38a.72.72,0,0,1,.26,0,.92.92,0,0,1,.21.13.42.42,0,0,1,.17.27h0q0-.12.24-.27a1.77,1.77,0,0,1,.27-.14,1.26,1.26,0,0,1,.26,0h1.92a.79.79,0,0,1,.52.22l.26.21a.71.71,0,0,1,.26.55v4.44H72.2V99.06a.91.91,0,0,0,0-.21.36.36,0,0,0-.11-.12l-.15-.09a.73.73,0,0,0-.25,0H70.28l-.26,0a1.77,1.77,0,0,0-.27.14.73.73,0,0,0-.23.18.45.45,0,0,0,0,.21v4.11h-.91V99.06a.91.91,0,0,0,0-.21.28.28,0,0,0-.11-.12.24.24,0,0,1-.11-.13.78.78,0,0,1,0-.21Z"/><path class="cls-8" d="M78.22,102.85h0q0,.12-.24.27a2.65,2.65,0,0,1-.26.14l-.27,0H75.56a.77.77,0,0,1-.52-.22l-.26-.21a.71.71,0,0,1-.26-.55V101a.7.7,0,0,1,.26-.54l.26-.21a.77.77,0,0,1,.52-.22h2.2l.14.1a.28.28,0,0,1,.13.21h0V99.06a1.1,1.1,0,0,0,0-.21.32.32,0,0,0-.12-.12.42.42,0,0,0-.15-.09.69.69,0,0,0-.25,0H75.79a.58.58,0,0,0-.53.22l-.65-.55.26-.21a1.26,1.26,0,0,1,.26-.19.82.82,0,0,1,.27,0h2.54a.77.77,0,0,1,.52.22l.26.21a.68.68,0,0,1,.26.55v3.24a.84.84,0,0,0,0,.21.36.36,0,0,0,.11.12c.07,0,.11.09.12.13a1,1,0,0,1,0,.21v.53h-.37a.78.78,0,0,1-.27,0,.55.55,0,0,1-.2-.13Q78.22,103,78.22,102.85Zm-2.79-1.62v.85a.53.53,0,0,0,0,.21s0,.07.11.12a.42.42,0,0,0,.15.09.73.73,0,0,0,.25,0h1.32l.27,0a1.41,1.41,0,0,0,.26-.14.73.73,0,0,0,.23-.18.45.45,0,0,0,0-.21v-.74a1,1,0,0,0,0-.21.32.32,0,0,0-.12-.12.35.35,0,0,0-.15-.1H75.71a.35.35,0,0,0-.15.1c-.07,0-.11.09-.11.12A.5.5,0,0,0,75.43,101.23Z"/><path class="cls-8" d="M84.76,98.38h0q0-.09.21-.24l.16-.12a1.77,1.77,0,0,1,.27-.14,1.26,1.26,0,0,1,.26,0h1.73a.81.81,0,0,1,.52.22l.26.21a.71.71,0,0,1,.26.55v4.44h-.91V99.06a.91.91,0,0,0,0-.21.36.36,0,0,0-.11-.12l-.15-.09a.76.76,0,0,0-.25,0h-1.2l-.26,0a1.77,1.77,0,0,0-.27.14c-.16.1-.25.2-.26.28v4.22h-.91V99.06a1.1,1.1,0,0,0,0-.21.32.32,0,0,0-.12-.12.42.42,0,0,0-.15-.09.73.73,0,0,0-.25,0H82.51l-.27,0-.27.14a.78.78,0,0,0-.22.18.42.42,0,0,0,0,.21v4.11H80.8V99.06a1.1,1.1,0,0,0,0-.21.32.32,0,0,0-.12-.12.3.3,0,0,1-.11-.13.78.78,0,0,1,0-.21v-.53h.38a.82.82,0,0,1,.27,0,.91.91,0,0,1,.2.13.38.38,0,0,1,.17.27h0q0-.12.24-.27a1.41,1.41,0,0,1,.26-.14l.27,0H84a1,1,0,0,1,.76.52Z"/><path class="cls-8" d="M93.84,102.3l.65.55-.26.21a1.14,1.14,0,0,1-.26.19.82.82,0,0,1-.27,0H90.81a.77.77,0,0,1-.52-.22l-.26-.21a.68.68,0,0,1-.26-.55V98.84a.68.68,0,0,1,.26-.55l.26-.21a.77.77,0,0,1,.52-.22h2.52a.9.9,0,0,1,.52.22l.27.21a.64.64,0,0,1,.26.55v2.22h-3.7v1a1,1,0,0,0,0,.21.32.32,0,0,0,.12.12.42.42,0,0,0,.15.09.69.69,0,0,0,.25,0h2.1a.82.82,0,0,0,.27,0A1.14,1.14,0,0,0,93.84,102.3Zm-.37-2V99.06a1.1,1.1,0,0,0,0-.21.32.32,0,0,0-.12-.12.42.42,0,0,0-.15-.09.73.73,0,0,0-.25,0H91.21a.69.69,0,0,0-.25,0,.42.42,0,0,0-.15.09.32.32,0,0,0-.12.12,1.1,1.1,0,0,0,0,.21v1.29Z"/><path class="cls-8" d="M135.3,13.25h1.26a2.06,2.06,0,0,1,1.52.5,2.2,2.2,0,0,1,.49,1.58,1.81,1.81,0,0,1-1.16,1.93c.84.17,1.26.83,1.26,2a2.15,2.15,0,0,1-.46,1.48,1.65,1.65,0,0,1-1.3.51H135.3Zm1.07.82v2.78a1.19,1.19,0,0,0,.89-.32,1.52,1.52,0,0,0,.28-1.05,1.86,1.86,0,0,0-.24-1.11A1.15,1.15,0,0,0,136.37,14.07Zm0,3.58v2.78a1.32,1.32,0,0,0,.91-.28,1.46,1.46,0,0,0,.27-1,1.79,1.79,0,0,0-.27-1.14A1.17,1.17,0,0,0,136.37,17.65Z"/><path class="cls-8" d="M143.22,21.24h-1v-.66h0a1.16,1.16,0,0,1-1,.74,1.21,1.21,0,0,1-.94-.5,4,4,0,0,1-.41-2.24,5.87,5.87,0,0,1,.31-2.22,1.06,1.06,0,0,1,1.05-.68.92.92,0,0,1,.57.16,2,2,0,0,1,.44.52h0v-.6h1Zm-1.68-.82c.26,0,.43-.16.52-.47a6.6,6.6,0,0,0,.13-1.6,5.6,5.6,0,0,0-.12-1.4.48.48,0,0,0-.49-.4.53.53,0,0,0-.53.37,4.26,4.26,0,0,0-.15,1.37,7.7,7.7,0,0,0,.12,1.64C141.1,20.26,141.27,20.42,141.54,20.42Z"/><path class="cls-8" d="M145.61,15.74v.53h0a1.21,1.21,0,0,1,1.07-.61c.79,0,1.19.44,1.19,1.3v4.28h-1v-4c0-.54-.21-.81-.64-.81a.56.56,0,0,0-.46.21.93.93,0,0,0-.18.6v4h-1v-5.5Z"/><path class="cls-8" d="M153,21.24h-1.08l-1.53-2.93h0v2.93h-1V13h1V18.1h0l1.35-2.34h1.08l-1.38,2.48Z"/><path class="cls-8" d="M160.2,21.24h-.85l-2-5.49h0v5.48h-1v-8h.86l2,5.48h0V13.25h.95Z"/><path class="cls-8" d="M165,21.24h-1v-.66h0a1.16,1.16,0,0,1-1,.74,1.21,1.21,0,0,1-.94-.5,4,4,0,0,1-.4-2.24,5.91,5.91,0,0,1,.3-2.22,1.07,1.07,0,0,1,1.06-.68.89.89,0,0,1,.56.16,2,2,0,0,1,.44.52h0v-.6h1Zm-1.68-.82c.26,0,.44-.16.52-.47a6.6,6.6,0,0,0,.13-1.6,6.3,6.3,0,0,0-.11-1.4.49.49,0,0,0-.5-.4.53.53,0,0,0-.53.37,4.66,4.66,0,0,0-.14,1.37,7.88,7.88,0,0,0,.11,1.64C162.88,20.26,163.05,20.42,163.32,20.42Z"/><path class="cls-8" d="M172.05,21.24h-1v-4c0-.54-.2-.8-.61-.8s-.67.32-.67.95v3.84h-1V17.17a.72.72,0,0,0-.17-.51.53.53,0,0,0-.43-.21c-.46,0-.68.29-.68.87v3.92h-1V15.76h1v.49a1.47,1.47,0,0,1,1.14-.59,1.11,1.11,0,0,1,1.07.69,1.5,1.5,0,0,1,1.24-.67c.77,0,1.15.44,1.15,1.32Z"/><path class="cls-8" d="M176.81,18.68H174.5a5.07,5.07,0,0,0,.13,1.35.55.55,0,0,0,.58.45.46.46,0,0,0,.47-.26,2.07,2.07,0,0,0,.14-.83h.93c0,1.29-.57,1.93-1.63,1.93s-1.71-.9-1.71-2.7q0-2.94,1.77-2.94a1.55,1.55,0,0,1,1.15.5,3.23,3.23,0,0,1,.48,2.11Zm-1-.79a4,4,0,0,0-.13-1.18.49.49,0,0,0-.48-.35.53.53,0,0,0-.54.37,4.05,4.05,0,0,0-.13,1.16Z"/><path class="cls-8" d="M22.59,21.52a2.56,2.56,0,0,1-1.09.26A2.51,2.51,0,0,1,19.63,21c-.52-.56-.79-1.73-.79-3.5,0-1.92.27-3.21.79-3.87a2.37,2.37,0,0,1,1.92-1,5.16,5.16,0,0,1,1,.14v1.09a2.31,2.31,0,0,0-.77-.16,1.44,1.44,0,0,0-1.2.72,5.38,5.38,0,0,0-.5,2.81,14,14,0,0,0,.11,2,2,2,0,0,0,.5,1.12,1.29,1.29,0,0,0,1,.42,2.3,2.3,0,0,0,.87-.22Z"/><path class="cls-8" d="M26.63,16.45a1.8,1.8,0,0,0-1.13.3c-.23.19-.34.6-.34,1.25v3.68H24V15.54h1.16v.91h0a1.52,1.52,0,0,1,1.36-1h.08Z"/><path class="cls-8" d="M31.31,18.81H28.73a6.35,6.35,0,0,0,.13,1.51.62.62,0,0,0,.65.51.54.54,0,0,0,.54-.3,2.31,2.31,0,0,0,.14-.93h1q0,2.16-1.83,2.16c-1.27,0-1.9-1-1.9-3,0-2.19.66-3.29,2-3.29a1.7,1.7,0,0,1,1.29.57,3.57,3.57,0,0,1,.54,2.35Zm-1.16-.89A4.08,4.08,0,0,0,30,16.61a.53.53,0,0,0-.53-.4.58.58,0,0,0-.6.42,4.5,4.5,0,0,0-.14,1.29Z"/><path class="cls-8" d="M35.42,12.42h1.14v9.26H35.43v-.83h0a1.3,1.3,0,0,1-1.18.91,1.28,1.28,0,0,1-.82-.3,1.59,1.59,0,0,1-.53-.84,8.36,8.36,0,0,1-.14-1.81,12.3,12.3,0,0,1,.12-2.06,1.86,1.86,0,0,1,.49-1,1.27,1.27,0,0,1,2,.48h0Zm0,6.09a6.57,6.57,0,0,0-.14-1.61.58.58,0,0,0-.58-.48.62.62,0,0,0-.6.5A5.93,5.93,0,0,0,34,18.57a6.78,6.78,0,0,0,.15,1.71.59.59,0,0,0,.58.5c.28,0,.47-.17.59-.53A6.94,6.94,0,0,0,35.43,18.51Z"/><path class="cls-8" d="M38,13.67a.65.65,0,0,1,.19-.45.61.61,0,0,1,.45-.18.6.6,0,0,1,.44.18.61.61,0,0,1,.19.45.65.65,0,0,1-.63.63.58.58,0,0,1-.45-.19A.61.61,0,0,1,38,13.67Zm.06,1.87h1.14v6.14H38.09Z"/><path class="cls-8" d="M42.94,16.45H42.2v5.23H41.05V16.45h-.74v-.91h.74V13.87H42.2v1.67h.74Z"/><path class="cls-8" d="M50.49,21.52a2.56,2.56,0,0,1-1.09.26A2.48,2.48,0,0,1,47.54,21c-.53-.56-.8-1.73-.8-3.5,0-1.92.27-3.21.8-3.87a2.34,2.34,0,0,1,1.91-1,5.16,5.16,0,0,1,1,.14v1.09a2.31,2.31,0,0,0-.77-.16,1.44,1.44,0,0,0-1.2.72,5.38,5.38,0,0,0-.5,2.81,14,14,0,0,0,.11,2,2,2,0,0,0,.5,1.12,1.29,1.29,0,0,0,1,.42,2.26,2.26,0,0,0,.87-.22Z"/><path class="cls-8" d="M55.64,21.68H54.49v-.75h0a1.31,1.31,0,0,1-1.14.83,1.33,1.33,0,0,1-1-.56,4.36,4.36,0,0,1-.46-2.5,6.5,6.5,0,0,1,.35-2.49,1.18,1.18,0,0,1,1.17-.76,1,1,0,0,1,.63.18,2.13,2.13,0,0,1,.5.58h0v-.67h1.15Zm-1.88-.92c.3,0,.49-.18.59-.53a7.51,7.51,0,0,0,.14-1.79,6.22,6.22,0,0,0-.13-1.56.55.55,0,0,0-.55-.46.6.6,0,0,0-.59.43,4.7,4.7,0,0,0-.17,1.52,9.41,9.41,0,0,0,.13,1.84C53.27,20.58,53.46,20.76,53.76,20.76Z"/><path class="cls-8" d="M59.78,16.45a1.8,1.8,0,0,0-1.13.3c-.23.19-.34.6-.34,1.25v3.68H57.15V15.54h1.16v.91h0a1.52,1.52,0,0,1,1.36-1h.08Z"/><path class="cls-8" d="M63.32,12.42h1.14v9.26H63.33v-.83h0a1.24,1.24,0,0,1-2,.61,1.52,1.52,0,0,1-.52-.84,7.62,7.62,0,0,1-.15-1.81,12.3,12.3,0,0,1,.12-2.06,1.86,1.86,0,0,1,.49-1,1.27,1.27,0,0,1,2,.48h0Zm0,6.09a6.57,6.57,0,0,0-.14-1.61.58.58,0,0,0-.58-.48.62.62,0,0,0-.6.5,5.93,5.93,0,0,0-.16,1.65A6.78,6.78,0,0,0,62,20.28a.59.59,0,0,0,.58.5c.28,0,.48-.17.59-.53A6.49,6.49,0,0,0,63.33,18.51Z"/><path class="cls-8" d="M23.14,80.83a3.7,3.7,0,0,1-.44,2,1.65,1.65,0,0,1-2.65,0,3.62,3.62,0,0,1-.45-2,3.71,3.71,0,0,1,.44-2,1.64,1.64,0,0,1,2.65,0A3.63,3.63,0,0,1,23.14,80.83Zm-2.69,0a3.73,3.73,0,0,0,.22,1.52.77.77,0,0,0,1.4,0,3.71,3.71,0,0,0,.22-1.51,3.77,3.77,0,0,0-.22-1.52.76.76,0,0,0-1.4,0A3.79,3.79,0,0,0,20.45,80.83Z"/><path class="cls-8" d="M26.23,83.43h-.84V80.07q0-.6,0-1a1.88,1.88,0,0,1-.2.19l-.8.66L24,79.43l1.53-1.21h.7Z"/><path class="cls-8" d="M31.46,83.43H27.94V82.8l1.34-1.35c.39-.41.66-.7.79-.87a2,2,0,0,0,.28-.48,1.24,1.24,0,0,0,.09-.48.72.72,0,0,0-.21-.55.8.8,0,0,0-.59-.2,1.46,1.46,0,0,0-.58.11,2.44,2.44,0,0,0-.64.39L28,78.82a3.3,3.3,0,0,1,.85-.52,2.49,2.49,0,0,1,.87-.15,1.72,1.72,0,0,1,1.16.38,1.25,1.25,0,0,1,.44,1,1.89,1.89,0,0,1-.12.67,3,3,0,0,1-.39.65,9.32,9.32,0,0,1-.87.91l-.91.88v0h2.47Z"/><path class="cls-8" d="M35.43,79.42a1.23,1.23,0,0,1-.29.83,1.52,1.52,0,0,1-.81.44v0a1.54,1.54,0,0,1,.94.39,1.1,1.1,0,0,1,.31.82,1.35,1.35,0,0,1-.53,1.16,2.36,2.36,0,0,1-1.51.41,3.4,3.4,0,0,1-1.46-.28v-.74a4,4,0,0,0,.71.25,2.94,2.94,0,0,0,.71.09,1.49,1.49,0,0,0,.9-.23.81.81,0,0,0,.3-.69.65.65,0,0,0-.33-.61,2.12,2.12,0,0,0-1-.2h-.45v-.68h.46c.83,0,1.24-.29,1.24-.86a.66.66,0,0,0-.21-.52,1,1,0,0,0-.65-.18,2.24,2.24,0,0,0-.57.08,3,3,0,0,0-.64.33l-.41-.58a2.72,2.72,0,0,1,1.66-.53,1.94,1.94,0,0,1,1.23.34A1.1,1.1,0,0,1,35.43,79.42Z"/><path class="cls-8" d="M145.6,84.73h3.61a.7.7,0,0,1,.44.18l.22.18a.6.6,0,0,1,.22.46v4.74a.58.58,0,0,1-.22.45l-.22.19a.7.7,0,0,1-.44.18H145.6a.7.7,0,0,1-.44-.18l-.21-.19a.55.55,0,0,1-.22-.45V85.55a.57.57,0,0,1,.22-.46l.21-.18A.7.7,0,0,1,145.6,84.73Zm3.72,5.37V85.74a.77.77,0,0,0,0-.18s0-.06-.1-.1a.32.32,0,0,0-.13-.08h-3.35a.41.41,0,0,0-.13.08.26.26,0,0,0-.09.1.62.62,0,0,0,0,.18V90.1a.49.49,0,0,0,0,.17.27.27,0,0,0,.09.11l.13.08h3.35l.13-.08a.24.24,0,0,0,.1-.11A.63.63,0,0,0,149.32,90.1Z"/><path class="cls-8" d="M151.85,86.57l-.43-.45,1.28-1.39h1.07v6.38h-.71V85.48a.56.56,0,0,1,0-.24l0,0Z"/><path class="cls-8" d="M158.87,84.73h.73l-4.82,7.2h-.69Z"/><path class="cls-8" d="M160.14,88.29l.43-.35a.43.43,0,0,1,.25-.12v0a.43.43,0,0,1-.25-.12l-.3-.23a.37.37,0,0,1-.15-.31V85.55a.6.6,0,0,1,.22-.46l.22-.18a.68.68,0,0,1,.44-.18h2.79a.67.67,0,0,1,.43.18l.22.18a.57.57,0,0,1,.22.46v1.56a.4.4,0,0,1-.14.31l-.31.23a.41.41,0,0,1-.25.12v0a.41.41,0,0,1,.25.12l.43.35a.43.43,0,0,1,.13.36v1.64a.55.55,0,0,1-.22.45l-.22.19a.67.67,0,0,1-.43.18h-3a.7.7,0,0,1-.44-.18l-.22-.19a.58.58,0,0,1-.22-.45V88.65A.43.43,0,0,1,160.14,88.29Zm3.17-.1h-1.84l-.18,0s-.08,0-.16.1l-.2.16c-.08.07-.12.11-.13.14a.71.71,0,0,0,0,.19v1.3a.63.63,0,0,0,0,.17.24.24,0,0,0,.1.11.38.38,0,0,0,.13.08h2.75l.13-.08a.27.27,0,0,0,.09-.11.49.49,0,0,0,0-.17V88.8a.71.71,0,0,0,0-.19l-.14-.14-.2-.16c-.07-.06-.12-.1-.16-.1Zm.14-2.82h-2.33a.3.3,0,0,0-.12.08c-.06,0-.09.07-.1.1a.77.77,0,0,0,0,.18v1.18a.53.53,0,0,0,0,.21.41.41,0,0,0,.12.13l.24.19a.51.51,0,0,0,.14.09h2a.51.51,0,0,0,.14-.09l.24-.19c.07-.06.12-.1.13-.13a.84.84,0,0,0,0-.21V85.74a.62.62,0,0,0,0-.18.26.26,0,0,0-.09-.1.41.41,0,0,0-.13-.08Z"/><path class="cls-8" d="M167.29,84.73h3.62a.67.67,0,0,1,.43.18l.22.18a.57.57,0,0,1,.22.46v4.74a.55.55,0,0,1-.22.45l-.22.19a.67.67,0,0,1-.43.18h-3.62a.67.67,0,0,1-.43-.18l-.22-.19a.55.55,0,0,1-.22-.45V85.55a.57.57,0,0,1,.22-.46l.22-.18A.67.67,0,0,1,167.29,84.73ZM171,90.1V85.74a.62.62,0,0,0,0-.18.26.26,0,0,0-.09-.1.41.41,0,0,0-.13-.08h-3.36a.41.41,0,0,0-.13.08.26.26,0,0,0-.09.1.77.77,0,0,0,0,.18V90.1a.63.63,0,0,0,0,.17.27.27,0,0,0,.09.11l.13.08h3.36l.13-.08a.27.27,0,0,0,.09-.11A.49.49,0,0,0,171,90.1Z"/><path class="cls-8" d="M128.37,86.41h0a.27.27,0,0,1,0-.1l.72-2.33h.34l-.88,2.67h-.42L127.29,84h.33l.73,2.33Z"/><path class="cls-8" d="M129.72,86.65l.91-2.67h.45l.93,2.67h-.32l-.2-.56h-1.26l-.19.56Zm1.14-2.44h0a.26.26,0,0,1,0,.11l-.51,1.53h1.1l-.52-1.53A.26.26,0,0,1,130.86,84.21Z"/><path class="cls-8" d="M134.23,86.38v.27h-1.65V84h.32v2.4Z"/><path class="cls-8" d="M134.58,84h.32v2.67h-.32Z"/><path class="cls-8" d="M135.66,86.65V84h1.41a.25.25,0,0,1,.18.08l.37.3a.21.21,0,0,1,.09.16v1.59a.24.24,0,0,1-.09.16l-.37.3a.25.25,0,0,1-.18.08Zm1.73-.65V84.63a.2.2,0,0,0-.09-.15l-.18-.15a.24.24,0,0,0-.18-.08h-1v2.13h1a.29.29,0,0,0,.18-.08l.18-.15A.2.2,0,0,0,137.39,86Z"/><path class="cls-8" d="M127.88,88.55h2v.26H129v2.4h-.32v-2.4h-.84Z"/><path class="cls-8" d="M132,88.55h.32v2.66H132V90h-1.38v1.23h-.32V88.55h.32v1.18H132Z"/><path class="cls-8" d="M133,88.55h1.41a.27.27,0,0,1,.18.07l.09.08a.23.23,0,0,1,.09.19v.89a.27.27,0,0,1-.09.2l-.09.08a.34.34,0,0,1-.18.07h-.21l.39.61.06.08a.21.21,0,0,0,.08.05l0,0,.08.06a1,1,0,0,1,0,.11v.15h-.19a.15.15,0,0,1-.08,0l-.08-.05a.47.47,0,0,1-.14-.14l-.5-.81h-.55v1.06H133Zm.32.26v1.07h1l.05,0,0,0v-.9l0-.05-.05,0h-1Z"/><path class="cls-8" d="M137.3,88.55h.32v2.32a.23.23,0,0,1-.09.19l-.1.08a.27.27,0,0,1-.18.07H136a.27.27,0,0,1-.18-.07l-.1-.08a.23.23,0,0,1-.09-.19V88.55h.32v2.24s0,.06,0,.07,0,0,0,0l0,0h1.19l.05,0s0,0,0,0a.35.35,0,0,0,0-.07Z"/><polygon class="cls-9" points="139.52 86 139.52 89.24 141.96 87.62 139.52 86"/></g></g></g></svg>