<svg xmlns="http://www.w3.org/2000/svg" xmlns:xlink="http://www.w3.org/1999/xlink" viewBox="0 0 984.53 638.16"><defs><style>.cls-1{opacity:0.26;fill:url(#linear-gradient);}.cls-11,.cls-2,.cls-40{opacity:0.2;}.cls-2{fill:url(#linear-gradient-2);}.cls-3,.cls-4{opacity:0.4;}.cls-3{fill:url(#linear-gradient-3);}.cls-4{fill:url(#linear-gradient-4);}.cls-5{fill:url(#linear-gradient-5);}.cls-14,.cls-15,.cls-40,.cls-41,.cls-6{fill:#fff;}.cls-7{fill:url(#linear-gradient-6);}.cls-8{fill:url(#linear-gradient-7);}.cls-9{fill:url(#linear-gradient-8);}.cls-10{fill:url(#linear-gradient-9);}.cls-12{fill:url(#linear-gradient-10);}.cls-13{fill:url(#linear-gradient-11);}.cls-14,.cls-64{opacity:0.8;}.cls-15,.cls-16{opacity:0.6;}.cls-17{fill:url(#linear-gradient-12);}.cls-18{fill:url(#linear-gradient-13);}.cls-19{fill:url(#linear-gradient-14);}.cls-20{fill:url(#linear-gradient-15);}.cls-21{fill:url(#linear-gradient-16);}.cls-22{fill:url(#linear-gradient-17);}.cls-23{fill:url(#linear-gradient-18);}.cls-24{fill:url(#linear-gradient-19);}.cls-25{fill:url(#linear-gradient-20);}.cls-26{fill:url(#linear-gradient-21);}.cls-27{fill:url(#linear-gradient-22);}.cls-28{fill:url(#linear-gradient-23);}.cls-29{fill:url(#linear-gradient-24);}.cls-30{fill:url(#linear-gradient-25);}.cls-31{fill:url(#linear-gradient-26);}.cls-32{fill:url(#linear-gradient-27);}.cls-33{fill:url(#linear-gradient-28);}.cls-34{fill:url(#linear-gradient-29);}.cls-35{fill:url(#linear-gradient-30);}.cls-36{fill:url(#linear-gradient-31);}.cls-37{fill:url(#linear-gradient-32);}.cls-38{fill:url(#linear-gradient-33);}.cls-39{fill:url(#linear-gradient-34);}.cls-41{opacity:0.53;}.cls-42{fill:url(#linear-gradient-35);}.cls-43{fill:url(#linear-gradient-36);}.cls-44{fill:url(#linear-gradient-37);}.cls-45{fill:url(#linear-gradient-38);}.cls-46{fill:url(#linear-gradient-39);}.cls-47{fill:#f9f9f9;}.cls-48{fill:url(#linear-gradient-40);}.cls-49{fill:url(#linear-gradient-41);}.cls-50{fill:url(#linear-gradient-42);}.cls-51{fill:url(#linear-gradient-43);}.cls-52{fill:url(#linear-gradient-44);}.cls-53{fill:#666694;}.cls-54{fill:url(#linear-gradient-45);}.cls-55{fill:url(#linear-gradient-46);}.cls-56{fill:url(#linear-gradient-47);}.cls-57{fill:url(#linear-gradient-48);}.cls-58{fill:url(#linear-gradient-49);}.cls-59{fill:url(#linear-gradient-50);}.cls-60{fill:url(#linear-gradient-51);}.cls-61{fill:url(#linear-gradient-52);}.cls-62{fill:url(#linear-gradient-53);}.cls-63{fill:url(#linear-gradient-54);}</style><linearGradient id="linear-gradient" x1="51.69" y1="602.51" x2="1065.47" y2="-133.68" gradientTransform="matrix(1, -0.01, 0.01, 0.97, -108.42, 188.44)" gradientUnits="userSpaceOnUse"><stop offset="0" stop-color="#b37cff"/><stop offset="1" stop-color="#e8edf0"/></linearGradient><linearGradient id="linear-gradient-2" x1="1050.96" y1="-126.59" x2="295.5" y2="431.97" xlink:href="#linear-gradient"/><linearGradient id="linear-gradient-3" x1="-183.14" y1="141.17" x2="41.13" y2="186.92" gradientTransform="matrix(0.94, 0.01, -0.01, 0.81, 318.03, -20.2)" xlink:href="#linear-gradient"/><linearGradient id="linear-gradient-4" x1="-292.42" y1="240.24" x2="-168.46" y2="265.53" gradientTransform="matrix(0.94, 0.01, -0.01, 0.81, 318.03, -20.2)" xlink:href="#linear-gradient"/><linearGradient id="linear-gradient-5" x1="1645.53" y1="-2558.23" x2="1779.53" y2="-2510.23" gradientTransform="matrix(0.71, -0.7, 0.7, 0.71, 7591.42, 236.78)" gradientUnits="userSpaceOnUse"><stop offset="0" stop-color="#2b3582"/><stop offset="1" stop-color="#150e42"/></linearGradient><linearGradient id="linear-gradient-6" x1="9024.37" y1="-1822.64" x2="8812.22" y2="-1193.3" gradientTransform="matrix(-0.95, 0.32, 0.32, 0.95, 9110.5, -871.32)" xlink:href="#linear-gradient"/><linearGradient id="linear-gradient-7" x1="9599.31" y1="-4552.82" x2="9809.3" y2="-4653.32" gradientTransform="matrix(-0.71, -0.7, -0.7, 0.71, 811.74, 236.78)" xlink:href="#linear-gradient-5"/><linearGradient id="linear-gradient-8" x1="2006.7" y1="582.89" x2="1794.55" y2="1212.22" gradientTransform="matrix(0.95, 0.32, -0.32, 0.95, -707.34, -871.32)" xlink:href="#linear-gradient"/><linearGradient id="linear-gradient-9" x1="432.16" y1="586.98" x2="587.98" y2="119.49" gradientUnits="userSpaceOnUse"><stop offset="0" stop-color="#9fe2fe"/><stop offset="1" stop-color="#1b0071"/></linearGradient><linearGradient id="linear-gradient-10" x1="435.78" y1="579.11" x2="582.29" y2="139.6" gradientUnits="userSpaceOnUse"><stop offset="0" stop-color="#9cfffb"/><stop offset="1" stop-color="#9bfffa"/></linearGradient><linearGradient id="linear-gradient-11" x1="504.38" y1="303.85" x2="233.66" y2="406.87" gradientUnits="userSpaceOnUse"><stop offset="0" stop-color="#e8edf0"/><stop offset="1" stop-color="#f9c342"/></linearGradient><linearGradient id="linear-gradient-12" x1="247.99" y1="112.27" x2="279.51" y2="112.27" gradientUnits="userSpaceOnUse"><stop offset="0" stop-color="#53d8ff"/><stop offset="1" stop-color="#3840f7"/></linearGradient><linearGradient id="linear-gradient-13" x1="247.65" y1="117.93" x2="279.48" y2="117.93" gradientTransform="matrix(1, 0, 0, 1, 0, 0)" xlink:href="#linear-gradient-5"/><linearGradient id="linear-gradient-14" x1="271.19" y1="118.58" x2="279.5" y2="175.46" gradientUnits="userSpaceOnUse"><stop offset="0" stop-color="#f9b776"/><stop offset="1" stop-color="#f47960"/></linearGradient><linearGradient id="linear-gradient-15" x1="196.39" y1="138.55" x2="233.94" y2="138.55" gradientTransform="matrix(1, 0, 0, 1, 0, 0)" xlink:href="#linear-gradient-5"/><linearGradient id="linear-gradient-16" x1="194.8" y1="137.15" x2="231.35" y2="137.15" xlink:href="#linear-gradient-12"/><linearGradient id="linear-gradient-17" x1="229.3" y1="124.7" x2="237.62" y2="181.59" xlink:href="#linear-gradient-14"/><linearGradient id="linear-gradient-18" x1="288.97" y1="91.43" x2="265.78" y2="221.82" xlink:href="#linear-gradient-12"/><linearGradient id="linear-gradient-19" x1="280.92" y1="158.53" x2="328.18" y2="250.85" xlink:href="#linear-gradient-12"/><linearGradient id="linear-gradient-20" x1="425.91" y1="145.37" x2="439.52" y2="145.37" xlink:href="#linear-gradient-14"/><linearGradient id="linear-gradient-21" x1="427.01" y1="167.17" x2="442.91" y2="167.17" xlink:href="#linear-gradient-14"/><linearGradient id="linear-gradient-22" x1="453.04" y1="140.2" x2="320.06" y2="249.17" gradientUnits="userSpaceOnUse"><stop offset="0" stop-color="#fdf53f"/><stop offset="1" stop-color="#f9f9f9"/></linearGradient><linearGradient id="linear-gradient-23" x1="400.8" y1="144.24" x2="422.89" y2="144.24" xlink:href="#linear-gradient-14"/><linearGradient id="linear-gradient-24" x1="471.64" y1="188.33" x2="412.41" y2="237.56" xlink:href="#linear-gradient-14"/><linearGradient id="linear-gradient-25" x1="428.88" y1="142.86" x2="421" y2="116.87" xlink:href="#linear-gradient-14"/><linearGradient id="linear-gradient-26" x1="421.77" y1="95.13" x2="429.1" y2="136.92" gradientTransform="matrix(1, 0, 0, 1, 0, 0)" xlink:href="#linear-gradient-5"/><linearGradient id="linear-gradient-27" x1="420.72" y1="145.33" x2="412.84" y2="119.34" xlink:href="#linear-gradient-14"/><linearGradient id="linear-gradient-28" x1="444.24" y1="135.9" x2="315.82" y2="241.13" xlink:href="#linear-gradient-22"/><linearGradient id="linear-gradient-29" x1="363.04" y1="185.05" x2="433.05" y2="151.68" xlink:href="#linear-gradient-22"/><linearGradient id="linear-gradient-30" x1="378.19" y1="196.38" x2="413.53" y2="162.37" xlink:href="#linear-gradient-22"/><linearGradient id="linear-gradient-31" x1="458.97" y1="173.08" x2="399.73" y2="222.3" xlink:href="#linear-gradient-14"/><linearGradient id="linear-gradient-32" x1="-768.05" y1="74.54" x2="-813.79" y2="87.08" gradientTransform="matrix(-1, -0.05, -0.05, 1, -349.32, 79.16)" xlink:href="#linear-gradient-5"/><linearGradient id="linear-gradient-33" x1="-837.01" y1="161.99" x2="-869.46" y2="196.3" gradientTransform="matrix(-1, 0, 0, 1, -360.97, 0)" xlink:href="#linear-gradient-5"/><linearGradient id="linear-gradient-34" x1="-856.63" y1="170.54" x2="-871.36" y2="192.71" gradientTransform="matrix(-1, 0, 0, 1, -360.97, 0)" xlink:href="#linear-gradient-12"/><linearGradient id="linear-gradient-35" x1="507.46" y1="104.11" x2="740.94" y2="104.11" gradientUnits="userSpaceOnUse"><stop offset="0" stop-color="#e8edf0"/><stop offset="1" stop-color="#4c246d"/></linearGradient><linearGradient id="linear-gradient-36" x1="19327.63" y1="-4978.25" x2="19273.54" y2="-5011.04" gradientTransform="matrix(0.85, -0.53, 0.34, 0.87, -14140.37, 14655.05)" xlink:href="#linear-gradient-12"/><linearGradient id="linear-gradient-37" x1="19297.61" y1="-4990.37" x2="19235.71" y2="-5055.83" gradientTransform="matrix(0.85, -0.53, 0.34, 0.87, -14140.37, 14655.05)" xlink:href="#linear-gradient-12"/><linearGradient id="linear-gradient-38" x1="19323.68" y1="-4978.8" x2="19273.15" y2="-5009.42" gradientTransform="matrix(0.85, -0.53, 0.34, 0.87, -14140.37, 14655.05)" xlink:href="#linear-gradient-12"/><linearGradient id="linear-gradient-39" x1="-14759.25" y1="-4380.08" x2="-14736.16" y2="-4386.76" gradientTransform="matrix(-0.85, 0.53, 0.53, 0.85, -9638.08, 11610.76)" xlink:href="#linear-gradient-12"/><linearGradient id="linear-gradient-40" x1="16836.82" y1="630.01" x2="16857.33" y2="630.01" gradientTransform="matrix(-1, 0, 0, 1, 17715.48, 0)" xlink:href="#linear-gradient-5"/><linearGradient id="linear-gradient-41" x1="16838.9" y1="620.48" x2="16847.22" y2="620.48" gradientTransform="matrix(-1, 0, 0, 1, 17715.48, 0)" xlink:href="#linear-gradient-14"/><linearGradient id="linear-gradient-42" x1="16880.43" y1="629.68" x2="16912.6" y2="629.68" gradientTransform="matrix(-1, 0, 0, 1, 17715.48, 0)" xlink:href="#linear-gradient-5"/><linearGradient id="linear-gradient-43" x1="16880.91" y1="616.79" x2="16889.18" y2="616.79" gradientTransform="matrix(-1, 0, 0, 1, 17715.48, 0)" xlink:href="#linear-gradient-14"/><linearGradient id="linear-gradient-44" x1="16833.74" y1="543.43" x2="16890.11" y2="543.43" gradientTransform="matrix(-1, 0, 0, 1, 17715.48, 0)" xlink:href="#linear-gradient-5"/><linearGradient id="linear-gradient-45" x1="17028.41" y1="461.29" x2="16962.91" y2="429.29" gradientTransform="matrix(-1, 0, 0, 1, 17715.48, 0)" xlink:href="#linear-gradient-12"/><linearGradient id="linear-gradient-46" x1="16936.24" y1="374.65" x2="16966.98" y2="374.65" gradientTransform="matrix(-1, 0, 0, 1, 17715.48, 0)" xlink:href="#linear-gradient-14"/><linearGradient id="linear-gradient-47" x1="16907.97" y1="366.39" x2="16891.14" y2="525.72" gradientTransform="matrix(-1, 0, 0, 1, 17715.48, 0)" xlink:href="#linear-gradient-12"/><linearGradient id="linear-gradient-48" x1="17013.3" y1="373.1" x2="16938.14" y2="466.61" gradientTransform="matrix(-1, 0, 0, 1, 17715.48, 0)" xlink:href="#linear-gradient-14"/><linearGradient id="linear-gradient-49" x1="17011.26" y1="402.99" x2="16968.36" y2="456.37" gradientTransform="matrix(-1, 0, 0, 1, 17715.48, 0)" xlink:href="#linear-gradient-14"/><linearGradient id="linear-gradient-50" x1="16931.13" y1="331.42" x2="16866.81" y2="449.59" gradientTransform="matrix(-1, 0, 0, 1, 17715.48, 0)" xlink:href="#linear-gradient-14"/><linearGradient id="linear-gradient-51" x1="14630.54" y1="10701.84" x2="14602.11" y2="10739.45" gradientTransform="matrix(-0.82, -0.58, -0.58, 0.82, 18929.53, 47.22)" xlink:href="#linear-gradient-14"/><linearGradient id="linear-gradient-52" x1="14608.83" y1="10710.91" x2="14642.78" y2="10710.91" gradientTransform="matrix(-0.82, -0.58, -0.58, 0.82, 18929.53, 47.22)" xlink:href="#linear-gradient-5"/><linearGradient id="linear-gradient-53" x1="14588.91" y1="10731.62" x2="14611.71" y2="10708.23" gradientTransform="matrix(-0.82, -0.58, -0.58, 0.82, 18929.53, 47.22)" xlink:href="#linear-gradient-14"/><linearGradient id="linear-gradient-54" x1="17212.29" y1="572.67" x2="16999.3" y2="263.69" gradientTransform="matrix(-0.71, -0.71, -0.71, 0.71, 12951.14, 12141.08)" xlink:href="#linear-gradient-11"/></defs><g id="Layer_2" data-name="Layer 2"><g id="illustration"><path class="cls-1" d="M958.8,293.54c-26.44-37.57-81.72-57.2-83.85-114-1.38-36.89,14.39-57.09-11.64-88.28C800.39,15.9,704.75,8.15,623.58,41S478.07,138.33,387.37,135.6c-49.39-1.48-95.56-25.4-144.48-29.4a119,119,0,0,0-42.24,3.85C151.51,123.86,108.58,174,92.87,229.26,80.13,274.08,97.65,318,77.32,361.93,55.66,408.81,12.26,441.72,1.88,495.67-10.56,560.41,40.73,615.94,95.12,617c34.61.69,98.67-5.88,127.79-28.56,35.46-27.61,70.61-29.83,112.35-29.31,79.43,1,159.07,18.7,237.62,31,67.3,10.57,133.71,26.63,201.8,27.93,50,1,92.44,1.14,118.79-56C925,493.93,1014.24,372.36,958.8,293.54Z"/><path class="cls-2" d="M922.9,305.5c-24.44-33.35-75.58-50.74-77.53-101.15-1.26-32.75,13.35-50.69-10.72-78.36C776.46,59.1,688,52.27,612.87,81.44S478.2,167.93,394.28,165.56c-45.69-1.3-88.4-22.52-133.66-26A115,115,0,0,0,221.54,143c-45.47,12.29-85.21,56.8-99.78,105.89-11.8,39.79,4.39,78.72-14.44,117.78-20.07,41.63-60.24,70.86-69.86,118.76-11.55,57.48,35.89,106.75,86.2,107.69,32,.6,91.3-5.26,118.26-25.41,32.81-24.53,65.34-26.52,104-26.07C419.37,542.44,493,558.12,565.7,569c62.27,9.35,123.7,23.57,186.7,24.7,46.27.82,85.53,1,109.93-49.73C891.5,483.41,974.16,375.44,922.9,305.5Z"/><path class="cls-3" d="M166.72,104.06c-2.05-17.59,18-42.4,54.17-20.48,1-8.32,46.42-34.23,67.46,20.26,3.6-13.21,36.57-6.59,42.5,15.75,12.4-5.51,42.21,22.17,2.76,26.95-50.38,6.11-165.8,4.34-186.5-25.89S166.72,104.06,166.72,104.06Z"/><path class="cls-4" d="M53.55,176.89c-1.13-9.72,9.93-23.43,29.94-11.32.55-4.6,25.66-18.92,37.29,11.2,2-7.31,20.21-3.64,23.49,8.7,6.85-3,23.32,12.26,1.52,14.9-27.84,3.37-91.64,2.4-103.08-14.31S53.55,176.89,53.55,176.89Z"/><path class="cls-5" d="M134.6,339.09a32.22,32.22,0,0,0-45.87,45.27h0A34.47,34.47,0,0,1,98.59,411a41,41,0,0,0,11.75,31.69h0A38.55,38.55,0,0,1,121.08,475a46.67,46.67,0,1,0,79.45-26.37q-1.46-1.47-3-2.79a48.15,48.15,0,0,1-16.87-34.19A41.2,41.2,0,0,0,158.08,377a27,27,0,0,1-14.55-20.11A32.05,32.05,0,0,0,134.6,339.09Z"/><path class="cls-6" d="M114.22,360.56c7.44,11.65,14,23.72,20.3,36,1.55,3.07,3.12,6.13,4.59,9.25s3,6.18,4.43,9.32l4.28,9.4,4.07,9.5c5.3,12.71,10.34,25.54,14.72,38.6,2.32,6.49,4.3,13.09,6.37,19.66,1.07,3.28,1.94,6.61,2.89,9.93l2.79,9.95a1.79,1.79,0,0,1-3.45,1v-.07l-2.68-9.92c-.91-3.3-1.74-6.62-2.78-9.89-2-6.55-3.9-13.13-6.14-19.61-4.24-13-9.13-25.85-14.28-38.55l-4-9.49-4.17-9.4c-1.36-3.14-2.89-6.21-4.32-9.33s-3-6.17-4.48-9.25c-6.11-12.26-12.59-24.4-19.83-36l0,0a1,1,0,0,1,.31-1.38A1,1,0,0,1,114.22,360.56Z"/><path class="cls-6" d="M126.09,388.3c-10,0-25.8-9.07-26.51-9.48a1,1,0,1,1,1-1.73c.18.11,18.07,10.42,27.19,9.1a1,1,0,1,1,.28,2A13.77,13.77,0,0,1,126.09,388.3Z"/><path class="cls-6" d="M128.37,387.73a1.11,1.11,0,0,1-.43-.09,1,1,0,0,1-.47-1.33c.06-.13,5.95-12.67,5.79-23.72a1,1,0,0,1,1-1,1,1,0,0,1,1,1c.17,11.52-5.74,24.07-6,24.6A1,1,0,0,1,128.37,387.73Z"/><path class="cls-6" d="M148.76,432.11h0c-15.85-.37-31.66-12.1-32.32-12.59a1,1,0,0,1-.2-1.4,1,1,0,0,1,1.4-.2c.16.11,16,11.83,31.17,12.19a1,1,0,0,1,0,2Z"/><path class="cls-6" d="M149.2,432.14a1,1,0,0,1-.72-1.7c.1-.1,9.92-10.5,10.44-30.11a1,1,0,0,1,1-1h0a1,1,0,0,1,1,1c-.55,20.43-10.58,31-11,31.44A1,1,0,0,1,149.2,432.14Z"/><path class="cls-6" d="M170.34,487.87a1,1,0,0,1-.7-1.71c.12-.12,12-12.06,13.79-29.42a1,1,0,0,1,1.1-.9,1,1,0,0,1,.89,1.1c-1.86,18.1-13.86,30.14-14.38,30.64A1,1,0,0,1,170.34,487.87Z"/><path class="cls-6" d="M169.12,488.14c-3.25,0-16.32-.76-30.33-12.14a1,1,0,0,1,1.26-1.55c15.25,12.38,29.57,11.68,29.71,11.68a1,1,0,1,1,.12,2C169.8,488.13,169.55,488.14,169.12,488.14Z"/><path class="cls-7" d="M2.25,429.84A41.29,41.29,0,0,1,80.36,403h0a44.22,44.22,0,0,0,24.89,26.49,52.53,52.53,0,0,1,29.66,31.55,49.38,49.38,0,0,0,31,30.76A59.8,59.8,0,1,1,90.31,568q-.86-2.51-1.49-5a61.67,61.67,0,0,0-29.6-38.85,52.68,52.68,0,0,1-26.83-45.65,34.57,34.57,0,0,0-14.78-28.17A41.1,41.1,0,0,1,2.25,429.84Z"/><path class="cls-6" d="M40.4,417.59a516.72,516.72,0,0,0,29.94,43.34c2.67,3.49,5.31,7,8.07,10.42l4.1,5.16q2,2.6,4.15,5.12l8.42,10.15,8.66,9.94c11.68,13.12,23.65,26,36.23,38.25,6.18,6.25,12.65,12.18,19.07,18.17,3.17,3,6.53,5.87,9.82,8.77l9.9,8.67.05,0a2.37,2.37,0,1,1-3.13,3.57l0,0-9.78-8.94c-3.24-3-6.55-5.92-9.68-9l-9.52-9.2c-3.21-3-6.23-6.25-9.34-9.39-12.44-12.52-24.24-25.65-35.75-39s-22.48-27.19-33-41.33c-2.67-3.51-5.22-7.1-7.79-10.69s-5.06-7.22-7.58-10.84c-5-7.3-9.83-14.62-14.37-22.23a.91.91,0,0,1,1.55-.94Z"/><path class="cls-6" d="M61.23,450.6a1,1,0,0,1-.56-.18,1,1,0,0,1-.26-1.39c6.76-9.79,5.14-36.3,5.12-36.56a1,1,0,1,1,2-.13c.07,1.11,1.68,27.46-5.47,37.83A1,1,0,0,1,61.23,450.6Z"/><path class="cls-6" d="M60.47,450.86h0c-.75,0-18.46-.4-31.52-7.13a1,1,0,0,1,.92-1.78c12.64,6.51,30.46,6.91,30.63,6.91a1,1,0,0,1,0,2Z"/><path class="cls-6" d="M99.74,499.57a1.06,1.06,0,0,1-.42-.09,1,1,0,0,1-.48-1.33c8.3-17.73,3.86-42.64,3.81-42.89a1,1,0,0,1,2-.36c.19,1.05,4.61,25.78-4,44.1A1,1,0,0,1,99.74,499.57Z"/><path class="cls-6" d="M87.2,501.6a70.13,70.13,0,0,1-29.52-6.86,1,1,0,0,1,.84-1.82c23,10.66,40.54,5.27,40.71,5.21a1,1,0,0,1,1.26.65,1,1,0,0,1-.65,1.26A44.76,44.76,0,0,1,87.2,501.6Z"/><path class="cls-6" d="M131.12,559a64.24,64.24,0,0,1-22.55-3.92,1,1,0,0,1,.71-1.87c21.07,7.91,41.6,1,41.81,1a1,1,0,1,1,.65,1.89A70.61,70.61,0,0,1,131.12,559Z"/><path class="cls-6" d="M152,555.68a1,1,0,0,1-.87-1.5c.09-.16,9.09-16.34,3.57-40.94a1,1,0,0,1,.76-1.2,1,1,0,0,1,1.19.76c5.7,25.4-3.39,41.7-3.78,42.38A1,1,0,0,1,152,555.68Z"/><path class="cls-8" d="M849.93,334.9a32.22,32.22,0,1,1,45.87,45.27h0a34.49,34.49,0,0,0-9.86,26.6,41,41,0,0,1-11.75,31.69h0a38.58,38.58,0,0,0-10.74,32.34A46.67,46.67,0,1,1,784,444.43q1.46-1.47,3-2.79a48.15,48.15,0,0,0,16.87-34.19,41.2,41.2,0,0,1,22.58-34.61A27,27,0,0,0,841,352.73,32.05,32.05,0,0,1,849.93,334.9Z"/><path class="cls-6" d="M872,357.46c-7.25,11.58-13.73,23.72-19.83,36-1.52,3.07-3.06,6.14-4.49,9.25s-3,6.19-4.32,9.33l-4.17,9.4-4,9.49c-5.15,12.7-10,25.51-14.28,38.55-2.24,6.47-4.15,13.05-6.14,19.61-1,3.26-1.87,6.59-2.78,9.89l-2.68,9.92v.05a1.79,1.79,0,0,1-3.46-.94h0l2.79-10c1-3.31,1.82-6.64,2.89-9.92,2.07-6.57,4.05-13.17,6.37-19.66,4.39-13.06,9.42-25.9,14.72-38.61l4.07-9.49,4.28-9.4c1.4-3.14,3-6.21,4.43-9.33s3-6.17,4.59-9.25c6.26-12.27,12.86-24.34,20.3-36a1,1,0,1,1,1.69,1.06Z"/><path class="cls-6" d="M858.44,384.11a13.87,13.87,0,0,1-2-.13,1,1,0,1,1,.28-2c9.12,1.31,27-9,27.2-9.1a1,1,0,0,1,1,1.73C884.24,375,868.49,384.11,858.44,384.11Z"/><path class="cls-6" d="M856.16,383.54a1,1,0,0,1-.9-.57c-.25-.53-6.15-13.08-6-24.6a1,1,0,0,1,1-1,1,1,0,0,1,1,1c-.16,11,5.73,23.59,5.79,23.71a1,1,0,0,1-.47,1.34A1.07,1.07,0,0,1,856.16,383.54Z"/><path class="cls-6" d="M835.77,427.92a1,1,0,0,1-1-1,1,1,0,0,1,1-1c15.21-.36,31-12.08,31.17-12.2a1,1,0,1,1,1.2,1.6c-.66.5-16.47,12.23-32.32,12.6Z"/><path class="cls-6" d="M835.33,428a1,1,0,0,1-.71-.31c-.43-.44-10.46-11-11-31.45a1,1,0,0,1,1-1h0a1,1,0,0,1,1,1c.52,19.61,10.35,30,10.44,30.11a1,1,0,0,1,0,1.42A1,1,0,0,1,835.33,428Z"/><path class="cls-6" d="M814.19,483.68a1,1,0,0,1-.7-.29c-.51-.51-12.52-12.54-14.38-30.64a1,1,0,1,1,2-.2c1.79,17.36,13.67,29.3,13.79,29.41a1,1,0,0,1,0,1.42A1,1,0,0,1,814.19,483.68Z"/><path class="cls-6" d="M815.41,484c-.43,0-.68,0-.75,0a1,1,0,0,1-.94-1.05,1,1,0,0,1,1-.94c.15,0,14.51.66,29.71-11.68a1,1,0,0,1,1.4.14,1,1,0,0,1-.14,1.41C831.73,483.18,818.67,484,815.41,484Z"/><path class="cls-9" d="M982.28,425.65a41.29,41.29,0,0,0-78.11-26.82h0a44.22,44.22,0,0,1-24.89,26.49,52.54,52.54,0,0,0-29.66,31.55,49.38,49.38,0,0,1-31,30.76,59.8,59.8,0,1,0,75.56,76.12q.85-2.5,1.49-5a61.65,61.65,0,0,1,29.61-38.85,52.72,52.72,0,0,0,26.82-45.65,34.6,34.6,0,0,1,14.78-28.17A41.1,41.1,0,0,0,982.28,425.65Z"/><path class="cls-6" d="M945.71,414.31c-4.55,7.61-9.43,14.93-14.38,22.23-2.52,3.62-5,7.28-7.58,10.84s-5.12,7.18-7.79,10.69q-15.8,21.21-33,41.33c-11.51,13.36-23.31,26.49-35.75,39-3.11,3.13-6.12,6.36-9.34,9.39l-9.52,9.2c-3.12,3.12-6.43,6-9.68,9L808.88,575a2.37,2.37,0,0,1-3.2-3.51l0,0,.06-.06,9.9-8.67c3.29-2.91,6.65-5.74,9.82-8.77,6.42-6,12.89-11.92,19.07-18.17,12.58-12.25,24.55-25.13,36.24-38.25l8.65-9.94,8.42-10.15q2.11-2.52,4.15-5.12l4.1-5.16c2.76-3.42,5.4-6.93,8.07-10.42a516.72,516.72,0,0,0,29.94-43.34l0,0a.91.91,0,0,1,1.56.94Z"/><path class="cls-6" d="M923.3,446.41a1,1,0,0,1-.83-.44c-7.15-10.36-5.54-36.71-5.47-37.83a1,1,0,0,1,2,.13c0,.27-1.64,26.78,5.12,36.57a1,1,0,0,1-.25,1.39A1,1,0,0,1,923.3,446.41Z"/><path class="cls-6" d="M924.07,446.67a1,1,0,0,1,0-2c.18,0,18-.4,30.63-6.91a1,1,0,0,1,.92,1.78c-13.06,6.73-30.77,7.12-31.52,7.13Z"/><path class="cls-6" d="M884.79,495.38a1,1,0,0,1-.91-.58c-8.58-18.31-4.16-43.05-4-44.09a1,1,0,0,1,2,.36c0,.25-4.49,25.16,3.81,42.89a1,1,0,0,1-.48,1.33A1.06,1.06,0,0,1,884.79,495.38Z"/><path class="cls-6" d="M897.33,497.4a45.43,45.43,0,0,1-12.64-1.55,1,1,0,0,1,.61-1.91c.17.06,17.8,5.43,40.71-5.21a1,1,0,0,1,.84,1.82A70.09,70.09,0,0,1,897.33,497.4Z"/><path class="cls-6" d="M853.41,554.83a70.61,70.61,0,0,1-20.62-2.94,1,1,0,1,1,.65-1.89c.21.07,20.77,6.93,41.81-1a1,1,0,0,1,.71,1.87A64.24,64.24,0,0,1,853.41,554.83Z"/><path class="cls-6" d="M832.52,551.49a1,1,0,0,1-.87-.5c-.39-.69-9.48-17-3.78-42.38a1,1,0,1,1,2,.44c-5.53,24.65,3.48,40.78,3.57,40.94a1,1,0,0,1-.87,1.5Z"/><path class="cls-10" d="M843.69,220.77l-7.85,331.94L834.63,604a12.16,12.16,0,0,1-12.22,12.08h-660A12.15,12.15,0,0,1,150.2,604l-.75-51.34L144.71,224.8c0-6.71,7.9-19.79,22.38-18.8l645-16.69a30.78,30.78,0,0,1,31.57,31.46Z"/><g class="cls-11"><path class="cls-12" d="M818.49,593.73a11.54,11.54,0,0,1-11.63,11.38H178.13a11.54,11.54,0,0,1-11.63-11.38l-5.23-354c0-6.26,7.53-18.48,21.32-17.56l614.47-15.58A29.7,29.7,0,0,1,818.52,215a28.39,28.39,0,0,1,8.6,21Z"/></g><path class="cls-6" d="M806.48,607.08H736.27a1,1,0,0,1,0-2h70.21c8.94,0,16.79-8.07,16.79-17.28V372.08a1,1,0,1,1,2,0V587.8C825.27,598.07,816.49,607.08,806.48,607.08Z"/><path class="cls-6" d="M162.27,371.08a1,1,0,0,1-1-1V243.49c0-13.12,9.95-23.41,22.66-23.41h56.34a1,1,0,0,1,0,2H183.93c-11.78,0-20.66,9.21-20.66,21.41V370.08A1,1,0,0,1,162.27,371.08Z"/><rect class="cls-13" x="214.27" y="351.08" width="106" height="86" rx="12.21"/><path class="cls-14" d="M278.56,409.08H254a4.71,4.71,0,0,1-4.7-4.71V384.79a4.71,4.71,0,0,1,4.7-4.71h24.59a4.72,4.72,0,0,1,4.71,4.71v19.58A4.72,4.72,0,0,1,278.56,409.08Zm-24.59-27a2.71,2.71,0,0,0-2.7,2.71v19.58a2.7,2.7,0,0,0,2.7,2.71h24.59a2.71,2.71,0,0,0,2.71-2.71V384.79a2.72,2.72,0,0,0-2.71-2.71Z"/><path class="cls-6" d="M250.27,389.08h-36a1,1,0,0,1,0-2h36a1,1,0,1,1,0,2Z"/><path class="cls-6" d="M250.27,397.08h-36a1,1,0,0,1,0-2h36a1,1,0,1,1,0,2Z"/><path class="cls-6" d="M320.27,389.08h-38a1,1,0,0,1,0-2h38a1,1,0,0,1,0,2Z"/><path class="cls-6" d="M320.27,397.08h-38a1,1,0,0,1,0-2h38a1,1,0,0,1,0,2Z"/><path class="cls-6" d="M255.82,382a1,1,0,0,1-1-.77l-7.19-30.34a1,1,0,0,1,2-.46l7.18,30.34a1,1,0,0,1-.74,1.21Z"/><path class="cls-6" d="M275.25,382l-.24,0a1,1,0,0,1-.73-1.21l7.45-30.34a1,1,0,1,1,1.94.48l-7.45,30.34A1,1,0,0,1,275.25,382Z"/><path class="cls-6" d="M248.63,438.71l-.23,0a1,1,0,0,1-.74-1.2l7.19-30.34a1,1,0,1,1,1.94.46l-7.18,30.34A1,1,0,0,1,248.63,438.71Z"/><path class="cls-6" d="M282.7,438.71a1,1,0,0,1-1-.76l-7.45-30.34a1,1,0,0,1,.73-1.21,1,1,0,0,1,1.21.73l7.45,30.34a1,1,0,0,1-.73,1.21Z"/><path class="cls-15" d="M321.27,270.58a14.5,14.5,0,0,1-14.5,14.5h-91a14.5,14.5,0,0,1-14.5-14.5h0a14.5,14.5,0,0,1,14.5-14.5h91a14.5,14.5,0,0,1,14.5,14.5Z"/><g class="cls-16"><rect class="cls-6" x="201.27" y="474.08" width="128" height="28" rx="13.86"/><rect class="cls-6" x="347.27" y="474.08" width="128" height="28" rx="13.86"/><rect class="cls-6" x="493.27" y="474.08" width="128" height="28" rx="13.86"/><rect class="cls-6" x="639.27" y="474.08" width="128" height="28" rx="13.86"/></g><g class="cls-16"><path class="cls-6" d="M426.27,550.08a11,11,0,0,1-11,11h-187a11,11,0,0,1-11-11h0a11,11,0,0,1,11-11h187a11,11,0,0,1,11,11Z"/><path class="cls-6" d="M752.27,546.08a11,11,0,0,1-11,11h-82a11,11,0,0,1-11-11h0a11,11,0,0,1,11-11h82a11,11,0,0,1,11,11Z"/></g><path class="cls-17" d="M279.48,120.65c0-.3,0-.57,0-.8a2.23,2.23,0,0,0-.74-1.73,61.82,61.82,0,0,0-28.85-14.19,1.9,1.9,0,0,0-1.93.8,41.62,41.62,0,0,1,5.26,1.08A64.11,64.11,0,0,1,279.48,120.65Z"/><path class="cls-18" d="M253.25,105.81a41.62,41.62,0,0,0-5.26-1.08,1.92,1.92,0,0,0-.05,2.11,11.85,11.85,0,0,0,.92,1.31c2.38,3,21.63,22.72,21.63,22.72s6.11.75,8-.33c.61-.35.91-6.7,1-9.89A64.11,64.11,0,0,0,253.25,105.81Z"/><path class="cls-19" d="M278.75,141.15V129.39a2.29,2.29,0,0,0-1.58-2.19,9,9,0,0,0-5.74-.14,3.31,3.31,0,0,0-2.11,2.86l-.87,11Z"/><path class="cls-20" d="M232.11,130.74a2.38,2.38,0,0,0-.76-1.14c-2.47.49-7.61,1.85-18.14,5.57-12.21,4.31-15.79,8.07-16.82,10.09,5.24,1.53,17.13,3.87,34.18.54l3.37-1.58S233.71,136,232.11,130.74Z"/><path class="cls-21" d="M213.21,135.17c10.53-3.72,15.67-5.08,18.14-5.57a2.4,2.4,0,0,0-2-.51c-6.07,1.27-24.39,5.58-34,13.34a1.54,1.54,0,0,0,.5,2.67l.52.16C197.42,143.24,201,139.48,213.21,135.17Z"/><path class="cls-22" d="M240.26,151.32l-7.18-8.6a2.66,2.66,0,0,0-2.87-.83,9.92,9.92,0,0,0-4.16,2.76,2.44,2.44,0,0,0-.35,2.76l5.22,10.12Z"/><path class="cls-23" d="M266.87,137.06s8.76-1.68,13.62,0c0,0,6.41,38.44,5.31,50.8l-18.93,3.84S266.34,148.4,266.87,137.06Z"/><path class="cls-24" d="M344.53,204.41s-61.87,3.47-87,1.74a7,7,0,0,1-5.74-3.83c-5.38-10.78-21.53-43.11-22.94-46.2,0,0,6.55-5.47,11.4-6.23,0,0,22.91,25.49,23.87,38.5,0,0,53.07-15.26,58.31-15.12s21.32,7.32,21.32,7.32Z"/><path class="cls-25" d="M427,156.18s-2.27-4.72-.3-7.21,9.07-10.2,9.07-10.2l.82-5.33,2.92,8.68-6.26,13.09S429.59,159.18,427,156.18Z"/><path class="cls-26" d="M442.91,178.14a98.91,98.91,0,0,0-9.65-22.93l-6.25,1,3.08,21.66C432.45,178.55,438.89,180.18,442.91,178.14Z"/><path class="cls-27" d="M447,199.23a127.69,127.69,0,0,0-4-21.09c-4,2-10.46.41-12.82-.3l.89,6.22-2.37-8.38a48.66,48.66,0,0,0-17.45-25.54l-5.88-4.45c-5.78-4.37-15-2.86-20.91,1.35-13.09,9.36-32.52,25-39.15,30.43a4.89,4.89,0,0,1-5.06.68l-1.11-.49a1.48,1.48,0,0,0-2.07,1.52l2.81,25.75,45-.52c5.4,0,21-.56,23.5-5.34l4.16-10.21c9.74,8.29,22.24,14,28.93,15.64A4.7,4.7,0,0,0,447,199.23Z"/><path class="cls-28" d="M415.38,131.88,401.55,145.3a2.47,2.47,0,0,0-.18,3.34c4.26,5.08,7.92,7.75,11,8a3.57,3.57,0,0,0,3.2-1.69l7.35-11.58Z"/><polygon class="cls-29" points="443.27 198.04 455.17 193.41 468.99 204.41 444.24 204.5 443.27 198.04"/><path class="cls-30" d="M438.55,128.77s-1.88,13.26-7,17.34-15,1-18.37-9L419.88,120Z"/><path class="cls-31" d="M419.13,131.09a.66.66,0,0,0,.85-.53,17,17,0,0,1,1.57-5.29s-.48-1.74,4.4.88,12.22,6.49,16.54,4.19,8.47-13.52-2.65-11.43a.66.66,0,0,1-.79-.69c.14-1.85,0-6.12-4.36-7.49-4.05-1.28-6.26.55-7.17,1.65a.65.65,0,0,1-1,0c-1.21-1.58-4.5-4.94-9.34-2.81-4,1.76-4.61,4.21-4.55,5.74a.65.65,0,0,1-.93.63c-1.22-.56-3.19-.86-5.07,1.5-2.6,3.26,1.12,6.09,2.23,6.83a.63.63,0,0,1,.3.54c0,1.7.28,9.09,4,13.26a.66.66,0,0,0,1.1-.19l2.86-6.8a.67.67,0,0,1,.81-.37Z"/><path class="cls-32" d="M419.19,132.47s-1.75-7.1-4.39-4.79.69,7.37,3.72,8.34Z"/><path class="cls-33" d="M399.28,162.41s.53-16.42-6.21-16.75c-8.38-.41-21.84,5.66-13.83,29.72,4.43,13.3,11.1,23.16,29.42,27.34a27.14,27.14,0,0,1,6.21-14.08C407.4,183.38,401.08,175.19,399.28,162.41Z"/><path class="cls-34" d="M414,188.69a.64.64,0,0,1-.38-.12c-8.6-6.06-13.37-14.34-15-26.07a.41.41,0,0,1,0-.11c.14-4.39-.58-15.83-5.58-16.08a16.44,16.44,0,0,0-7.15,1.29.66.66,0,0,1-.86-.34.67.67,0,0,1,.34-.87A17.85,17.85,0,0,1,393.1,145c7.16.35,6.87,16.11,6.84,17.37,1.6,11.32,6.2,19.3,14.46,25.13a.65.65,0,0,1,.16.91A.66.66,0,0,1,414,188.69Z"/><path class="cls-35" d="M402.83,201.73a.52.52,0,0,1-.21,0c-15.2-5.24-20.52-15.64-24-26.1a53.77,53.77,0,0,1-1.81-6.78.66.66,0,1,1,1.29-.25,52.84,52.84,0,0,0,1.76,6.62c3.38,10.14,8.53,20.21,23.19,25.27a.66.66,0,0,1,.4.84A.65.65,0,0,1,402.83,201.73Z"/><path class="cls-36" d="M446.64,204.41l0-6.37s-17.85.39-31.74-9.4a27.14,27.14,0,0,0-6.21,14.08C417.93,204.84,430.18,205.5,446.64,204.41Z"/><path class="cls-37" d="M423.76,206.63h.13l56.77-.06a2.54,2.54,0,0,0,0-5.08l-56.78.06a2.54,2.54,0,0,0-.12,5.08Z"/><path class="cls-38" d="M531.7,155.08H484.42a9,9,0,0,0-8.15,5.17L454.41,206.6h58.76a5.48,5.48,0,0,0,5.1-3.46l17-42.9A3.78,3.78,0,0,0,531.7,155.08Z"/><path class="cls-39" d="M498.39,178.85c-1,3.18-.27,6.27,1.69,6.9s4.38-1.44,5.4-4.62.27-6.28-1.69-6.91S499.42,175.66,498.39,178.85Z"/><path class="cls-40" d="M227.69,444.7H51.14a6.83,6.83,0,0,1-6.83-6.83h0A6.83,6.83,0,0,1,51.14,431H227.69a6.83,6.83,0,0,1,6.83,6.84h0A6.83,6.83,0,0,1,227.69,444.7Z"/><path class="cls-41" d="M248.9,471.46H72.35a6.83,6.83,0,0,1-6.83-6.83h0a6.83,6.83,0,0,1,6.83-6.84H248.9a6.83,6.83,0,0,1,6.83,6.84h0A6.83,6.83,0,0,1,248.9,471.46Z"/><path class="cls-41" d="M198.7,525H72.35a6.83,6.83,0,0,1-6.83-6.83h0a6.83,6.83,0,0,1,6.83-6.84H198.7a6.83,6.83,0,0,1,6.83,6.84h0A6.83,6.83,0,0,1,198.7,525Z"/><path class="cls-40" d="M268.7,498.22H92.15a6.83,6.83,0,0,1-6.83-6.83h0a6.83,6.83,0,0,1,6.83-6.84H268.7a6.83,6.83,0,0,1,6.83,6.84h0A6.83,6.83,0,0,1,268.7,498.22Z"/><path class="cls-40" d="M867.87,264.34H691.33a6.83,6.83,0,0,1-6.84-6.83h0a6.83,6.83,0,0,1,6.84-6.83H867.87a6.83,6.83,0,0,1,6.83,6.83h0A6.82,6.82,0,0,1,867.87,264.34Z"/><path class="cls-41" d="M889.09,291.1H712.54a6.83,6.83,0,0,1-6.83-6.83h0a6.83,6.83,0,0,1,6.83-6.83H889.09a6.83,6.83,0,0,1,6.83,6.83h0A6.83,6.83,0,0,1,889.09,291.1Z"/><path class="cls-41" d="M838.88,344.63H712.54a6.83,6.83,0,0,1-6.83-6.84h0a6.83,6.83,0,0,1,6.83-6.83H838.88a6.83,6.83,0,0,1,6.83,6.83h0A6.83,6.83,0,0,1,838.88,344.63Z"/><path class="cls-40" d="M908.89,317.86H732.34a6.82,6.82,0,0,1-6.83-6.83h0a6.83,6.83,0,0,1,6.83-6.83H908.89a6.83,6.83,0,0,1,6.83,6.83h0A6.83,6.83,0,0,1,908.89,317.86Z"/><path class="cls-42" d="M723.36,75.54C710,63.86,692.67,57.28,675.88,52.38c-19.94-5.83-40.61-11.16-61.46-12.07C575.9,38.61,542,60.67,523.28,91.77a108.23,108.23,0,0,0-8.82,19.46c-2.26,6.27-5.6,13-6.23,19.7-.26,2.74-.67,5.46-.76,8.21,0,.82-.12,8.15,2.23,5.46,34.23-39,72.08-28.57,102.42,5,9.58,10.59,29,18.3,43.06,18.41,15.46.13,30.91-6.09,44.62-12.69s28.78-15.09,36.72-28.5C746.94,109.21,737.46,87.89,723.36,75.54Z"/><path class="cls-6" d="M616.81,79.08,613.54,67,604,61.84l-1.27,2.32,8.52,4.6L621.43,106l.31,1.1h41.42a11.74,11.74,0,0,0,9.93-5.37L675,99.26a19.25,19.25,0,0,0,3.32-10.34V79.08Zm58.46,9.84a16.42,16.42,0,0,1-2.73,8.92l-1.64,2.76a9.47,9.47,0,0,1-7.74,4.48H623.77l-2.15-8-4.09-15h57.74Z"/><path class="cls-6" d="M672.68,120.58a1.48,1.48,0,0,1-1.33,1.5H622.76c-.74,0-1.49-1.15-1.49-1.88V97.28c0-.25.14-.2.27-.4l2.23,8.2h.5v14h47.08A1.48,1.48,0,0,1,672.68,120.58Z"/><rect class="cls-6" x="645.71" y="80.41" width="1.77" height="24.94"/><rect class="cls-6" x="630.04" y="80.41" width="1.77" height="24.94"/><rect class="cls-6" x="661" y="80.41" width="1.77" height="24.94"/><rect class="cls-6" x="618.21" y="87.75" width="57.69" height="1.59"/><rect class="cls-6" x="620.73" y="96.43" width="53.73" height="1.59"/><path class="cls-6" d="M629,123.79a5.73,5.73,0,1,0,5.73,5.73A5.74,5.74,0,0,0,629,123.79Zm0,9.19a3.46,3.46,0,1,1,3.46-3.46A3.46,3.46,0,0,1,629,133Z"/><path class="cls-6" d="M664.59,123.79a5.73,5.73,0,1,0,5.73,5.73A5.73,5.73,0,0,0,664.59,123.79Zm0,9.19a3.46,3.46,0,1,1,3.45-3.46A3.46,3.46,0,0,1,664.59,133Z"/><path class="cls-6" d="M609.93,64.15a2.68,2.68,0,0,1-2.69,2.69h-9a2.69,2.69,0,0,1-2.69-2.69h0a2.69,2.69,0,0,1,2.69-2.69h9a2.68,2.68,0,0,1,2.69,2.69Z"/><polygon class="cls-43" points="488.14 17.29 492.92 28.54 483.24 26.94 488.14 17.29"/><path class="cls-44" d="M434.78,32.29l41.71,13.78A3.09,3.09,0,0,0,480.43,44L492.69,1.58a1.23,1.23,0,0,0-.43-1.31,1.23,1.23,0,0,0-1.38-.11Z"/><polygon class="cls-45" points="488.14 17.29 434.77 32.29 486.19 24.14 487.64 27.2 488.14 17.29"/><polygon class="cls-46" points="484.99 28.19 492.92 28.54 486.19 24.14 484.99 28.19"/><path class="cls-47" d="M507.46,29.54a1,1,0,0,1-.19-2s2.13-.41,5.94-1a1,1,0,0,1,.31,2c-3.76.61-5.85,1-5.87,1A.65.65,0,0,1,507.46,29.54Z"/><path class="cls-47" d="M141.3,537.4a1,1,0,0,1-.91-.59c-1.73-3.78-3.32-7.54-4.73-11.17a1,1,0,0,1,1.87-.72c1.39,3.59,3,7.31,4.68,11.06a1,1,0,0,1-.5,1.33A1,1,0,0,1,141.3,537.4Zm-8.7-22.51a1,1,0,0,1-.95-.7c-1.24-4-2.3-8-3.13-11.75a1,1,0,1,1,1.95-.43c.83,3.74,1.86,7.64,3.09,11.58a1,1,0,0,1-.66,1.25A.79.79,0,0,1,132.6,514.89Zm-5.09-23.56a1,1,0,0,1-1-.89,97.27,97.27,0,0,1-.6-10.63c0-.52,0-1,0-1.55a1,1,0,0,1,2,0c0,.51,0,1,0,1.52a95.44,95.44,0,0,0,.59,10.4,1,1,0,0,1-.88,1.11Zm.52-24h-.17a1,1,0,0,1-.82-1.16,70.44,70.44,0,0,1,3.09-11.75,1,1,0,1,1,1.88.67,67.69,67.69,0,0,0-3,11.42A1,1,0,0,1,128,467.3Zm8.06-22.46a1,1,0,0,1-.86-1.5,73,73,0,0,1,7-10,1,1,0,1,1,1.54,1.28,71.19,71.19,0,0,0-6.76,9.72A1,1,0,0,1,136.09,444.84Zm15.18-18.54a1,1,0,0,1-.74-.33,1,1,0,0,1,.07-1.42,102.49,102.49,0,0,1,9.5-7.58,1,1,0,0,1,1.4.24,1,1,0,0,1-.24,1.39,100,100,0,0,0-9.32,7.44A1,1,0,0,1,151.27,426.3Zm19.59-14a1,1,0,0,1-.87-.5,1,1,0,0,1,.37-1.37c3.38-1.92,7-3.8,10.78-5.58a1,1,0,1,1,.86,1.81c-3.73,1.75-7.31,3.61-10.65,5.51A1,1,0,0,1,170.86,412.33ZM192.65,402a1,1,0,0,1-.37-1.93c3.62-1.44,7.45-2.84,11.39-4.17a1,1,0,0,1,1.27.63,1,1,0,0,1-.63,1.26c-3.9,1.32-7.7,2.71-11.29,4.13A1,1,0,0,1,192.65,402Zm22.87-7.77a1,1,0,0,1-.28-2c3.74-1.09,7.68-2.16,11.69-3.18a1,1,0,0,1,1.22.73,1,1,0,0,1-.73,1.21c-4,1-7.9,2.08-11.62,3.16A1,1,0,0,1,215.52,394.23Zm23.41-6a1,1,0,0,1-.21-2c3.81-.85,7.79-1.69,11.85-2.48a1,1,0,0,1,.38,2c-4,.79-8,1.62-11.8,2.47Zm23.71-4.67a1,1,0,0,1-.17-2c3.84-.67,7.86-1.33,11.94-2a1,1,0,0,1,.31,2c-4.07.63-8.08,1.29-11.91,2Zm23.88-3.75a1,1,0,0,1-.14-2c3.86-.54,7.9-1.09,12-1.61a1,1,0,1,1,.25,2c-4.08.53-8.11,1.07-12,1.61Zm24-3.08a1,1,0,0,1-.12-2q6-.7,12-1.36a1,1,0,0,1,.22,2q-6,.66-12,1.36Zm24-2.64a1,1,0,0,1-1-.9,1,1,0,0,1,.89-1.1l12-1.2a1,1,0,0,1,.19,2l-12,1.2Zm24-2.36a1,1,0,0,1-.1-2l12-1.13a1,1,0,0,1,1.09.9,1,1,0,0,1-.91,1.09l-12,1.13Zm24.07-2.27a1,1,0,0,1-.1-2l12-1.14a1,1,0,0,1,1.09.89,1,1,0,0,1-.9,1.1l-12,1.15Zm24.05-2.34a1,1,0,0,1-.1-2q6.07-.62,12-1.26a1,1,0,1,1,.21,2q-5.94.66-12,1.27Zm24-2.64a1,1,0,0,1-1-.88,1,1,0,0,1,.87-1.12l4.25-.51,7.73-1a1,1,0,0,1,.26,2q-3.94.51-7.75,1l-4.25.52Zm24-3.07a1,1,0,0,1-.13-2q5.86-.78,12-1.64a1,1,0,0,1,1.13.85,1,1,0,0,1-.85,1.13q-6.1.85-12,1.64Zm23.95-3.37a1,1,0,0,1-.14-2c3.92-.58,7.91-1.18,11.94-1.81a1,1,0,0,1,1.14.84,1,1,0,0,1-.83,1.14q-6.06.93-12,1.8Zm23.9-3.68a1,1,0,0,1-.16-2q5.89-.95,11.92-2a1,1,0,1,1,.33,2q-6,1-11.93,2Zm23.83-4a1,1,0,0,1-.17-2q5.91-1,11.89-2.15a1,1,0,0,1,.36,2q-6,1.11-11.9,2.15ZM550.13,346a1,1,0,0,1-.19-2q5.91-1.14,11.85-2.35a1,1,0,0,1,1.18.78,1,1,0,0,1-.78,1.18q-6,1.2-11.86,2.35A.68.68,0,0,1,550.13,346Zm23.69-4.82a1,1,0,0,1-.21-2q5.89-1.25,11.8-2.57a1,1,0,0,1,.44,2q-5.93,1.32-11.82,2.58Zm23.59-5.28a1,1,0,0,1-.23-2c4-.93,7.92-1.89,11.78-2.84a1,1,0,1,1,.47,1.95c-3.85.95-7.82,1.9-11.79,2.84Zm23.52-5.8a1,1,0,0,1-.25-2c3.92-1,7.84-2.06,11.66-3.1a1,1,0,0,1,1.23.7,1,1,0,0,1-.7,1.23c-3.83,1-7.76,2.09-11.69,3.11Zm23.28-6.37a1,1,0,0,1-.27-2c3.89-1.12,7.78-2.27,11.57-3.42a1,1,0,1,1,.58,1.91c-3.8,1.16-7.7,2.31-11.6,3.43A.9.9,0,0,1,644.21,323.69Zm23.13-7a1,1,0,0,1-.31-2c3.87-1.24,7.73-2.52,11.45-3.79a1,1,0,0,1,.65,1.89c-3.74,1.28-7.6,2.56-11.49,3.81A1,1,0,0,1,667.34,316.66Zm22.87-7.81a1,1,0,0,1-.34-1.94c3.83-1.39,7.63-2.82,11.29-4.23a1,1,0,1,1,.72,1.86c-3.67,1.42-7.49,2.85-11.33,4.25A1,1,0,0,1,690.21,308.85Zm22.53-8.73a1,1,0,0,1-.38-1.92c3.76-1.55,7.48-3.15,11.09-4.75a1,1,0,0,1,1.32.51,1,1,0,0,1-.51,1.32c-3.62,1.6-7.36,3.21-11.13,4.77A1.07,1.07,0,0,1,712.74,300.12Zm22.09-9.81a1,1,0,0,1-.44-1.91c3.69-1.76,7.32-3.57,10.79-5.37a1,1,0,0,1,1.34.42,1,1,0,0,1-.42,1.35c-3.49,1.82-7.14,3.63-10.84,5.41A1,1,0,0,1,734.83,290.31Zm21.42-11.16a1,1,0,0,1-.49-1.87c3.56-2,7-4.09,10.35-6.15a1,1,0,0,1,1.06,1.7c-3.34,2.08-6.84,4.16-10.42,6.19A1,1,0,0,1,756.25,279.15Zm20.47-12.81a1,1,0,0,1-.57-1.82c3.37-2.34,6.62-4.74,9.68-7.13a1,1,0,0,1,1.23,1.58c-3.08,2.41-6.37,4.83-9.77,7.19A1,1,0,0,1,776.72,266.34Zm19-14.9a1,1,0,0,1-.67-1.74c3.05-2.73,6-5.53,8.62-8.33a1,1,0,0,1,1.45,1.38c-2.71,2.84-5.65,5.67-8.74,8.44A1,1,0,0,1,795.71,251.44ZM812.31,234a1,1,0,0,1-.62-.21,1,1,0,0,1-.16-1.41,111.08,111.08,0,0,0,6.91-9.72,1,1,0,0,1,1.69,1.07,111.49,111.49,0,0,1-7,9.89A1,1,0,0,1,812.31,234Zm12.77-20.34a.9.9,0,0,1-.42-.1,1,1,0,0,1-.48-1.33,88.09,88.09,0,0,0,4.33-11.05,1,1,0,1,1,1.91.6A90.68,90.68,0,0,1,826,213.07,1,1,0,0,1,825.08,213.64Zm7.17-22.86h-.16a1,1,0,0,1-.83-1.15,82.81,82.81,0,0,0,1.08-11.8,1,1,0,0,1,1-1,1,1,0,0,1,1,1,85.15,85.15,0,0,1-1.1,12.08A1,1,0,0,1,832.25,190.78Zm.53-24a1,1,0,0,1-1-.89,102.17,102.17,0,0,0-2.06-11.76,1,1,0,1,1,1.94-.46,101.69,101.69,0,0,1,2.1,12,1,1,0,0,1-.88,1.11Zm-5.47-23.46a1,1,0,0,1-.94-.68c-.81-2.31-1.71-4.67-2.68-7-.58-1.38-1.16-2.75-1.77-4.11a1,1,0,0,1,1.83-.81c.61,1.37,1.21,2.76,1.79,4.16,1,2.38,1.89,4.77,2.71,7.13a1,1,0,0,1-.61,1.27A1,1,0,0,1,827.31,143.33Zm-9.78-22a1,1,0,0,1-.88-.53c-1.9-3.52-3.94-7-6.07-10.32a1,1,0,0,1,1.68-1.08c2.16,3.37,4.23,6.89,6.15,10.46a1,1,0,0,1-.88,1.47Zm-13-20.28a1,1,0,0,1-.79-.4c-2.4-3.17-5-6.28-7.6-9.26a1,1,0,1,1,1.5-1.33c2.67,3,5.26,6.17,7.69,9.38a1,1,0,0,1-.8,1.61Zm-16-18a1,1,0,0,1-.7-.28c-2.84-2.75-5.84-5.44-8.92-8a1,1,0,0,1,1.28-1.54c3.12,2.59,6.15,5.32,9,8.11a1,1,0,0,1,0,1.41A1,1,0,0,1,788.54,83ZM770,67.53a1,1,0,0,1-.59-.18c-3.2-2.31-6.55-4.55-10-6.69A1,1,0,1,1,760.55,59c3.45,2.15,6.84,4.42,10.07,6.75a1,1,0,0,1-.58,1.81ZM749.58,54.75a1,1,0,0,1-.47-.12c-3.47-1.87-7.08-3.69-10.73-5.4a1,1,0,1,1,.85-1.81c3.69,1.72,7.33,3.56,10.83,5.45a1,1,0,0,1,.41,1.36A1,1,0,0,1,749.58,54.75ZM727.73,44.5a1,1,0,0,1-.37-.08c-3.66-1.48-7.44-2.9-11.26-4.23a1,1,0,0,1-.61-1.28,1,1,0,0,1,1.27-.61c3.85,1.34,7.66,2.78,11.35,4.27a1,1,0,0,1,.55,1.3A1,1,0,0,1,727.73,44.5Zm-22.79-8a.9.9,0,0,1-.28,0c-3.78-1.13-7.68-2.21-11.6-3.2a1,1,0,1,1,.49-1.94c4,1,7.88,2.09,11.68,3.22a1,1,0,0,1-.29,2Zm-23.39-6-.21,0c-3.86-.83-7.83-1.6-11.81-2.3a1,1,0,1,1,.35-2c4,.71,8,1.48,11.88,2.31a1,1,0,0,1-.21,2Zm-156.24-3.8a1,1,0,0,1-.13-2c3.9-.52,8-1,12-1.44a1,1,0,0,1,1.1.88,1,1,0,0,1-.88,1.11c-4,.43-8.08.91-12,1.43Zm132.47-.4h-.15c-3.9-.55-7.92-1.06-12-1.51a1,1,0,0,1,.22-2c4.05.45,8.09,1,12,1.52a1,1,0,0,1-.14,2Zm-108.46-2.2a1,1,0,0,1-.09-2c4-.34,8.07-.64,12.07-.89a1,1,0,1,1,.12,2c-4,.25-8,.56-12,.9Zm84.45-.47h-.09c-3.94-.32-8-.6-12-.82a1,1,0,1,1,.11-2c4.05.22,8.12.49,12.08.82a1,1,0,0,1-.08,2Zm-60.35-1.06a1,1,0,0,1,0-2c4-.17,8.1-.29,12.09-.36a1,1,0,0,1,1,1,1,1,0,0,1-1,1c-4,.07-8,.19-12,.36Zm36.22-.25h0c-4-.12-8-.19-12.05-.2a1,1,0,0,1-1-1,1,1,0,0,1,1-1h0c4.05,0,8.12.08,12.11.2a1,1,0,0,1,1,1A1,1,0,0,1,609.64,22.4Z"/><path class="cls-47" d="M149.45,553.71a1,1,0,0,1-.88-.52c-1-1.79-1.91-3.57-2.81-5.32a1,1,0,0,1,.43-1.35,1,1,0,0,1,1.35.43c.89,1.74,1.83,3.51,2.79,5.29a1,1,0,0,1-.4,1.35A1,1,0,0,1,149.45,553.71Z"/><path class="cls-48" d="M875.8,622.78s2.28,3.59,2.85,13.65a1.63,1.63,0,0,1-1.62,1.73H859.21a1,1,0,0,1-1-1.38c1-3.09,4.2-10.62,11.25-14.93Z"/><path class="cls-49" d="M876.58,616l-1,8.45a1.6,1.6,0,0,1-1.39,1.4,14.09,14.09,0,0,1-3.77,0,2.61,2.61,0,0,1-2.15-2.59V615Z"/><path class="cls-50" d="M831.72,621.85a24.84,24.84,0,0,1,3.33,12.58,3.14,3.14,0,0,1-3.16,3.08H804.21a1.33,1.33,0,0,1-.76-2.41c5.24-3.68,15.53-10.55,23-13.25Z"/><path class="cls-51" d="M834.57,612.72l-2.15,10.44a2.15,2.15,0,0,1-2.55,1.69,7.68,7.68,0,0,1-2.43-1,2.46,2.46,0,0,1-1.1-2.53l2.22-12.64Z"/><path class="cls-52" d="M872.63,467.62s7.47,6.59,8.88,14.52-4,136.78-4,136.78-7.47,1.24-11.32-1.09c0,0-4.57-83.63-8.05-103,0,0-18.21,86.63-23.26,102.28,0,0-7.2.87-9.52-.5,0,0,4.77-112.29,10.77-132.25Z"/><path class="cls-53" d="M858.37,512.1l-.19,0a.74.74,0,0,1-.53-.91L860.82,499a.75.75,0,0,1,.32-.44l6.86-4.4a.75.75,0,1,1,.81,1.26l-6.61,4.24-3.1,11.9A.76.76,0,0,1,858.37,512.1Z"/><path class="cls-54" d="M798.87,393.16c31.46-2.61,39.69,3.9,39.69,3.9l-15.12,23.87s-30.92-.61-53.07-17.68A54.46,54.46,0,0,0,779.24,390,41.69,41.69,0,0,0,798.87,393.16Z"/><path class="cls-55" d="M749.6,347a1,1,0,0,1,1.83-.37l4,8.56a9,9,0,0,1,.71,5.32l-1.41,5a8.61,8.61,0,0,0,1.76,6.85c3.69,4.61,11.54,13,22.73,17.69a54.46,54.46,0,0,1-8.87,13.24A54.32,54.32,0,0,1,751.48,377a4.22,4.22,0,0,1-3-4.18Z"/><path class="cls-56" d="M788.51,407c11.08-11.93,32.18-17.33,44.39-19.54a11.22,11.22,0,0,1,12.53,7.1c5.49,14.78,20.44,53.23,23.34,59.83,2.38,5.42,4.86,10.72,6.44,14a4,4,0,0,1-1.85,5.29c-10.28,5-28.78,10.56-36.27,12.75A2.57,2.57,0,0,1,833.8,484a8,8,0,0,0-1.15-4.13l-28.39-47.32c-17.7,19.62-33.2,21.42-45.11,17.12a88.37,88.37,0,0,0,3.94-18.59C780.68,428,788.51,407,788.51,407Z"/><path class="cls-57" d="M729.07,424.29l5.75-3.36c10.28,7.06,21.24,11.33,28.27,10.13a88.37,88.37,0,0,1-3.94,18.59C743.47,444,729.07,424.29,729.07,424.29Z"/><path class="cls-58" d="M701.76,425.5c3.58-1.94,14.19-3.62,14.19-3.62s12.19-7.13,15.71-8.54c2.91-1.16,4.17,3.2,4.51,4.71.07.31.1.5.1.5l-.45,2.9-12.32,5.47a15.58,15.58,0,0,1-8.41,1.22l-13.16-1.72a.49.49,0,0,1-.42-.39A.5.5,0,0,1,701.76,425.5Z"/><path class="cls-59" d="M816.1,365.54l9.44,23s-10.84,7.51-19.57,6.79l-4.71-20.7Z"/><path class="cls-60" d="M800.16,349.84c-.21.31-6.82,24.19-6.82,24.19l13.71,3.48,9.63-21.7S803.78,344.72,800.16,349.84Z"/><path class="cls-61" d="M811.51,359.11l-4.17,11.82a1.41,1.41,0,0,1-.22.42c-.56.81-2.71,3.43-5.27,1.07-2.31-2.15-4.46-4.07-6.44-4.42a1.74,1.74,0,0,0-2,1.25,76.41,76.41,0,0,0-2.31,11.52,1.75,1.75,0,0,0,1.42,1.89,56.61,56.61,0,0,0,13.1,1.09,1.75,1.75,0,0,0,1.48-1c1.31-2.86,5.31-11.52,6.8-13.76s4.82-2,6.26-1.92a1.74,1.74,0,0,0,1.29-.42c1.26-1.1,3.65-3.91.28-7.28a1.77,1.77,0,0,1,0-2.53c1.45-1.36,3-3.77.59-6.75s-5.68-2.56-7.66-1.84a1.74,1.74,0,0,1-2.11-.78,1.39,1.39,0,0,0-1.43-.66,1.73,1.73,0,0,1-1.84-1.77,5.22,5.22,0,0,0-4-5.46c-6-1.86-9.72,3.93-10.09,8.24s6.24,6,10.12,5.68c3-.22,5.15,2.71,6,4.13A1.73,1.73,0,0,1,811.51,359.11Z"/><path class="cls-62" d="M812.35,373.26s1-7.5,4.08-7.87,6.16,2.2,3.06,6.41C815.63,377,812.35,373.26,812.35,373.26Z"/><circle class="cls-63" cx="677.73" cy="319.47" r="108.74" transform="translate(-27.39 572.8) rotate(-45)"/><g class="cls-64"><path class="cls-6" d="M677.73,425.29A105.83,105.83,0,1,1,783.56,319.47,105.95,105.95,0,0,1,677.73,425.29Zm0-209.65A103.83,103.83,0,1,0,781.56,319.47,103.94,103.94,0,0,0,677.73,215.64Z"/><path class="cls-6" d="M589.39,319.47a88.34,88.34,0,1,1,88.34,88.33A88.44,88.44,0,0,1,589.39,319.47Zm5.45,0a82.89,82.89,0,1,0,82.89-82.9A83,83,0,0,0,594.84,319.47Z"/><path class="cls-6" d="M704.38,305.08h8.73a2.07,2.07,0,0,0,2.16-1.9v-5.95a20.32,20.32,0,0,0-20.37-20.15H683.27v-8.14c0-1.84-2.25-3.33-5-3.33s-5,1.49-5,3.33v8.14h-11.5a20.44,20.44,0,0,0-20.5,20.15v10.89c0,11.13,9.37,20,20.5,20h11.5v21h-11.5a7.42,7.42,0,0,1-7.5-7.38v-.51a2.08,2.08,0,0,0-2-2.11h-8.74a2.39,2.39,0,0,0-2.29,2.11v.51c0,11.14,9.37,19.38,20.5,19.38h11.5V370c0,1.84,2.24,3.33,5,3.33s5-1.49,5-3.33v-8.91H694.9c11.14,0,20.37-8.24,20.37-19.38v-5.9c0-11.13-9.23-20.72-20.37-20.72H683.27v-26H694.9c4.13,0,7.37,4,7.37,8.15v5.95A2,2,0,0,0,704.38,305.08Zm-9.48,23a7.6,7.6,0,0,1,7.37,7.72v5.9a7.3,7.3,0,0,1-7.37,7.38H683.27v-21Zm-21.63-13h-11.5c-4.12,0-7.5-2.83-7.5-7V297.23c0-4.13,3.38-8.15,7.5-8.15h11.5Z"/></g></g></g></svg>