<svg xmlns="http://www.w3.org/2000/svg" viewBox="0 0 1082.75 669.62"><defs><style>.cls-1{fill:#daa98a;}.cls-2{fill:#293a53;}.cls-3{fill:#1b0071;}.cls-4{fill:#e0c173;}.cls-5{fill:#c5a45d;}.cls-6{fill:#c4c2c2;}.cls-7{fill:#f5f5f5;stroke:#f5f5f5;stroke-miterlimit:10;}.cls-8{fill:#c72b2c;}.cls-9{fill:#f3cc30;}.cls-10{fill:#d66d2e;}.cls-11{fill:#60acbe;}.cls-12{fill:#58595a;}.cls-13{fill:#ebecec;}.cls-14{fill:#c5c6c7;}.cls-15{fill:#9b9c9d;}.cls-16{fill:#5e88bb;}</style></defs><g id="Layer_2" data-name="Layer 2"><g id="Layer_1-2" data-name="Layer 1"><g id="Layer_2-2" data-name="Layer 2"><g id="object"><path class="cls-1" d="M507.43,209.08l-48.87-15.86-38.15,3.91L396.59,264.8l-61.52,2L322.43,323.5l11.39,75.58,130.31,23.43,1.14-1.27c8.68-6,47.19-36.35,66.82-44.11l550.66,23.18v-167L579.49,267.15c-9.93-4.81-17.37-14-26-20.92ZM449,248.86c-.46-.22,4.93,5.77,12.3,13.82l-21.33.7,8.85-15.16Z"/><polygon class="cls-1" points="334.09 400.18 318.35 367.14 328.26 262.27 344.12 209.83 379.8 209.82 387.73 264.37 379.8 339.88 362.96 391.67 334.09 400.18"/><polygon class="cls-2" points="647.76 410.08 633.75 225.32 1082.75 188.31 1082.75 445.74 647.76 410.08"/><path class="cls-3" d="M352.45,12.61l205.7,500.06a20.53,20.53,0,0,1-11.22,26.65l-313,128.75A20.5,20.5,0,0,1,207.19,657L1.5,156.94A20.5,20.5,0,0,1,12.72,130.3l313-128.74A20.5,20.5,0,0,1,352.45,12.61Z"/><path class="cls-3" d="M550.93,512.68,348.8,21.28a20.5,20.5,0,0,0-26.72-11l-178,73.2C342.51,156.48,490.52,399.47,550.93,512.68Z"/><rect class="cls-4" x="302.42" y="486.57" width="76.19" height="101.72" rx="3.39" transform="translate(-178.86 169.96) rotate(-22.36)"/><path class="cls-5" d="M343.78,481.12,315,493c31.42,13.88,59.43,51.43,74.75,75.18a13.56,13.56,0,0,0,.22-10.71l-28.36-68.95A13.66,13.66,0,0,0,343.78,481.12Z"/><rect class="cls-6" x="395.14" y="439.85" width="37.61" height="117.59" transform="translate(-158.58 194.98) rotate(-22.36)"/><rect class="cls-6" x="345.24" y="318.55" width="37.61" height="117.59" transform="translate(-116.18 166.87) rotate(-22.36)"/><rect class="cls-6" x="295.34" y="197.25" width="37.61" height="117.59" transform="translate(-73.79 138.77) rotate(-22.36)"/><rect class="cls-6" x="245.44" y="75.95" width="37.61" height="117.59" transform="translate(-31.39 110.66) rotate(-22.36)"/><path class="cls-7" d="M273.74,578.13a20.79,20.79,0,0,1,11.58,11.48,21.08,21.08,0,1,1-39,16,20.82,20.82,0,0,1,.13-16.21l3.42,1.53a17.23,17.23,0,1,0,22.6-9.32Z"/><path class="cls-7" d="M276.63,569.9l-37.95,15.6L234,574.2a11.41,11.41,0,0,1,19.3-11.69l13.8-15.78,1.63,4L255.31,566l3,7.34,16.85-6.93Zm-21.84,4.87-3.2-7.79a7.58,7.58,0,0,0-14,5.76l3.21,7.79Z"/><path class="cls-7" d="M229.33,552.69,240,548.32l-5.58-13.57L238,533.3l5.58,13.56,16.7-6.86-6.39-15.53,3.54-1.46,7.9,19.2-38,15.61-7.89-19.21,3.54-1.46Z"/><path class="cls-7" d="M254.66,516.48l-37.95,15.61-3.47-8.45c-4.8-11.65-1-22.32,10.87-27.21s22.28,0,27.07,11.61Zm-5-2.06-2-4.92c-4-9.7-12.11-13.65-22.08-9.55s-12.77,12.54-8.78,22.24l2,4.92Z"/><path class="cls-7" d="M239.26,479l1.45,3.52-38,15.61-1.44-3.52Z"/><path class="cls-7" d="M193.62,465.91l4.07,9.85,34.39-14.15,1.44,3.51-34.39,14.15,4.07,9.9-3.54,1.44-9.57-23.27Z"/><path class="cls-7" d="M202,403.61a20.73,20.73,0,0,1,11.58,11.46,21.08,21.08,0,1,1-39,16,20.86,20.86,0,0,1,.14-16.21l3.41,1.53a17.23,17.23,0,1,0,22.56-9.28Z"/><path class="cls-7" d="M160.51,395.45,191,361.81l1.59,3.87L183,376.25l7.42,18,14.2.74,1.61,3.92-45.38-2.49ZM186.24,394l-6-14.62L167.86,393Z"/><path class="cls-7" d="M189.17,357.29l-37.94,15.6-4.65-11.3a11.41,11.41,0,0,1,19.27-11.69l13.79-15.78,1.64,4-13.42,15.27,3,7.34,16.84-6.93Zm-21.83,4.86-3.21-7.78a7.57,7.57,0,0,0-14,5.76l3.2,7.79Z"/><path class="cls-7" d="M177.78,329.61l-37.94,15.6-3.47-8.44c-4.8-11.66-1-22.32,10.87-27.21s22.28-.05,27.07,11.61Zm-5-2.06-2-4.93c-4-9.7-12.12-13.64-22.08-9.54s-12.78,12.53-8.79,22.23l2,4.92Z"/><path class="cls-8" d="M125.64,246.61a35.14,35.14,0,0,1-32.48-3A34.57,34.57,0,0,0,95,264.37a35.15,35.15,0,0,0,65-26.76,34.63,34.63,0,0,0-13.31-16A35.22,35.22,0,0,1,125.64,246.61Z"/><path class="cls-9" d="M110.55,209.92A35.16,35.16,0,0,1,78.07,207a34.66,34.66,0,0,0,15.09,36.64,35.27,35.27,0,0,1,53.49-22,34.68,34.68,0,0,0-15.09-36.69A35.18,35.18,0,0,1,110.55,209.92Z"/><ellipse class="cls-10" cx="119.88" cy="232.67" rx="28.92" ry="15.08" transform="translate(-79.5 63.1) rotate(-22.36)"/><path class="cls-11" d="M64.76,191a34.53,34.53,0,0,0,13.31,16,35.27,35.27,0,0,1,53.49-22,34.68,34.68,0,0,0-1.78-20.72,35.15,35.15,0,0,0-65,26.74Z"/><path class="cls-12" d="M99.08,182a35.19,35.19,0,0,0-21,24.95,35.25,35.25,0,0,0,53.49-22A35.15,35.15,0,0,0,99.08,182Z"/><rect class="cls-13" x="330.92" y="51.51" width="11.4" height="248.75" transform="translate(-41.6 141.29) rotate(-22.36)"/><rect class="cls-14" x="342.39" y="44.4" width="11.4" height="189.96" transform="translate(-26.85 142.91) rotate(-22.36)"/><path class="cls-13" d="M299.87,499.18l-2.52,1L316.17,546l-11.38,4.68,1,2.51,11.39-4.68L336,594.29l2.52-1L319.7,547.51l10.84-4.46,18.87,45.74,2.53-1L333.11,542h.1l-.66-1.31c-.21-.45-5.34-10.94,2.63-15.34a7,7,0,0,1,5.19-.32c3.06,1,5.69,4.07,7.83,9.09l19.43,47.16,2.52-1-18.92-46,11-4.54,18.92,46,2.53-1-18.92-46,11.38-4.68-1-2.51-11.38,4.68L345,480.61l-2.53,1,18.74,45.56-11.09,4.56c-2.37-5.05-5.37-8.21-8.92-9.38a9.66,9.66,0,0,0-6.15,0L321.79,490.1l-2.52,1,13.39,32.51c-6.13,4.33-5,12.19-3.15,16.85l-10.81,4.45Z"/><path class="cls-14" d="M294.6,58.7,284.06,63l69,167.76q11.4,12,22.3,24.27Z"/><path class="cls-15" d="M224.53,87.53l20.22,49.17A629.26,629.26,0,0,1,303,182.42l1.07-.45L259.34,73.22Z"/><path class="cls-16" d="M234.49,660.48l54.41-22.37c-23.69,8.07-78.51,17.7-106.9-51.38l25.77,62.71A20.49,20.49,0,0,0,234.49,660.48Z"/><path class="cls-1" d="M449,248.86l-.18-.64-35.59,61L390,283.73l30.48-86.6,38.15-3.91,48.87,15.86q23,18.58,46.1,37.15c8.59,6.92,16,16.11,26,20.92l-107.42,6.39S447.57,248.21,449,248.86Z"/></g></g></g></g></svg>