<svg xmlns="http://www.w3.org/2000/svg" viewBox="0 0 669.6 1082.76"><defs><style>.cls-1{fill:#daa98a;}.cls-2{fill:#293a53;}.cls-3{fill:#1b0071;}.cls-4{fill:#e0c173;}.cls-5{fill:#c5a45d;}.cls-6{fill:#c4c2c2;}.cls-7{fill:#f5f5f5;stroke:#f5f5f5;stroke-miterlimit:10;}.cls-8{fill:#c72b2c;}.cls-9{fill:#f3cc30;}.cls-10{fill:#d66d2e;}.cls-11{fill:#60acbe;}.cls-12{fill:#58595a;}.cls-13{fill:#ebecec;}.cls-14{fill:#c5c6c7;}.cls-15{fill:#9b9c9d;}.cls-16{fill:#5e88bb;}</style></defs><g id="Layer_2" data-name="Layer 2"><g id="object"><path class="cls-1" d="M460.52,507.44l15.86-48.87-3.91-38.15L404.8,396.6l-2-61.52-56.69-12.64-75.58,11.39L247.09,464.14l1.27,1.14c6,8.68,36.35,47.19,44.11,66.82l-23.19,550.66h167L402.45,579.5c4.81-9.93,14-17.37,20.92-26Q441.94,530.48,460.52,507.44ZM420.74,449c.22-.46-5.77,4.93-13.82,12.3l-.7-21.33,15.16,8.85Z"/><polygon class="cls-1" points="269.43 334.1 302.47 318.36 407.34 328.27 459.78 344.13 459.78 379.81 405.24 387.74 329.73 379.81 277.94 362.97 269.43 334.1"/><polygon class="cls-2" points="259.52 647.77 444.28 633.76 481.28 1082.76 223.85 1082.76 259.52 647.77"/><path class="cls-3" d="M657,352.47,156.93,558.15a20.52,20.52,0,0,1-26.65-11.22L1.54,233.91a20.5,20.5,0,0,1,11.05-26.72L512.67,1.51a20.5,20.5,0,0,1,26.64,11.22l128.74,313A20.5,20.5,0,0,1,657,352.47Z"/><path class="cls-3" d="M156.92,550.93,648.33,348.82a20.5,20.5,0,0,0,11-26.72l-73.2-178C513.13,342.52,270.13,490.53,156.92,550.93Z"/><rect class="cls-4" x="81.31" y="302.44" width="101.72" height="76.19" rx="3.39" transform="translate(-119.6 75.87) rotate(-22.36)"/><path class="cls-5" d="M188.49,343.78,176.65,315c-13.88,31.42-51.43,59.43-75.18,74.75a13.5,13.5,0,0,0,10.71.22l68.95-28.36A13.67,13.67,0,0,0,188.49,343.78Z"/><rect class="cls-6" x="112.15" y="395.16" width="117.59" height="37.61" transform="translate(-144.61 96.14) rotate(-22.36)"/><rect class="cls-6" x="233.46" y="345.27" width="117.59" height="37.61" transform="translate(-116.52 138.53) rotate(-22.36)"/><rect class="cls-6" x="354.76" y="295.38" width="117.59" height="37.61" transform="translate(-88.42 180.92) rotate(-22.36)"/><rect class="cls-6" x="476.07" y="245.49" width="117.59" height="37.61" transform="translate(-60.33 223.31) rotate(-22.36)"/><path class="cls-7" d="M91.48,273.74A20.79,20.79,0,0,1,80,285.32a21.06,21.06,0,0,1-16-39,20.82,20.82,0,0,1,16.21.13l-1.53,3.42A17.23,17.23,0,1,0,88,272.47Z"/><path class="cls-7" d="M99.71,276.63l-15.6-37.95L95.41,234A11.41,11.41,0,0,1,107.1,253.3l15.78,13.8-4,1.63-15.27-13.42-7.34,3,6.93,16.85Zm-4.87-21.84,7.79-3.2a7.58,7.58,0,0,0-5.76-14l-7.79,3.21Z"/><path class="cls-7" d="M116.92,229.33,121.29,240l13.57-5.58,1.45,3.54-13.56,5.58,6.86,16.7,15.53-6.39,1.46,3.54-19.2,7.9-15.61-38L131,219.4l1.46,3.54Z"/><path class="cls-7" d="M153.13,254.66l-15.61-37.95,8.45-3.47c11.65-4.8,22.32-1,27.21,10.87s0,22.28-11.61,27.07Zm2.06-5,4.92-2c9.7-4,13.65-12.11,9.55-22.08s-12.54-12.77-22.24-8.78l-4.92,2Z"/><path class="cls-7" d="M190.57,239.26l-3.52,1.45-15.61-38,3.52-1.44Z"/><path class="cls-7" d="M203.7,193.63l-9.85,4.06L208,232.09l-3.51,1.44-14.15-34.4-9.9,4.07L179,199.66l23.27-9.57Z"/><path class="cls-7" d="M266,202a20.76,20.76,0,0,1-11.46,11.58,21.06,21.06,0,0,1-16-39,20.82,20.82,0,0,1,16.21.14l-1.53,3.41a17.23,17.23,0,1,0,9.28,22.56Z"/><path class="cls-7" d="M274.16,160.52,307.8,191l-3.87,1.59-10.57-9.55-18,7.42-.74,14.2-3.92,1.61,2.49-45.38Zm1.42,25.73,14.62-6-13.61-12.38Z"/><path class="cls-7" d="M312.32,189.18l-15.6-37.94,11.3-4.65a11.41,11.41,0,0,1,11.69,19.27l15.78,13.79-4,1.64-15.27-13.42-7.34,3,6.93,16.84Zm-4.86-21.83,7.78-3.21a7.57,7.57,0,0,0-5.76-14l-7.79,3.2Z"/><path class="cls-7" d="M340,177.79l-15.6-37.94,8.44-3.47c11.66-4.8,22.32-1,27.21,10.87s.05,22.28-11.61,27.07Zm2.06-5,4.93-2c9.7-4,13.64-12.12,9.54-22.08S344,135.93,334.3,139.92l-4.92,2Z"/><path class="cls-8" d="M423,125.65a35.17,35.17,0,0,1,3-32.48A34.59,34.59,0,0,0,405.24,95,35.15,35.15,0,0,0,432,160a34.56,34.56,0,0,0,16-13.31A35.22,35.22,0,0,1,423,125.65Z"/><path class="cls-9" d="M459.69,110.56a35.17,35.17,0,0,1,2.95-32.48A34.66,34.66,0,0,0,426,93.17a35.27,35.27,0,0,1,22,53.49,34.67,34.67,0,0,0,36.69-15.09A35.2,35.2,0,0,1,459.69,110.56Z"/><ellipse class="cls-10" cx="436.95" cy="119.91" rx="15.08" ry="28.92" transform="translate(-12.77 175.22) rotate(-22.36)"/><path class="cls-11" d="M478.62,64.77a34.59,34.59,0,0,0-16,13.31,35.26,35.26,0,0,1,22,53.49,34.59,34.59,0,0,0,20.72-1.78,35.15,35.15,0,0,0-26.74-65Z"/><path class="cls-12" d="M487.59,99.09a35.19,35.19,0,0,0-24.95-21,35.26,35.26,0,0,0,22,53.49A35.14,35.14,0,0,0,487.59,99.09Z"/><rect class="cls-13" x="369.34" y="330.97" width="248.75" height="11.4" transform="translate(-90.95 213.1) rotate(-22.36)"/><rect class="cls-14" x="435.24" y="342.44" width="189.96" height="11.4" transform="translate(-92.57 227.85) rotate(-22.36)"/><path class="cls-13" d="M170.43,299.87l-1-2.52-45.78,18.82-4.68-11.38-2.51,1,4.68,11.39L75.32,336l1,2.52,45.78-18.82,4.46,10.84L80.82,349.41l1,2.53,45.78-18.83,0,.1,1.31-.66c.45-.21,10.94-5.34,15.34,2.63a7,7,0,0,1,.32,5.19c-1,3.06-4.07,5.69-9.09,7.83L88.32,367.63l1,2.52,46-18.92,4.54,11-46,18.92,1,2.53,46-18.92,4.68,11.38,2.51-1-4.68-11.38L189,345l-1-2.53-45.56,18.74-4.56-11.09c5.05-2.37,8.21-5.37,9.38-8.92a9.71,9.71,0,0,0,0-6.15l32.25-13.26-1-2.52L146,332.66c-4.33-6.13-12.19-5-16.85-3.15l-4.45-10.81Z"/><path class="cls-14" d="M610.91,294.62l-4.33-10.54-167.76,69q-12,11.4-24.27,22.3Z"/><path class="cls-15" d="M582.08,224.54l-49.17,20.22A628.11,628.11,0,0,1,487.19,303l.45,1.07,108.75-44.72Z"/><path class="cls-16" d="M9.13,234.49,31.5,288.9C23.43,265.21,13.8,210.39,82.88,182L20.17,207.77A20.49,20.49,0,0,0,9.13,234.49Z"/><path class="cls-1" d="M420.74,449l.64-.18-61-35.59,25.5-23.25,86.59,30.48,3.91,38.15-15.86,48.87q-18.58,23-37.15,46.1c-6.92,8.59-16.11,16-20.92,26l-6.39-107.42S421.39,447.58,420.74,449Z"/></g></g></svg>