<svg xmlns="http://www.w3.org/2000/svg" viewBox="0 0 571.73 402.17"><defs><style>.cls-1{fill:#f5f5f5;}.cls-2{fill:#ebebeb;}.cls-3{fill:#e0e0e0;}.cls-4{fill:#fff;}.cls-5{opacity:0.5;}.cls-6{fill:#fe8b00;}.cls-7{opacity:0.2;}.cls-8{fill:#263238;}.cls-9{opacity:0.3;}.cls-10{fill:#fafafa;}.cls-11{fill:#ffbe9d;}.cls-12{fill:#eb996e;}.cls-13{opacity:0.78;}.cls-14{fill:#455a64;}.cls-15{opacity:0.6;}</style></defs><g id="Layer_2" data-name="Layer 2"><g id="Background_Complete" data-name="Background Complete"><path class="cls-1" d="M347.65,44.3A42,42,0,1,1,300.08,8.89,41.95,41.95,0,0,1,347.65,44.3Z"/><path class="cls-2" d="M337.76,45.74a32,32,0,1,1-36.25-27A32,32,0,0,1,337.76,45.74Z"/><path class="cls-3" d="M337.61,44.75c-.19,0-.53-1.34-1.39-3.69a34.08,34.08,0,0,0-5.06-9.17,32.78,32.78,0,0,0-5-5.15,32.4,32.4,0,0,0-7-4.32,31.34,31.34,0,0,0-8.7-2.5,31.48,31.48,0,0,0-4.78-.28,31.59,31.59,0,0,0-9.7,1.72,30.92,30.92,0,0,0-4.4,1.91,31.24,31.24,0,0,0-7.3,5.34,31.63,31.63,0,0,0-8,13A34,34,0,0,0,274.64,52c0,2.51.16,3.91,0,3.94s-.62-1.32-.92-3.89a29.64,29.64,0,0,1,.88-10.89A32.24,32.24,0,0,1,282.66,27a31.31,31.31,0,0,1,3.58-3.16,31,31,0,0,1,4.19-2.7,32.5,32.5,0,0,1,4.73-2.1,35.08,35.08,0,0,1,5.15-1.35,34.3,34.3,0,0,1,5.31-.5,32.82,32.82,0,0,1,10,1.43,30.71,30.71,0,0,1,4.45,1.74,32.15,32.15,0,0,1,12.46,10.48,29.55,29.55,0,0,1,4.58,9.92C337.73,43.29,337.75,44.72,337.61,44.75Z"/><path class="cls-3" d="M312.43,68.7l.88,5.51-4.92.78-.85-5.35c-4.91.48-9.83-.29-12.87-2l1.75-6.43a20.16,20.16,0,0,0,10.09,2L305.19,55c-5.66-.45-12.05-1.29-13.17-8.32-.83-5.2,2.23-10.28,9.85-12.41L301,28.81l4.91-.79.86,5.36a22.38,22.38,0,0,1,10.45,1.4l-1.48,6.43a20.63,20.63,0,0,0-7.93-1.35l1.34,8.36c5.65.4,11.94,1.26,13.05,8.18C323,61.51,320,66.53,312.43,68.7ZM304,47.77l-1.12-7c-2.51,1-3.31,2.59-3.05,4.22S301.76,47.43,304,47.77Zm10.34,10.49c-.27-1.72-1.85-2.42-4.08-2.82l1.09,6.78C313.76,61.28,314.63,59.83,314.38,58.26Z"/><path class="cls-2" d="M566.78,225.08s-9.31-5.38-18.93,16.69-13,34.66-13,34.66-2.62,4.66-5.87,1.91-8-10.81-13.13-9c-5.34,1.87-6.76,8-5.19,16.89s4.3,28.36,4.54,30.12-.6,4.36-3.12,2.84-17.37-16.18-23.91-8.71,1.89,31.38,2.77,34,.41,3.8-.82,4.54-5.76-4.66-10.15-8.65-10.19-7.87-13.6-3.24-3.49,22.95,15.68,51.58l9.75,12.68,16-1.85c33.91-6.05,47.07-18.82,48-24.48s-5.84-7.16-11.76-7.55-13,.09-13.28-1.31.21-2.54,2.71-3.74,25.58-11.72,26.42-21.61-20-10.41-22.86-11.17-1.53-3.19-.12-4.23,17.39-12.61,24.85-17.61,10.92-10.31,8.57-15.46c-2.26-5-11.35-2.77-15.58-3.22s-2.7-5.55-2.7-5.55,6.72-11.18,16-33.42S566.58,225,566.58,225"/><path class="cls-3" d="M492.39,398.11c6.83-16.31,16.46-38.76,27.18-63.52S540,287.42,546.9,271.15l8.18-19.27,2.23-5.24.59-1.36c.14-.3.22-.45.22-.45a4.49,4.49,0,0,1-.16.47c-.13.34-.31.79-.55,1.38-.49,1.23-1.21,3-2.13,5.28-1.86,4.58-4.6,11.19-8,19.34-6.84,16.31-16.47,38.76-27.19,63.51s-20.4,47.18-27.33,63.45"/><path class="cls-3" d="M522,280.89a5,5,0,0,1,.48,1.06c.27.69.64,1.7,1.09,2.95.88,2.51,2,6,3.17,9.89s2.16,7.27,2.95,9.95l.91,3a4.61,4.61,0,0,1,.28,1.13,5.73,5.73,0,0,1-.48-1.06c-.28-.69-.65-1.7-1.08-3-.85-2.51-1.93-6-3.1-9.9l-3-9.93-.92-3A4.17,4.17,0,0,1,522,280.89Z"/><path class="cls-3" d="M532.34,309.06c-.05-.14,7.06-2.78,15.87-5.9s16-5.53,16-5.39-7.06,2.79-15.87,5.91S532.4,309.2,532.34,309.06Z"/><path class="cls-3" d="M514.17,346.34a5.19,5.19,0,0,1,1.17-.14l3.21-.18c2.7-.17,6.44-.4,10.55-.81s7.82-.89,10.5-1.26l3.18-.43a4.76,4.76,0,0,1,1.18-.1,5,5,0,0,1-1.14.31c-.74.16-1.82.37-3.16.6-2.67.48-6.38,1-10.51,1.43s-7.87.58-10.59.64c-1.35,0-2.45,0-3.21,0A5,5,0,0,1,514.17,346.34Z"/><path class="cls-3" d="M499.18,322.92a4,4,0,0,1,.69.85c.41.57,1,1.4,1.71,2.43,1.41,2.07,3.34,4.94,5.44,8.14s4,6.1,5.32,8.22c.67,1.06,1.2,1.92,1.56,2.53a4.43,4.43,0,0,1,.51,1,4,4,0,0,1-.69-.85c-.41-.57-1-1.4-1.7-2.44-1.42-2.06-3.35-4.94-5.45-8.13s-4-6.1-5.32-8.22c-.67-1.06-1.2-1.93-1.56-2.53A4.7,4.7,0,0,1,499.18,322.92Z"/><path class="cls-3" d="M479,353.79a8.12,8.12,0,0,1,.86,1.1c.58.83,1.32,1.87,2.2,3.11,1.83,2.64,4.33,6.3,7.06,10.37s5.18,7.77,6.93,10.46l2.05,3.21a7.37,7.37,0,0,1,.69,1.21,6.47,6.47,0,0,1-.87-1.09l-2.19-3.11c-1.83-2.64-4.33-6.31-7.07-10.37s-5.18-7.77-6.93-10.46l-2-3.21A5.45,5.45,0,0,1,479,353.79Z"/><path class="cls-3" d="M498.47,382.42a7.83,7.83,0,0,1,1.49-.21l4.05-.38c3.42-.33,8.15-.8,13.35-1.45s9.9-1.36,13.3-1.9l4-.63a9.31,9.31,0,0,1,1.49-.17,7.56,7.56,0,0,1-1.45.38c-.94.21-2.3.49-4,.8-3.38.64-8.07,1.41-13.29,2.06S507.48,382,504,382.21c-1.72.11-3.11.19-4.07.21A8.32,8.32,0,0,1,498.47,382.42Z"/><path class="cls-3" d="M211.49,292.77,20.9,233.45a9.29,9.29,0,0,1-6.11-11.63L51.44,104.08A9.28,9.28,0,0,1,63.06,98l190.6,59.33a9.27,9.27,0,0,1,6.1,11.62L223.12,286.67A9.29,9.29,0,0,1,211.49,292.77Z"/><path class="cls-4" d="M222,182a15.06,15.06,0,1,1-9.9-18.85A15.05,15.05,0,0,1,222,182Z"/><path class="cls-4" d="M223,198.5a15.48,15.48,0,0,1-2.73-.59,15.68,15.68,0,1,1,11.95-1.09A15.54,15.54,0,0,1,223,198.5Zm3.73-29.89a14.45,14.45,0,1,0,12,18.63h0a14.46,14.46,0,0,0-9.5-18.09A13.68,13.68,0,0,0,226.77,168.61Z"/><path class="cls-4" d="M45.67,187.64l-3.6,11.56-1.19-.37,3.27-10.51-2.72-.84.33-1.06Z"/><path class="cls-4" d="M54.29,201.85,54,202.9l-8.11-2.52.27-.84,6.27-3.22c1.7-.88,2.19-1.58,2.44-2.37.42-1.34-.27-2.46-2-3a4.12,4.12,0,0,0-3.56.31l-.62-1a5.44,5.44,0,0,1,4.61-.38c2.35.73,3.47,2.38,2.87,4.32-.35,1.1-1,2-3,3l-5.14,2.65Z"/><path class="cls-4" d="M67.09,203.65l-2.32-.72-.94,3-1.19-.37.94-3-6.52-2,.27-.86,8.51-5.76,1.32.42L58.92,200l5,1.57.83-2.68,1.15.36-.83,2.67,2.32.73Z"/><path class="cls-4" d="M84.81,209.17l-2.31-.72-1,3-1.19-.37,1-3-6.53-2,.27-.86,8.51-5.76,1.33.41-8.24,5.63,5,1.56.83-2.67,1.16.36-.83,2.67,2.31.72Z"/><path class="cls-4" d="M95,212c-.61,2-2.46,3.08-5.29,2.2a6.23,6.23,0,0,1-3.68-2.78l.87-.76a5.22,5.22,0,0,0,3.14,2.44c2,.61,3.3,0,3.74-1.42s-.18-2.7-3.12-3.62l-2.46-.77,2.4-5.61,6.33,2-.33,1.06L91.34,203l-1.54,3.56,1.49.47C94.77,208.12,95.67,209.9,95,212Z"/><path class="cls-4" d="M106.48,215.46c-.68,2.16-2.81,3-5.06,2.32-3.07-.95-4.08-3.6-2.94-7.26,1.22-3.93,4-5.31,7.15-4.33a5.48,5.48,0,0,1,2.54,1.48l-.77.81a4.2,4.2,0,0,0-2.08-1.24c-2.49-.78-4.6.32-5.57,3.46-.09.27-.17.6-.25,1a3.88,3.88,0,0,1,4.16-.88C106,211.49,107.13,213.35,106.48,215.46Zm-1.19-.33c.47-1.52-.35-2.85-2.13-3.4s-3.31.16-3.76,1.6c-.4,1.27.29,2.81,2.28,3.43A2.66,2.66,0,0,0,105.29,215.13Z"/><path class="cls-4" d="M122.26,220.52c-.61,1.93-2.47,3-5.26,2.11a6.28,6.28,0,0,1-3.7-2.78l.87-.76a5.28,5.28,0,0,0,3.17,2.45c1.91.6,3.25,0,3.69-1.4s-.26-2.6-2.4-3.27l-.83-.26.27-.87,4.46-3-5.92-1.84.33-1.06,7.44,2.32-.26.84-4.56,3.09C122,217,122.83,218.67,122.26,220.52Z"/><path class="cls-4" d="M133.89,224c-.67,2.16-2.8,3-5,2.32-3.07-1-4.08-3.61-2.94-7.26,1.22-3.93,4-5.31,7.15-4.33a5.44,5.44,0,0,1,2.54,1.48l-.77.81a4.25,4.25,0,0,0-2.08-1.25c-2.5-.77-4.6.33-5.57,3.47-.09.26-.17.6-.25.95a3.87,3.87,0,0,1,4.15-.88C133.37,220,134.55,221.88,133.89,224Zm-1.18-.34c.47-1.52-.35-2.84-2.13-3.4s-3.31.17-3.76,1.61c-.4,1.27.28,2.8,2.28,3.42A2.65,2.65,0,0,0,132.71,223.66Z"/><path class="cls-4" d="M147.06,219.19l-.27.85-8.17,9.21-1.29-.4,8-9L139.41,218l-.68,2.17-1.17-.37,1-3.22Z"/><path class="cls-4" d="M163.59,224.34l-.26.84-8.18,9.22-1.29-.4,8-9-5.95-1.85-.67,2.16-1.17-.36,1-3.22Z"/><path class="cls-4" d="M172.37,236.23c-.64,2-2.77,2.78-5.52,1.92s-4.07-2.66-3.43-4.71a3,3,0,0,1,3.11-2.15,2.72,2.72,0,0,1-1-3.11c.58-1.88,2.55-2.56,5-1.79s3.71,2.44,3.13,4.32a2.74,2.74,0,0,1-2.65,2A3,3,0,0,1,172.37,236.23Zm-1.21-.4c.44-1.42-.51-2.69-2.56-3.33s-3.53-.12-4,1.3.48,2.7,2.53,3.34S170.71,237.27,171.16,235.83Zm-2.26-4.27c1.8.56,3.12.08,3.51-1.17s-.48-2.46-2.22-3-3.1-.09-3.5,1.2S167.1,231,168.9,231.56Z"/><path class="cls-4" d="M184.43,237.06c-1.22,3.93-4,5.31-7.15,4.34a5.56,5.56,0,0,1-2.54-1.48l.77-.81a4.27,4.27,0,0,0,2.08,1.24c2.49.78,4.6-.33,5.57-3.47a9.12,9.12,0,0,0,.25-.95,3.88,3.88,0,0,1-4.16.88c-2.29-.71-3.47-2.57-2.81-4.68s2.8-3,5.05-2.33C184.56,230.76,185.57,233.41,184.43,237.06Zm-.92-2.8c.4-1.28-.28-2.81-2.28-3.43a2.65,2.65,0,0,0-3.61,1.63c-.47,1.52.34,2.84,2.13,3.4S183.06,235.69,183.51,234.26Z"/><path class="cls-4" d="M197.93,235l-3.6,11.56-1.19-.37,3.27-10.5-2.73-.85.33-1.06Z"/><path class="cls-4" d="M206.55,249.24l-.33,1.06-8.11-2.53.26-.84,6.27-3.21c1.71-.89,2.2-1.58,2.45-2.38.41-1.34-.27-2.46-2-3a4.13,4.13,0,0,0-3.56.31l-.61-1a5.44,5.44,0,0,1,4.61-.38c2.34.73,3.46,2.39,2.86,4.32-.34,1.11-1,2-3,3l-5.13,2.64Z"/><path class="cls-4" d="M217.63,250.2c-.6,1.94-2.47,3-5.26,2.12a6.29,6.29,0,0,1-3.7-2.79l.87-.76a5.3,5.3,0,0,0,3.16,2.46c1.92.59,3.26,0,3.7-1.41s-.26-2.6-2.4-3.26l-.83-.26.27-.88,4.46-3L212,240.57l.33-1.06,7.44,2.31-.26.84-4.56,3.1C217.37,246.66,218.2,248.35,217.63,250.2Z"/><rect class="cls-4" x="168.02" y="202.86" width="5.26" height="97.01" transform="translate(-120.07 339.61) rotate(-72.71)"/><rect class="cls-4" x="187.46" y="243.54" width="5.26" height="49.76" transform="translate(-122.68 370.16) rotate(-72.71)"/><g class="cls-5"><rect class="cls-2" x="45.32" y="151.8" width="40.71" height="30.41" rx="4.96" transform="translate(52.6 -11.97) rotate(17.29)"/></g><path class="cls-3" d="M44.22,167.43l.58-1.86,20,6.23a4.39,4.39,0,1,0,2.61-8.38l-20-6.23.58-1.86,20,6.23a6.34,6.34,0,1,1-3.77,12.1Z"/><rect class="cls-3" x="77.13" y="164.15" width="1.95" height="14.39" transform="matrix(0.3, -0.95, 0.95, 0.3, -108.73, 194.82)"/><rect class="cls-4" x="59.08" y="139.33" width="104.69" height="8.98" transform="translate(47.79 -26.62) rotate(17.29)"/><path class="cls-1" d="M93.82,348.6a26.55,26.55,0,1,1-30.09-22.4A26.52,26.52,0,0,1,93.82,348.6Z"/><path class="cls-2" d="M87.57,349.51a20.24,20.24,0,1,1-22.93-17.07A20.21,20.21,0,0,1,87.57,349.51Z"/><path class="cls-3" d="M87.47,348.88a12.3,12.3,0,0,1-.88-2.33,21.5,21.5,0,0,0-3.2-5.8,20,20,0,0,0-7.6-6,18.83,18.83,0,0,0-2.64-1,17.7,17.7,0,0,0-2.86-.61,19,19,0,0,0-3-.18,22,22,0,0,0-3.11.3,21.24,21.24,0,0,0-3,.79,19.78,19.78,0,0,0-2.78,1.21,18.2,18.2,0,0,0-2.48,1.55,19.22,19.22,0,0,0-2.14,1.83,20,20,0,0,0-3.21,4.09,21,21,0,0,0-1.87,4.14,21.74,21.74,0,0,0-1,6.55,10.83,10.83,0,0,1,0,2.49,6.09,6.09,0,0,1-.58-2.46,19,19,0,0,1,.56-6.88,21,21,0,0,1,1.8-4.48,20.49,20.49,0,0,1,3.32-4.46,19.08,19.08,0,0,1,2.26-2A19.38,19.38,0,0,1,57.63,334a21.17,21.17,0,0,1,3-1.32,22,22,0,0,1,3.26-.86,22.6,22.6,0,0,1,3.36-.32,20.6,20.6,0,0,1,3.26.22,19.4,19.4,0,0,1,3.08.69,20,20,0,0,1,2.81,1.1,20.56,20.56,0,0,1,4.65,3,20,20,0,0,1,3.23,3.58,18.68,18.68,0,0,1,2.9,6.27A5.94,5.94,0,0,1,87.47,348.88Z"/><path class="cls-3" d="M71.54,364l.56,3.48L69,368l-.54-3.39a14.88,14.88,0,0,1-8.13-1.24l1.1-4.07a12.74,12.74,0,0,0,6.38,1.24L67,355.36c-3.59-.28-7.62-.82-8.33-5.26-.53-3.29,1.41-6.51,6.23-7.85l-.55-3.45,3.1-.5.55,3.39a14.12,14.12,0,0,1,6.61.89l-.94,4.07a12.9,12.9,0,0,0-5-.86l.85,5.28c3.58.26,7.55.8,8.25,5.18C78.24,359.49,76.33,362.66,71.54,364Zm-5.3-13.24-.71-4.41c-1.59.64-2.09,1.64-1.93,2.67S64.8,350.58,66.24,350.79Zm6.54,6.64c-.17-1.09-1.17-1.54-2.58-1.79l.69,4.29C72.39,359.34,72.94,358.42,72.78,357.43Z"/></g><g id="Plant"><path class="cls-6" d="M490.52,359.65c-1.94,2.77-5.71,1.85-7.45.16s-2.49-4.13-3.16-6.47C478.37,348,476.83,342.4,478,337a9.05,9.05,0,0,1,2.09-4.45,4.75,4.75,0,0,1,4.5-1.5c1.9.5,3.08,2.36,3.94,4.13a39.17,39.17,0,0,1,3.85,16.75c0,2.7-.31,5.53-1.83,7.75"/><g class="cls-7"><path d="M490.52,359.65c-1.94,2.77-5.71,1.85-7.45.16s-2.49-4.13-3.16-6.47C478.37,348,476.83,342.4,478,337a9.05,9.05,0,0,1,2.09-4.45,4.75,4.75,0,0,1,4.5-1.5c1.9.5,3.08,2.36,3.94,4.13a39.17,39.17,0,0,1,3.85,16.75c0,2.7-.31,5.53-1.83,7.75"/></g><path class="cls-6" d="M483.26,373.67a16.87,16.87,0,0,0-10.43-1.26,8.61,8.61,0,0,0-5.14,2.3c-1.29,1.42-1.53,3.92-.06,5.14a5,5,0,0,0,3.25.82c2.75,0,5.81-.52,8,1.14,1.26.95,2.09,2.52,3.6,3a3.54,3.54,0,0,0,3.9-1.73,6,6,0,0,0,.44-4.48A6.84,6.84,0,0,0,483.26,373.67Z"/><path class="cls-6" d="M495.84,363.63a10.1,10.1,0,0,1-1.56-9.28,17.77,17.77,0,0,1,5.49-8,29.55,29.55,0,0,1,9.83-5.8,10.36,10.36,0,0,1,4.42-.75,4.64,4.64,0,0,1,3.71,2.24c1,2,0,4.37-1,6.32a76.08,76.08,0,0,1-6.45,9.84c-1.94,2.49-4.16,4.95-7.11,6.08s-6,1-7.58-1.05"/><path class="cls-8" d="M490.65,401.42a7.1,7.1,0,0,1-.17-1.26c-.09-.92-.2-2.06-.34-3.43a49.66,49.66,0,0,0-.77-5,39.12,39.12,0,0,0-1.83-5.94,21.69,21.69,0,0,0-3-5.38,11.2,11.2,0,0,0-3.83-3.19,10.85,10.85,0,0,0-3.23-1,5.6,5.6,0,0,1-1.26-.18,5.74,5.74,0,0,1,1.28,0,9.9,9.9,0,0,1,3.37.88,11.32,11.32,0,0,1,4.05,3.22,21.65,21.65,0,0,1,3.14,5.48,36.22,36.22,0,0,1,1.82,6,44.38,44.38,0,0,1,.67,5.1c.11,1.46.15,2.64.17,3.46A5.27,5.27,0,0,1,490.65,401.42Z"/><path class="cls-8" d="M490.42,398.78a2.52,2.52,0,0,1,0-.59c0-.44,0-1,0-1.67,0-1.45,0-3.54-.08-6.13-.13-5.18-.57-12.33-1.43-20.18s-2-14.93-3.07-20c-.25-1.27-.49-2.42-.73-3.42s-.42-1.87-.6-2.57l-.39-1.62a2.41,2.41,0,0,1-.1-.58,3,3,0,0,1,.2.55l.49,1.6c.21.69.43,1.55.68,2.55s.54,2.14.81,3.41a190.89,190.89,0,0,1,3.22,20c.87,7.87,1.25,15,1.29,20.23,0,2.6,0,4.7-.09,6.15,0,.68-.08,1.23-.1,1.67A3.39,3.39,0,0,1,490.42,398.78Z"/><path class="cls-8" d="M490.38,385a12.19,12.19,0,0,1,0-1.74c.07-1.12.22-2.74.54-4.73a65,65,0,0,1,4.41-15,43.34,43.34,0,0,1,8.46-13.16,21.62,21.62,0,0,1,2-1.85c.31-.26.58-.51.85-.72l.78-.53a11.42,11.42,0,0,1,1.46-.94,53.22,53.22,0,0,0-4.81,4.29,45.9,45.9,0,0,0-8.24,13.12,65.08,65.08,0,0,0-2.9,8.07c-.75,2.53-1.25,4.86-1.63,6.82s-.57,3.56-.7,4.67A10.33,10.33,0,0,1,490.38,385Z"/></g><g id="Credit_Card" data-name="Credit Card"><path class="cls-6" d="M273.1,305.63,118.31,141.9a4.29,4.29,0,0,1,.18-6.07l101.58-96a4.3,4.3,0,0,1,6.08.17L380.94,203.68a4.31,4.31,0,0,1-.17,6.08l-101.59,96A4.3,4.3,0,0,1,273.1,305.63Z"/><g class="cls-9"><path d="M273.1,305.63,118.31,141.9a4.29,4.29,0,0,1,.18-6.07l101.58-96a4.3,4.3,0,0,1,6.08.17L380.94,203.68a4.31,4.31,0,0,1-.17,6.08l-101.59,96A4.3,4.3,0,0,1,273.1,305.63Z"/></g><path class="cls-6" d="M379.81,202.49,227.28,41.15a6,6,0,0,0-8.41-.23L190,68.21a2.4,2.4,0,0,0-.72,2.12c2.89,16.14,14.43,30.57,28.19,40.13,16.62,11.55,36.32,17.63,55,25.35s37.51,17.87,48.74,34.72c10.59,15.91,13.09,35.63,18.48,54a105.73,105.73,0,0,0,5.44,14.58,2.39,2.39,0,0,0,3.8.73l30.59-28.92A5.94,5.94,0,0,0,379.81,202.49Z"/><path class="cls-4" d="M225,88.11c-1.38,1.31-3.22,1-5.2-1.13l-3.9-4.13,8-7.54,3.68,3.9c1.89,2,2,3.8.79,5a2.67,2.67,0,0,1-2.76.6A2.72,2.72,0,0,1,225,88.11Zm-.78-9.65-1.88,1.78,1.74,1.83c.85.9,1.63,1.09,2.26.5s.47-1.38-.38-2.28Zm-.79,7.61c.67-.64.51-1.45-.4-2.41l-2-2.15-2,1.86,2,2.16C222,86.48,222.78,86.72,223.46,86.07Z"/><path class="cls-4" d="M230.85,95.2l-3.51-3.7-2.38.91-1.78-1.89,11.34-4,1.72,1.82-4.6,11.12-1.84-1.94Zm.85-1.9,1.86-4.16-4.25,1.63Z"/><path class="cls-4" d="M247.31,100.07l-8,7.54-1.44-1.52L239,97.53l-4.85,4.58-1.72-1.82,8-7.54,1.44,1.52-1.09,8.55,4.84-4.58Z"/><path class="cls-4" d="M247,109.44l-2.13,0-2,1.91-1.73-1.84,8-7.54,1.73,1.84-3.73,3.52h7.07l1.94,2.05-6.68.06-1.11,7.68-2-2.16Z"/><path class="cls-4" d="M190.43,118l-1.38-1.46-1.93,1.82-.71-.75,1.93-1.82-3.91-4.14.54-.51,8.53-.71.79.84L186,112l3,3.18,1.69-1.6.69.73-1.69,1.61,1.38,1.46Z"/><path class="cls-4" d="M195.7,123.19c-1.23,1.16-3,1.16-4.68-.61a5.21,5.21,0,0,1-1.55-3.52l.94-.2a4.39,4.39,0,0,0,1.3,3.07c1.15,1.22,2.34,1.35,3.25.49s.87-2-.41-3.35l-.5-.53.56-.52,4.46-.37-3.54-3.75.67-.63,4.45,4.71-.53.5-4.57.39C197,120.52,196.87,122.09,195.7,123.19Z"/><path class="cls-4" d="M201.35,129.07c-1.25,1.17-3,1.23-4.73-.56a5.17,5.17,0,0,1-1.54-3.52l.94-.2a4.34,4.34,0,0,0,1.28,3c1.17,1.25,2.4,1.33,3.29.49s1-2-.78-3.89l-1.48-1.56,4-3.09,3.79,4-.67.64-3.16-3.35-2.58,2,.9.94C202.72,126.18,202.65,127.84,201.35,129.07Z"/><path class="cls-4" d="M207.48,135.49a3.13,3.13,0,0,1-4.61-.37c-1.84-2-1.49-4.28.82-6.47,2.49-2.35,5.07-2.22,6.95-.23a4.59,4.59,0,0,1,1.25,2.11l-.9.27a3.5,3.5,0,0,0-1-1.75c-1.49-1.58-3.46-1.63-5.45.25-.17.16-.37.36-.57.59a3.22,3.22,0,0,1,3.37,1.06C208.72,132.4,208.82,134.23,207.48,135.49Zm-.72-.72c1-.91.91-2.21-.16-3.34a2.33,2.33,0,0,0-3.38-.37c-.81.77-.94,2.16.26,3.42A2.2,2.2,0,0,0,206.76,134.77Z"/><path class="cls-4" d="M220.26,153.39l.65-3.93-4,.42-.79-.84,4.89-.49.71-4.6.8.83-.6,3.69,3.72-.38.77.82-4.63.46-.75,4.87Z"/><path class="cls-4" d="M225.54,159l.65-3.92-4,.42-.79-.84,4.88-.49.72-4.61.79.84-.59,3.69,3.71-.38.78.81-4.64.46-.75,4.87Z"/><path class="cls-4" d="M230.82,164.56l.65-3.92-4,.42-.79-.84,4.88-.5.72-4.6.79.84-.59,3.69,3.72-.39.77.82-4.64.46-.75,4.87Z"/><path class="cls-4" d="M236.1,170.15l.65-3.93-4,.42-.79-.83,4.88-.5.72-4.6.79.84-.59,3.69,3.72-.39.77.82-4.64.46-.74,4.87Z"/><path class="cls-4" d="M254.34,189.44l.65-3.92-4,.42-.79-.84,4.88-.5.72-4.6.79.84-.59,3.69,3.72-.39.77.82-4.64.46-.75,4.87Z"/><path class="cls-4" d="M259.62,195l.65-3.93-4,.42-.79-.84,4.88-.49.72-4.6.79.83-.59,3.69,3.72-.38.77.82-4.64.46-.75,4.86Z"/><path class="cls-4" d="M264.91,200.61l.65-3.92-4,.42-.79-.84,4.88-.49.72-4.61.79.84-.59,3.69,3.72-.38.77.81-4.64.46-.74,4.87Z"/><path class="cls-4" d="M270.19,206.2l.65-3.92-4,.41-.79-.83,4.88-.5.72-4.6.8.84-.6,3.69,3.72-.39.77.82-4.63.46-.75,4.87Z"/><path class="cls-4" d="M293.89,216.6l-7.32,6.93-.72-.76,6.66-6.29-1.63-1.73.67-.63Z"/><path class="cls-4" d="M294.9,228.13c-1.22,1.15-3,1.16-4.68-.61a5.25,5.25,0,0,1-1.55-3.53l.94-.2a4.43,4.43,0,0,0,1.3,3.07c1.15,1.22,2.35,1.35,3.26.49s.87-2-.42-3.35l-.49-.52.55-.53,4.46-.37-3.54-3.75.67-.63,4.45,4.71-.53.5-4.56.39C296.16,225.45,296.07,227,294.9,228.13Z"/><path class="cls-4" d="M301.61,235.58l-1.39-1.47-1.92,1.82-.72-.75,1.93-1.82-3.91-4.13.55-.52,8.52-.71.79.84-8.27.73,3,3.18,1.69-1.61.7.74-1.7,1.6,1.39,1.46Z"/><path class="cls-4" d="M305.69,242.41l-.67.64-4.85-5.14.53-.5,5.86.22c1.6.06,2.24-.25,2.74-.73.85-.8.81-1.89-.25-3a3.43,3.43,0,0,0-2.71-1.23l0-1a4.52,4.52,0,0,1,3.5,1.6c1.4,1.49,1.54,3.14.31,4.3-.7.66-1.53,1-3.42,1l-4.81-.17Z"/><path class="cls-4" d="M163.74,124.06a2.65,2.65,0,0,1,4.34,2.21l-1-.07a1.54,1.54,0,0,0-.42-1.26,1.54,1.54,0,1,0-2.23,2.11,1.5,1.5,0,0,0,1.24.49v1a2.64,2.64,0,0,1-2-4.45Z"/><path class="cls-4" d="M168.53,131.12,167,129.5l-1,.4-.78-.83,5-1.75.75.8-2,4.87-.8-.85Zm.37-.84.82-1.81-1.87.71Z"/><path class="cls-4" d="M171.33,135.58l.33-1.59,0,0-.67-.7-1,.92-.77-.81,3.5-3.31,1.43,1.51c.88.94.95,2,.16,2.72a1.55,1.55,0,0,1-1.78.33l-.38,1.84Zm2.12-3.44-.63-.66-1.22,1.16.63.65c.47.5.93.53,1.31.17S173.91,132.64,173.45,132.14Z"/><path class="cls-4" d="M172.78,136.43l.87-.3a2.78,2.78,0,0,0,.73,1.5c.45.48.79.52,1,.32.65-.62-1.72-2.23-.42-3.45.6-.57,1.54-.55,2.48.44a3.18,3.18,0,0,1,.84,1.51l-.85.33a2.73,2.73,0,0,0-.64-1.23c-.46-.48-.81-.5-1-.29-.64.61,1.72,2.22.44,3.44-.58.55-1.54.54-2.49-.46A3.53,3.53,0,0,1,172.78,136.43Z"/><path class="cls-4" d="M183.58,141.54l-3.5,3.3-.76-.81,1.43-1.35-1.5-1.59-1.43,1.36-.77-.81,3.5-3.31.76.81-1.38,1.3,1.5,1.59,1.38-1.3Z"/><path class="cls-4" d="M182.41,143.81a2.64,2.64,0,1,1,0,3.62A2.49,2.49,0,0,1,182.41,143.81Zm2.84,3a1.5,1.5,0,1,0-2.15,0A1.46,1.46,0,0,0,185.25,146.81Z"/><path class="cls-4" d="M188.36,146.6l.76.8-2.83,2.68,1.65,1.76-.66.62-2.42-2.56Z"/><path class="cls-4" d="M191.21,149.62l1.5,1.58a2.42,2.42,0,1,1-3.49,3.31l-1.5-1.59Zm-1.37,4.22a1.49,1.49,0,1,0,2.17-2.05l-.7-.74-2.16,2Z"/><path class="cls-4" d="M194.83,159.14l-.65.62-2.56-2.71,3.5-3.3,2.49,2.64L197,157l-1.74-1.84-.76.72L196,157.5l-.63.6-1.53-1.62-.81.76Z"/><path class="cls-4" d="M196.9,162.63l.33-1.59,0,0-.67-.71-1,.92-.77-.8,3.5-3.31,1.43,1.51c.88.94.95,2,.17,2.72a1.58,1.58,0,0,1-1.79.32l-.38,1.85Zm2.12-3.44-.63-.66-1.21,1.15.62.66c.47.5.93.53,1.31.17S199.48,159.69,199,159.19Z"/><path class="cls-4" d="M149.75,136.62l1.86-.11a2.15,2.15,0,0,0,.44,2c.59.62,1.28.6,2-.1l3.2-3L155,133l1.26-1.18,3.7,3.91-4.37,4.13c-1.67,1.58-3.27,1.51-4.77-.08A3.72,3.72,0,0,1,149.75,136.62Z"/><path class="cls-4" d="M155.06,142.24a1.28,1.28,0,0,1,1.76,1.86,1.28,1.28,0,1,1-1.76-1.86Z"/><path class="cls-4" d="M173,149.49l-8.82,4.16L162.63,152l3.16-5.79-6,2.78-1.57-1.67,4.64-8.57,1.53,1.61-3.3,6,6.24-2.89,1.36,1.44-3.31,6.05,6.25-2.94Z"/><path class="cls-4" d="M173.66,150.15a1.18,1.18,0,0,1,1.71.14,1.16,1.16,0,0,1,.08,1.7,1.2,1.2,0,0,1-1.75-.11A1.18,1.18,0,0,1,173.66,150.15Zm-1.39,1.66,1.42,1.5-5.18,4.89-1.41-1.5Z"/><path class="cls-4" d="M177,152.85l1.42,1.5-7.14,6.74-1.42-1.5Z"/><path class="cls-4" d="M179.7,155.74l1.42,1.5L174,164l-1.42-1.5Z"/><path class="cls-4" d="M181.86,158.83a1.18,1.18,0,0,1,1.72.14,1.16,1.16,0,0,1,.07,1.7,1.29,1.29,0,0,1-1.79-1.84Zm-1.39,1.66,1.42,1.5-5.17,4.89-1.42-1.5Z"/><path class="cls-4" d="M185.31,170.06l-2.95,2.79L181,171.44l.65-.6a2.34,2.34,0,0,1-2.21-.9c-1.15-1.21-1.16-2.57-.26-3.42s2.15-.81,3.64.76l1.13,1.2c.65-.61.66-1.35-.11-2.16a3.35,3.35,0,0,0-1.89-1l.54-1.53a5.56,5.56,0,0,1,2.74,1.64C186.75,167,186.88,168.58,185.31,170.06Zm-2.73-.26.53-.5-1-1c-.66-.7-1.13-.68-1.48-.35s-.32.91.18,1.44A1.51,1.51,0,0,0,182.58,169.8Z"/><path class="cls-4" d="M194.87,180.14l-3,2.8-1.41-1.5,2.73-2.58c.83-.79.86-1.53.29-2.14s-1.51-.73-2.44.14l-2.59,2.46-1.42-1.5,2.73-2.59c.84-.79.88-1.51.29-2.13s-1.5-.73-2.43.14l-2.59,2.46-1.42-1.5,5.17-4.89,1.36,1.43-.6.56a2.91,2.91,0,0,1,2.21,1,2.65,2.65,0,0,1,.76,2.51,3.21,3.21,0,0,1,2.62,1.06C196.32,177.09,196.44,178.65,194.87,180.14Z"/><path class="cls-4" d="M193.18,183.33l1.55-.52a4.83,4.83,0,0,0,1.2,2.27c.65.69,1.08.78,1.37.5.85-.8-3-3.1-.91-5.06,1-.93,2.51-.7,3.94.81a6,6,0,0,1,1.43,2.42l-1.54.51a4.09,4.09,0,0,0-1-1.85c-.64-.68-1.13-.76-1.4-.51-.88.84,2.93,3.15.89,5.08-1,.91-2.49.66-3.95-.89A6,6,0,0,1,193.18,183.33Z"/><path class="cls-4" d="M252.93,241.16c2.22-2.11,4.64-2.07,6.21-.41s1.47,4.08-.76,6.18-4.63,2.07-6.21.4S250.71,243.26,252.93,241.16Zm4,4.2c1.53-1.45,1.66-2.59.92-3.36s-1.87-.71-3.4.73-1.66,2.59-.93,3.36S255.37,246.8,256.9,245.36Z"/><path class="cls-4" d="M263.11,254.41c-1.37,1.3-3.3,1-4.65-.43-1.75-1.85-1.68-4.11.49-6.16,2.33-2.2,5-2,6.87,0a5,5,0,0,1,1.32,2.31l-1.69.51a3.08,3.08,0,0,0-.86-1.58,2.46,2.46,0,0,0-3.74-.05,3.14,3.14,0,0,1,2.17,1.1A2.94,2.94,0,0,1,263.11,254.41Zm-1.5-1.43a1.4,1.4,0,0,0-.08-2.1,1.4,1.4,0,1,0-2,1.92A1.4,1.4,0,0,0,261.61,253Z"/><path class="cls-4" d="M272.05,251.91l1.27,1.33-12.07,5.39L260,257.3Z"/><path class="cls-4" d="M271.19,264.68l-1.27,1.2-4.81-5.09,1-1,4.91.27a2.3,2.3,0,0,0,1.91-.47c.53-.5.49-1.15-.18-1.87a2.29,2.29,0,0,0-2-.75l-.34-1.83a4.31,4.31,0,0,1,3.78,1.49c1.42,1.5,1.6,3.23.37,4.39a3.73,3.73,0,0,1-3.19.88l-2.92-.17Z"/><path class="cls-4" d="M277.68,271.25l-1-1.1-1.41,1.34L273.79,270l1.42-1.34L271.78,265l1.05-1,7.27-.87,1.55,1.64-6.84.88,1.71,1.81,1.26-1.19,1.39,1.47L277.91,269l1,1.1Z"/><path class="cls-6" d="M309.27,188c3.8-5.84,2.31-13.6-2.79-18.34a18.12,18.12,0,0,0-5.31-3.48c-4.87-2-11.32-.55-13.88,4.07-2.09,3.77-1.24,8.47.22,12.53,1.53,4.25,4,8.59,8.21,10.24,4,1.59,8.92.13,11.94-3A13.54,13.54,0,0,0,309.27,188Z"/></g><g id="Wallet"><rect class="cls-6" x="128.85" y="190.37" width="290.61" height="210.91" rx="17.44"/><path class="cls-8" d="M419.46,207.81s0-.22,0-.63a14.13,14.13,0,0,0-.18-1.87,17.06,17.06,0,0,0-2.56-6.83,18.19,18.19,0,0,0-3.56-4,17.64,17.64,0,0,0-5.69-3.12c-.56-.19-1.15-.31-1.74-.47s-1.22-.19-1.85-.29l-1.93-.1H391.17l-104.27.08-72,0-40.12,0H148.47a27.61,27.61,0,0,0-5.31.3,18.43,18.43,0,0,0-5,1.75,18.62,18.62,0,0,0-4.25,3.24,17.11,17.11,0,0,0-3.07,4.41,16.36,16.36,0,0,0-1.56,5.18,43.53,43.53,0,0,0-.17,5.5v28.17q0,22.86,0,46.62v98a17.34,17.34,0,0,0,4.27,11.33,17,17,0,0,0,10.59,5.7,52.49,52.49,0,0,0,6.16.18H217l91.34,0,82.65,0h9.62a24.34,24.34,0,0,0,4.69-.31,17.21,17.21,0,0,0,4.39-1.48,20.66,20.66,0,0,0,2-1.14,19.14,19.14,0,0,0,1.8-1.43,16.83,16.83,0,0,0,3-3.43,17.17,17.17,0,0,0,2.78-8.44c.1-12,0-23.54.06-34.54,0-44,.07-79.64.09-104.26,0-12.31,0-21.86.05-28.35,0-3.24,0-5.71,0-7.37s0-2.51,0-2.51,0,.85,0,2.51,0,4.13,0,7.37c0,6.49,0,16,.05,28.35,0,24.62.05,60.24.08,104.26,0,11,.07,22.53,0,34.56A17.42,17.42,0,0,1,413.72,397a18.54,18.54,0,0,1-1.85,1.46,19.72,19.72,0,0,1-2.05,1.17,17.24,17.24,0,0,1-4.49,1.52,24.64,24.64,0,0,1-4.77.32h-9.62l-82.65,0H150.13a54.28,54.28,0,0,1-6.23-.18A17.49,17.49,0,0,1,133,395.49a17.85,17.85,0,0,1-4.4-11.68c0-33.58,0-66.37,0-98V239.15q0-11.42,0-22.6V211a43.26,43.26,0,0,1,.18-5.57,16.81,16.81,0,0,1,1.61-5.32,17.23,17.23,0,0,1,3.16-4.53,17.37,17.37,0,0,1,9.52-5.13l1.35-.2,1.35-.08c.91-.05,1.8,0,2.69,0H214.9l72,0,104.27.08,8.71,0h2l2,.1c.63.1,1.26.18,1.86.3s1.19.29,1.75.48a17.91,17.91,0,0,1,5.73,3.17,18.14,18.14,0,0,1,3.57,4.09,17.23,17.23,0,0,1,2.53,6.88,13.15,13.15,0,0,1,.15,1.87C419.46,207.59,419.46,207.81,419.46,207.81Z"/><path class="cls-8" d="M409.28,203.37a17.44,17.44,0,0,1,6,0,17.44,17.44,0,0,1-6,0Z"/><path class="cls-8" d="M384.8,203.37a72.16,72.16,0,0,1,12.24,0,72.16,72.16,0,0,1-12.24,0Z"/><path class="cls-8" d="M360.33,203.37a72,72,0,0,1,12.23,0,72,72,0,0,1-12.23,0Z"/><path class="cls-8" d="M335.85,203.37a72.16,72.16,0,0,1,12.24,0,72.16,72.16,0,0,1-12.24,0Z"/><path class="cls-8" d="M311.38,203.37a72,72,0,0,1,12.23,0,72,72,0,0,1-12.23,0Z"/><path class="cls-8" d="M286.9,203.37a36.7,36.7,0,0,1,6.12-.26,36.7,36.7,0,0,1,6.12.26,36.7,36.7,0,0,1-6.12.26A36.7,36.7,0,0,1,286.9,203.37Z"/><path class="cls-8" d="M262.43,203.37a36.62,36.62,0,0,1,6.11-.26,36.7,36.7,0,0,1,6.12.26,36.7,36.7,0,0,1-6.12.26A36.62,36.62,0,0,1,262.43,203.37Z"/><path class="cls-8" d="M238,203.37a36.7,36.7,0,0,1,6.12-.26,36.7,36.7,0,0,1,6.12.26,36.7,36.7,0,0,1-6.12.26A36.7,36.7,0,0,1,238,203.37Z"/><path class="cls-8" d="M213.47,203.37a36.7,36.7,0,0,1,6.12-.26,36.7,36.7,0,0,1,6.12.26,36.7,36.7,0,0,1-6.12.26A36.7,36.7,0,0,1,213.47,203.37Z"/><path class="cls-8" d="M189,203.37a36.7,36.7,0,0,1,6.12-.26,36.7,36.7,0,0,1,6.12.26,36.7,36.7,0,0,1-6.12.26A36.7,36.7,0,0,1,189,203.37Z"/><path class="cls-8" d="M164.52,203.37a36.7,36.7,0,0,1,6.12-.26,36.7,36.7,0,0,1,6.12.26,36.7,36.7,0,0,1-6.12.26A36.7,36.7,0,0,1,164.52,203.37Z"/><path class="cls-8" d="M146.29,209.37a34.12,34.12,0,0,1-.26-6l.26-.26h2.33l1.91.06a5.9,5.9,0,0,1,1.76.18,5.9,5.9,0,0,1-1.76.18l-1.91.06-1.12,0h-1.21l.26-.26A35.32,35.32,0,0,1,146.29,209.37Z"/><path class="cls-8" d="M146.29,231.8a29.81,29.81,0,0,1-.26-5.61,29.81,29.81,0,0,1,.26-5.61,30.86,30.86,0,0,1,.26,5.61A30.86,30.86,0,0,1,146.29,231.8Z"/><path class="cls-8" d="M146.29,254.23a29.81,29.81,0,0,1-.26-5.61,29.81,29.81,0,0,1,.26-5.61,30.86,30.86,0,0,1,.26,5.61A30.86,30.86,0,0,1,146.29,254.23Z"/><path class="cls-8" d="M146.29,276.66a29.9,29.9,0,0,1-.26-5.61,29.81,29.81,0,0,1,.26-5.61,30.86,30.86,0,0,1,.26,5.61A31,31,0,0,1,146.29,276.66Z"/><path class="cls-8" d="M146.29,299.08a60.55,60.55,0,0,1,0-11.21,60.55,60.55,0,0,1,0,11.21Z"/><path class="cls-8" d="M146.29,321.51a60.55,60.55,0,0,1,0-11.21,60.55,60.55,0,0,1,0,11.21Z"/><path class="cls-8" d="M146.29,343.94a60.55,60.55,0,0,1,0-11.21,60.55,60.55,0,0,1,0,11.21Z"/><path class="cls-8" d="M146.29,366.37a60.65,60.65,0,0,1,0-11.22,60.65,60.65,0,0,1,0,11.22Z"/><path class="cls-8" d="M152.29,383.58a34.12,34.12,0,0,1-6,.26c-.52-.52-.15-.14-.26-.26h0v-1.19c0-.38,0-.75,0-1.12,0-.66,0-1.29,0-1.91a5.67,5.67,0,0,1,.19-1.76,6.34,6.34,0,0,1,.18,1.76c0,.62,0,1.25.06,1.91,0,.37,0,.74,0,1.12,0,.2,0,.4,0,.6v.59h0c-.12-.11.26.26-.26-.26A35.32,35.32,0,0,1,152.29,383.58Z"/><path class="cls-8" d="M176.41,383.58a34.43,34.43,0,0,1-6,.26,34.43,34.43,0,0,1-6-.26,35.64,35.64,0,0,1,6-.26A35.64,35.64,0,0,1,176.41,383.58Z"/><path class="cls-8" d="M200.53,383.58a34.43,34.43,0,0,1-6,.26,34.43,34.43,0,0,1-6-.26,35.64,35.64,0,0,1,6-.26A35.64,35.64,0,0,1,200.53,383.58Z"/><path class="cls-8" d="M224.65,383.58a34.43,34.43,0,0,1-6,.26,34.43,34.43,0,0,1-6-.26,35.64,35.64,0,0,1,6-.26A35.64,35.64,0,0,1,224.65,383.58Z"/><path class="cls-8" d="M248.77,383.58a34.43,34.43,0,0,1-6,.26,34.43,34.43,0,0,1-6-.26,35.64,35.64,0,0,1,6-.26A35.64,35.64,0,0,1,248.77,383.58Z"/><path class="cls-8" d="M272.89,383.58a34.43,34.43,0,0,1-6,.26,34.43,34.43,0,0,1-6-.26,35.64,35.64,0,0,1,6-.26A35.64,35.64,0,0,1,272.89,383.58Z"/><path class="cls-8" d="M297,383.58a34.43,34.43,0,0,1-6,.26,34.43,34.43,0,0,1-6-.26,35.64,35.64,0,0,1,6-.26A35.64,35.64,0,0,1,297,383.58Z"/><path class="cls-8" d="M321.13,383.58a70.05,70.05,0,0,1-12.06,0,70.05,70.05,0,0,1,12.06,0Z"/><path class="cls-8" d="M345.25,383.58a70.05,70.05,0,0,1-12.06,0,70.05,70.05,0,0,1,12.06,0Z"/><path class="cls-8" d="M369.37,383.58a70.05,70.05,0,0,1-12.06,0,70.05,70.05,0,0,1,12.06,0Z"/><path class="cls-8" d="M393.5,383.58a70.05,70.05,0,0,1-12.06,0,70.05,70.05,0,0,1,12.06,0Z"/><path class="cls-8" d="M411.56,383.58a17.44,17.44,0,0,1-6,0,17.44,17.44,0,0,1,6,0Z"/><g class="cls-9"><path d="M229.13,307.34s.06,10-3,16.05-4,8.38-10.4,10.7-86.92,11.17-86.92,11.17V318Z"/></g><g class="cls-9"><path d="M227.68,269.64s.92-10.2-24.69-14c-29.29-4.33-74.14-9.66-74.14-9.66V265.3Z"/></g><rect class="cls-6" x="117.2" y="260.38" width="111.93" height="65.92" rx="14.31"/><path class="cls-8" d="M131.51,326.3l-.85,0a12,12,0,0,1-2.49-.33,14.59,14.59,0,0,1-3.81-1.48,14.17,14.17,0,0,1-4.21-3.63,14.35,14.35,0,0,1-2.85-6.35,20.83,20.83,0,0,1-.24-4c0-1.39,0-2.82,0-4.31,0-5.95,0-12.73,0-20.21,0-3.75,0-7.67,0-11.77a14.46,14.46,0,0,1,5.74-11.09A14.14,14.14,0,0,1,129,260.4a18.25,18.25,0,0,1,3.46-.24h18l64.44,0a14.59,14.59,0,0,1,11.32,5.4,14.6,14.6,0,0,1,3.19,7.76c.1,1.41.06,2.77.07,4.15,0,2.74,0,5.46,0,8.15v15.87c0,2.59,0,5.15,0,7.69,0,1.27,0,2.51-.05,3.8a15,15,0,0,1-.23,1.89,18.81,18.81,0,0,1-.5,1.82,14.54,14.54,0,0,1-10.42,9.47,13.09,13.09,0,0,1-1.75.31c-.59.05-1.18.08-1.76.1H204.5l-24.5,0-35.48-.08-9.65,0-2.5,0-.86,0,.86,0,2.5,0,9.65-.05,35.48-.08,24.5,0h6.72c2.27-.06,4.6.19,6.84-.4a14.11,14.11,0,0,0,10.08-9.18c.86-2.31.74-4.82.74-7.36v-7.69q0-7.79,0-15.87v-8.15c0-1.37,0-2.76-.07-4.1a14.07,14.07,0,0,0-3.07-7.48,15.22,15.22,0,0,0-3-2.79,15.61,15.61,0,0,0-3.75-1.8,16,16,0,0,0-4.13-.62l-64.44,0h-18a18,18,0,0,0-3.38.23,13.75,13.75,0,0,0-6,2.62,14.08,14.08,0,0,0-5.6,10.77c0,4.07,0,8,0,11.75,0,7.48,0,14.26,0,20.21,0,1.49,0,2.92,0,4.31a21.17,21.17,0,0,0,.22,3.95,14.1,14.1,0,0,0,2.76,6.26,14.22,14.22,0,0,0,7.88,5.13,12.91,12.91,0,0,0,2.47.39Z"/><circle class="cls-8" cx="195.41" cy="295.82" r="23.96"/><path class="cls-10" d="M201.55,315.4a25.17,25.17,0,0,0,5.72-3,20.46,20.46,0,0,0,4.84-5,18.79,18.79,0,0,0,2.59-16.3,20.58,20.58,0,0,0-3.06-6.25,24.88,24.88,0,0,0-4.5-4.61s.15.06.39.22a12,12,0,0,1,1.07.75,17.94,17.94,0,0,1,3.34,3.43,20.16,20.16,0,0,1,3.22,6.33,18.84,18.84,0,0,1-2.66,16.7,20,20,0,0,1-5,5,17.84,17.84,0,0,1-4.24,2.22,13,13,0,0,1-1.24.39A2.32,2.32,0,0,1,201.55,315.4Z"/></g><g id="Money"><path class="cls-6" d="M570.51,142.24a44.27,44.27,0,1,1-48-40A44.22,44.22,0,0,1,570.51,142.24Z"/><g class="cls-9"><path d="M559.92,142.13c-.21,0-.48-1.44-1.25-4a35.88,35.88,0,0,0-4.8-9.95,34.8,34.8,0,0,0-5-5.71,34,34,0,0,0-7.11-5,32.61,32.61,0,0,0-9-3.14,31.87,31.87,0,0,0-5-.58,36.52,36.52,0,0,0-5.21.22,35.7,35.7,0,0,0-5.1,1,32.28,32.28,0,0,0-4.74,1.76,32.83,32.83,0,0,0-8,5.2,33.74,33.74,0,0,0-5.72,6.51,34.34,34.34,0,0,0-3.48,6.73,35.92,35.92,0,0,0-2.28,10.81c-.15,2.64-.06,4.12-.27,4.14s-.57-1.42-.74-4.14a31.51,31.51,0,0,1,1.56-11.41,34.15,34.15,0,0,1,3.41-7.29,34.61,34.61,0,0,1,5.93-7.12,33.28,33.28,0,0,1,3.95-3.12,32.23,32.23,0,0,1,4.57-2.6,33.11,33.11,0,0,1,5.1-1.93,37,37,0,0,1,5.5-1.13,36.56,36.56,0,0,1,5.61-.22,33.18,33.18,0,0,1,5.42.66,34.56,34.56,0,0,1,9.64,3.52,33.82,33.82,0,0,1,12.51,11.76,31.17,31.17,0,0,1,4.24,10.71C560.13,140.61,560.07,142.11,559.92,142.13Z"/></g><g class="cls-9"><path d="M532,165.89l.61,5.84-5.22.54-.59-5.68c-5.2.22-10.32-.88-13.42-2.83l2.2-6.66a21.17,21.17,0,0,0,10.51,2.65l-.91-8.71c-5.93-.81-12.6-2.07-13.38-9.53-.58-5.53,2.95-10.7,11.09-12.49l-.6-5.79,5.22-.55.59,5.69A23.73,23.73,0,0,1,539,130.45l-1.94,6.69a21.53,21.53,0,0,0-8.26-1.88l.92,8.87c5.93.75,12.5,2,13.27,9.38C543.58,158.94,540.1,164,532,165.89Zm-7.61-22.52-.77-7.41c-2.7.91-3.64,2.54-3.46,4.26S522,142.88,524.4,143.37ZM534.68,155c-.19-1.83-1.81-2.66-4.13-3.21l.75,7.2C533.85,158.15,534.85,156.68,534.68,155Z"/></g><path class="cls-8" d="M492.83,149.28a1.23,1.23,0,0,1,.07.27c0,.2.08.46.14.79s.12.78.21,1.28a12.58,12.58,0,0,0,.34,1.74,33.87,33.87,0,0,0,4.29,10.38,34.93,34.93,0,0,0,4.83,6.08l1.58,1.43c.27.24.53.5.81.73l.89.66c.61.44,1.19.92,1.83,1.34s1.32.8,2,1.21a34.17,34.17,0,0,0,9.15,3.55,33.42,33.42,0,0,0,20.73-1.91,34.14,34.14,0,0,0,8.35-5.16l1.74-1.55c.56-.53,1-1.11,1.55-1.65.26-.27.51-.55.75-.81s.45-.58.68-.87c.43-.57.86-1.14,1.29-1.69a35.44,35.44,0,0,0,3.63-6.86,34,34,0,0,0,2.33-11,13.31,13.31,0,0,0,0-1.77c0-.51,0-.94,0-1.3s0-.6,0-.81a1.39,1.39,0,0,1,0-.27,1.14,1.14,0,0,1,0,.27c0,.21,0,.47.06.8s0,.8.07,1.3a11.5,11.5,0,0,1,0,1.79A32.91,32.91,0,0,1,558,158.37a34.23,34.23,0,0,1-3.62,7l-1.29,1.73c-.23.29-.44.6-.68.88l-.76.83c-.51.54-1,1.14-1.57,1.67L548.35,172a34.29,34.29,0,0,1-8.46,5.27,33.74,33.74,0,0,1-21,1.94,34.6,34.6,0,0,1-9.28-3.64l-2-1.23c-.65-.42-1.24-.92-1.85-1.37l-.89-.67c-.29-.23-.55-.5-.83-.74l-1.59-1.46a35.06,35.06,0,0,1-4.83-6.2,33,33,0,0,1-4.18-10.53,12.36,12.36,0,0,1-.3-1.75c-.06-.51-.11-.94-.16-1.3s-.06-.59-.09-.8A1.37,1.37,0,0,1,492.83,149.28Z"/><path class="cls-6" d="M508.13,272.76a25.72,25.72,0,1,1-12-34.28A25.7,25.7,0,0,1,508.13,272.76Z"/><g class="cls-9"><path d="M502.88,269.55a11.43,11.43,0,0,1,.56-2.35,21,21,0,0,0,.57-6.4,20.72,20.72,0,0,0-.79-4.33,19.79,19.79,0,0,0-2.07-4.59,18.36,18.36,0,0,0-1.59-2.21,18.92,18.92,0,0,0-2-2,18,18,0,0,0-2.34-1.78,19.34,19.34,0,0,0-2.66-1.44,20.16,20.16,0,0,0-2.85-1,19.57,19.57,0,0,0-2.89-.54,19.3,19.3,0,0,0-2.83-.09,18.26,18.26,0,0,0-2.71.31,19.22,19.22,0,0,0-4.79,1.54,20,20,0,0,0-3.74,2.32,20.53,20.53,0,0,0-4.36,4.72c-.86,1.27-1.26,2-1.37,2a5.82,5.82,0,0,1,.87-2.29,17.88,17.88,0,0,1,4.18-5.22,19.39,19.39,0,0,1,3.87-2.62,19.94,19.94,0,0,1,11-2.11,20.26,20.26,0,0,1,3.12.56A22.1,22.1,0,0,1,493.2,243a20.29,20.29,0,0,1,2.87,1.56,20.32,20.32,0,0,1,4.6,4.16,19.55,19.55,0,0,1,1.66,2.41,20.16,20.16,0,0,1,2.09,5,19.82,19.82,0,0,1,.65,4.63,18.14,18.14,0,0,1-1.07,6.61A6,6,0,0,1,502.88,269.55Z"/></g><g class="cls-9"><path d="M481.88,273.09l-1.43,3.09-2.77-1.28,1.4-3a14.52,14.52,0,0,1-5.86-5.41l3.09-2.67a12.24,12.24,0,0,0,4.45,4.45l2.15-4.61c-2.73-2.17-5.68-4.79-3.84-8.74,1.36-2.93,4.65-4.46,9.25-2.93l1.43-3.07,2.76,1.28-1.4,3a13.79,13.79,0,0,1,4.83,4.29l-3,2.76a12.4,12.4,0,0,0-3.56-3.4l-2.18,4.7c2.73,2.14,5.63,4.73,3.82,8.63C489.73,273.06,486.47,274.58,481.88,273.09Zm2.91-13.51,1.83-3.92c-1.62-.35-2.58.18-3,1.09S483.76,258.63,484.79,259.58Zm1.67,8.87c.45-1-.11-1.86-1.11-2.83l-1.77,3.82C485.1,269.77,486,269.34,486.46,268.45Z"/></g><path class="cls-8" d="M467.29,253.13s-.31.81-.8,2.27a19.52,19.52,0,0,0-.91,6.44,20.48,20.48,0,0,0,.6,4.46,20.7,20.7,0,0,0,1.95,4.76,19.69,19.69,0,0,0,3.49,4.47,19.43,19.43,0,0,0,10.85,5.2,20.22,20.22,0,0,0,5.67-.08,20.87,20.87,0,0,0,4.93-1.48,20.24,20.24,0,0,0,3.85-2.32,20,20,0,0,0,4.45-4.75c.83-1.3,1.22-2.07,1.27-2a2.8,2.8,0,0,1-.25.57,16.1,16.1,0,0,1-.85,1.58,18.91,18.91,0,0,1-4.39,4.93,20.61,20.61,0,0,1-3.9,2.43,21,21,0,0,1-5,1.55,20.15,20.15,0,0,1-5.82.11,21.2,21.2,0,0,1-6-1.77,21,21,0,0,1-5.13-3.56,20.11,20.11,0,0,1-3.56-4.6,20.94,20.94,0,0,1-1.95-4.9,20.43,20.43,0,0,1-.55-4.55,18.75,18.75,0,0,1,1.09-6.51,13.34,13.34,0,0,1,.7-1.66A2.21,2.21,0,0,1,467.29,253.13Z"/><path class="cls-6" d="M83.53,269.08A42,42,0,1,1,36,233.67,41.93,41.93,0,0,1,83.53,269.08Z"/><g class="cls-9"><path d="M73.49,269.53c-.19,0-.53-1.34-1.39-3.69A33.8,33.8,0,0,0,67,256.67a32.74,32.74,0,0,0-5-5.14,31.77,31.77,0,0,0-7-4.32,30.37,30.37,0,0,0-4.17-1.55,31.36,31.36,0,0,0-9.31-1.24,34.29,34.29,0,0,0-4.91.48,33.48,33.48,0,0,0-4.78,1.24,31.58,31.58,0,0,0-4.4,1.91,31.24,31.24,0,0,0-7.31,5.35,32.24,32.24,0,0,0-5.07,6.46,33.13,33.13,0,0,0-3,6.56,34,34,0,0,0-1.59,10.35c0,2.51.15,3.91,0,3.94s-.62-1.32-.91-3.89a29.37,29.37,0,0,1,.88-10.88,32.12,32.12,0,0,1,2.84-7.08,32.54,32.54,0,0,1,5.24-7.05,32.79,32.79,0,0,1,7.77-5.87,33,33,0,0,1,4.73-2.1,36.52,36.52,0,0,1,5.16-1.35,35.44,35.44,0,0,1,5.3-.5,31.44,31.44,0,0,1,5.16.34,30.79,30.79,0,0,1,4.87,1.1A30,30,0,0,1,56,245.16a32.15,32.15,0,0,1,12.46,10.48A29.84,29.84,0,0,1,73,265.56C73.62,268.07,73.63,269.51,73.49,269.53Z"/></g><g class="cls-9"><path d="M48.31,293.48l.88,5.51-4.91.78-.86-5.35c-4.91.48-9.82-.29-12.86-2L32.3,286a20.09,20.09,0,0,0,10.09,2l-1.31-8.2c-5.67-.45-12-1.3-13.18-8.32-.83-5.21,2.24-10.29,9.86-12.41l-.88-5.46,4.92-.79.86,5.36a22.53,22.53,0,0,1,10.45,1.4L51.62,266a20.4,20.4,0,0,0-7.93-1.36L45,273c5.66.4,11.94,1.26,13,8.19C58.9,286.3,55.87,291.32,48.31,293.48Zm-8.39-20.92-1.12-7c-2.51,1-3.31,2.6-3,4.22S37.65,272.21,39.92,272.56ZM50.27,283c-.28-1.72-1.85-2.42-4.08-2.82L47.27,287C49.64,286.07,50.52,284.62,50.27,283Z"/></g><path class="cls-8" d="M10.34,279.8a1.23,1.23,0,0,1,.07.25c.05.2.11.44.18.74s.16.74.26,1.21a14.61,14.61,0,0,0,.42,1.63,32.22,32.22,0,0,0,4.61,9.6,33.44,33.44,0,0,0,4.89,5.5L22.34,300c.27.21.53.44.81.64l.88.58c.59.38,1.17.81,1.8,1.17l1.94,1a32.59,32.59,0,0,0,8.85,2.88,34.39,34.39,0,0,0,10,.12,34.74,34.74,0,0,0,9.54-3,32.47,32.47,0,0,0,7.63-5.33l1.56-1.56c.51-.52.93-1.1,1.39-1.64l.67-.81c.22-.27.4-.57.59-.85.39-.56.76-1.12,1.14-1.67a33.78,33.78,0,0,0,3.08-6.69,32.11,32.11,0,0,0,1.63-10.52,11,11,0,0,0-.07-1.68q0-.7-.09-1.23c0-.31,0-.56-.05-.76a.86.86,0,0,1,0-.26.79.79,0,0,1,.05.25c0,.21.06.45.1.76s.09.75.15,1.23a12,12,0,0,1,.11,1.69A31.05,31.05,0,0,1,72.56,285a32.47,32.47,0,0,1-3.07,6.79l-1.13,1.71c-.2.28-.38.59-.6.86l-.67.83c-.46.55-.89,1.14-1.4,1.67l-1.58,1.59a32.48,32.48,0,0,1-7.74,5.43A34.34,34.34,0,0,1,46.69,307a34.79,34.79,0,0,1-10.15-.12,32.91,32.91,0,0,1-9-3l-2-1.07c-.64-.36-1.22-.8-1.82-1.19l-.89-.6c-.28-.2-.54-.44-.82-.65l-1.58-1.31a32.74,32.74,0,0,1-4.9-5.61,31.22,31.22,0,0,1-4.5-9.76A10.59,10.59,0,0,1,10.7,282c-.08-.47-.15-.88-.22-1.22l-.12-.75A1,1,0,0,1,10.34,279.8Z"/></g><g id="Character"><path class="cls-11" d="M456.09,213.45s-.07-6.66-.36-6.71l-13.67,3c-.15.87-1.87,11.79-1.58,12.85l15.39,4.27S456.09,213.84,456.09,213.45Z"/><path class="cls-11" d="M456.11,225.89a.83.83,0,0,0,.07-.31c.15-1.49.06-8-.74-8.27s-3.11.2-3.26,1.06.37,8.17.37,8.17.15,1.16,2.09,1.44C455.84,228.15,456.11,225.89,456.11,225.89Z"/><path class="cls-11" d="M452.21,228.22a.62.62,0,0,0,.06-.3c.16-1.49.07-8-.73-8.27s-3.11.2-3.26,1.06.37,8.17.37,8.17.15,1.16,2.09,1.44C451.94,230.49,452.21,228.22,452.21,228.22Z"/><path class="cls-11" d="M448.39,229.39s.05-.12.07-.3c.16-1.49.06-8-.73-8.27s-3.12.2-3.27,1.05.37,8.18.37,8.18.15,1.15,2.09,1.43C448.12,231.66,448.39,229.39,448.39,229.39Z"/><path class="cls-11" d="M444.59,230.49s.05-.12.07-.3c.16-1.49.06-8-.73-8.27s-3.11.19-3.26,1.05.36,8.18.36,8.18.16,1.15,2.1,1.43C444.33,232.75,444.59,230.49,444.59,230.49Z"/><path class="cls-12" d="M452.15,220.27a12.71,12.71,0,0,1,.3,3.16,12.11,12.11,0,0,1-.1,3.14,12.75,12.75,0,0,1-.3-3.17A12,12,0,0,1,452.15,220.27Z"/><path class="cls-12" d="M448.31,220.25a24.06,24.06,0,0,1,.37,4.5,23.72,23.72,0,0,1-.05,4.51,25.73,25.73,0,0,1-.36-4.5A25.36,25.36,0,0,1,448.31,220.25Z"/><g class="cls-13"><path class="cls-12" d="M444.42,220.57a25.87,25.87,0,0,1,.36,4.5,25.56,25.56,0,0,1,0,4.52,25.25,25.25,0,0,1-.37-4.5A26,26,0,0,1,444.42,220.57Z"/></g><path class="cls-11" d="M442,210.14s-5.41,12.3-4.62,13.06a17.75,17.75,0,0,0,3.33,1.94Z"/><path class="cls-11" d="M412,45.19l-4,46-23-1.84c-.15-2.69,0-13.1,0-13.1s-9.59-1.49-9.71-11.07c-.05-4.66.61-14.27,1.31-22.94A17.74,17.74,0,0,1,395.4,26h0A17.74,17.74,0,0,1,412,45.19Z"/><path class="cls-12" d="M385.07,76.11a22.2,22.2,0,0,0,12.49-3.55s-2.95,6.9-12.51,6Z"/><path class="cls-8" d="M379.24,49a1.38,1.38,0,0,0,1.32,1.38A1.3,1.3,0,0,0,382,49.1a1.36,1.36,0,0,0-1.31-1.38A1.32,1.32,0,0,0,379.24,49Z"/><path class="cls-8" d="M378.74,47.07c.17.18,1.21-.59,2.68-.58s2.55.74,2.71.56-.09-.41-.56-.75a3.83,3.83,0,0,0-2.17-.67,3.72,3.72,0,0,0-2.14.69C378.81,46.67,378.66,47,378.74,47.07Z"/><path class="cls-8" d="M393.74,49a1.38,1.38,0,0,0,1.32,1.38,1.3,1.3,0,0,0,1.41-1.24,1.36,1.36,0,0,0-1.31-1.38A1.32,1.32,0,0,0,393.74,49Z"/><path class="cls-8" d="M393.22,47.35c.17.17,1.2-.59,2.67-.59s2.56.74,2.72.56-.1-.4-.57-.74a3.7,3.7,0,0,0-2.17-.67,3.52,3.52,0,0,0-2.13.69C393.29,46.94,393.13,47.27,393.22,47.35Z"/><path class="cls-8" d="M387.87,58.27a9.43,9.43,0,0,0-2.39-.43c-.38,0-.73-.12-.8-.37a2,2,0,0,1,.25-1.12l1.12-2.86c1.54-4.08,2.66-7.43,2.49-7.49s-1.55,3.19-3.09,7.27l-1.07,2.88a2.21,2.21,0,0,0-.19,1.48.92.92,0,0,0,.62.54,2.23,2.23,0,0,0,.64.09A10,10,0,0,0,387.87,58.27Z"/><path class="cls-8" d="M392.2,59.29c-.23,0-.24,1.58-1.61,2.71s-3.07,1-3.08,1.19.38.31,1.1.33a4,4,0,0,0,2.57-.9,3.43,3.43,0,0,0,1.25-2.28C392.49,59.67,392.31,59.28,392.2,59.29Z"/><path class="cls-8" d="M392.84,41.57c.14.4,1.61.22,3.34.42s3.12.68,3.35.32c.11-.17-.14-.54-.7-.93a5.51,5.51,0,0,0-2.49-.87,5.59,5.59,0,0,0-2.61.3C393.09,41.07,392.77,41.38,392.84,41.57Z"/><path class="cls-8" d="M379.28,42.81c.26.33,1.27,0,2.5,0s2.25.22,2.49-.13c.1-.17-.06-.5-.51-.82a3.48,3.48,0,0,0-2-.54,3.34,3.34,0,0,0-2,.67C379.31,42.3,379.17,42.65,379.28,42.81Z"/><path class="cls-8" d="M414.1,39.26c-.55,4.66-1.82,10.55-2.19,15.31a2.32,2.32,0,0,1-.34,1.25c-.68.91-2.31,2.87-3.14,2.09-2-1.88-2.8-7.14-3.21-9.87s-.33-5.51-.7-8.25l0-.19a7.55,7.55,0,0,0-2.79-4.86,5.25,5.25,0,0,0-1.12-.6c-2.82-1-7.51.85-10.32,1.87-1.44.53-2.84,1.18-4.25,1.81a9.92,9.92,0,0,1-9.89-.83c-1.71-1.23-1.86-5.14-1.11-7.61,2-6.68,10.41-9,21.18-6.42S415.19,29.69,414.1,39.26Z"/><path class="cls-11" d="M408.81,49.53c.16-.07,6.58-2,6.37,4.6s-6.74,5-6.75,4.8S408.81,49.53,408.81,49.53Z"/><path class="cls-12" d="M410.52,56.51s.11.09.3.18a1.17,1.17,0,0,0,.85.05,2.82,2.82,0,0,0,1.39-2.49,3.82,3.82,0,0,0-.27-1.65,1.3,1.3,0,0,0-.83-.9.58.58,0,0,0-.68.29c-.1.18-.06.31-.1.32s-.13-.11-.07-.38a.7.7,0,0,1,.27-.4.85.85,0,0,1,.64-.15,1.62,1.62,0,0,1,1.16,1,3.93,3.93,0,0,1,.33,1.84,3,3,0,0,1-1.75,2.78,1.24,1.24,0,0,1-1-.21C410.52,56.67,410.49,56.53,410.52,56.51Z"/><path class="cls-14" d="M414,39.71a10.08,10.08,0,0,1-9.41.17,29.37,29.37,0,0,0,4.72.56A28.67,28.67,0,0,0,414,39.71Z"/><path class="cls-14" d="M413.76,41.58a7.54,7.54,0,0,1-4.48,1.25,7.62,7.62,0,0,1-4.54-1.08,16.09,16.09,0,0,0,9-.17Z"/><path class="cls-8" d="M368.17,368l4.26,19.6s-18.5,10.91-18.06,14.61l38.3-6.88-5.38-30.82Z"/><path class="cls-14" d="M392.67,395.29,392,392.2,355.53,400s-1.57,1.05-1.16,2.21Z"/><path class="cls-8" d="M411.74,370.12l.63,20.05S392.2,397.54,392,401.26l38.92.17.3-31.28Z"/><g class="cls-15"><path class="cls-14" d="M430.88,401.43l-.09-3.15-37.28,1s-1.74.75-1.55,2Z"/></g><path class="cls-8" d="M366.08,384.78s-19.95-97.87-20-99.83l35.64-18.84L395.55,381Z"/><path class="cls-8" d="M411,388.05,383.4,218.43V181.85L421,185.34c.48,1.43,12.8,202.94,12.8,202.94l-3.88-.23H411"/><polygon class="cls-8" points="361.73 179.26 346.11 284.95 381.04 276.48 395.27 182.7 361.73 179.26"/><path class="cls-14" d="M394,188.22s0,.18,0,.52.09.86.16,1.52c.16,1.35.38,3.31.67,5.82.59,5.06,1.49,12.37,2.67,21.4,2.33,18.05,5.87,43,9.66,70.47,1.9,13.76,3.64,26.88,5.12,38.82.39,3,.69,5.9,1.11,8.73s.85,5.55,1.26,8.2c.8,5.29,1.55,10.22,2.23,14.72,1.35,9,2.42,16.29,3.12,21.33.35,2.52.61,4.48.76,5.81.08.66.13,1.17.15,1.51a2.76,2.76,0,0,1,0,.39c0,.11-.06,0-.06,0v0s.08,0,.07,0a1.47,1.47,0,0,0,0-.39c0-.34,0-.85-.1-1.52-.12-1.34-.35-3.3-.67-5.83-.65-5.05-1.66-12.34-3-21.35-.67-4.51-1.4-9.44-2.18-14.73q-.6-4-1.23-8.2c-.41-2.82-.71-5.74-1.09-8.72-1.46-12-3.19-25.08-5.08-38.84-3.8-27.52-7.39-52.41-9.81-70.45-1.19-9-2.15-16.31-2.82-21.37-.32-2.51-.58-4.47-.75-5.82l-.21-1.51C394.08,188.39,394,188.22,394,188.22Z"/><path class="cls-14" d="M373,383.87s0-.17-.07-.5-.14-.84-.24-1.47c-.22-1.31-.54-3.2-1-5.63l-3.63-20.69L356,287.35a15.53,15.53,0,0,1-.29-4.94c.2-1.63.48-3.29.72-4.91q.75-4.89,1.49-9.62c1-6.3,2-12.38,2.93-18.16,1.93-11.57,3.78-22,5.44-30.67s3.12-15.73,4.23-20.57c.52-2.42,1-4.29,1.29-5.56.15-.62.26-1.1.34-1.44s.09-.5.09-.5-.05.16-.14.48-.22.82-.38,1.44c-.33,1.26-.83,3.12-1.38,5.54-1.17,4.82-2.68,11.84-4.38,20.55s-3.59,19.09-5.54,30.66c-1,5.78-2,11.85-3,18.16-.49,3.15-1,6.36-1.49,9.61-.25,1.64-.52,3.26-.73,4.94a16.44,16.44,0,0,0,.3,5.09c4.79,26.62,9.13,50.72,12.28,68.19,1.59,8.71,2.88,15.77,3.78,20.66.45,2.43.8,4.31,1.05,5.62.12.62.21,1.11.28,1.45S373,383.87,373,383.87Z"/><path class="cls-14" d="M383.4,217.24c-.14,0,1.49,11,3.63,24.47s4,24.42,4.11,24.4-1.5-11-3.63-24.48S383.53,217.22,383.4,217.24Z"/><path class="cls-14" d="M410.62,387.75a3.52,3.52,0,0,0,.91.16c.58.07,1.43.15,2.47.23,2.1.16,5,.32,8.2.37s6.11,0,8.21-.1c1-.05,1.89-.1,2.48-.15a3,3,0,0,0,.91-.13,26,26,0,0,0-3.4-.06c-2.1,0-5,0-8.19,0s-6.09-.15-8.19-.23A25.51,25.51,0,0,0,410.62,387.75Z"/><path class="cls-14" d="M366.08,384.78a5.73,5.73,0,0,0,1.17-.06l3.16-.34c2.68-.3,6.36-.76,10.43-1.29s7.75-1,10.41-1.42l3.15-.48a6.26,6.26,0,0,0,1.15-.23,4.54,4.54,0,0,0-1.17.05c-.75.07-1.83.18-3.17.33-2.67.3-6.36.75-10.43,1.28s-7.75,1-10.41,1.42l-3.15.49A4.81,4.81,0,0,0,366.08,384.78Z"/><path class="cls-14" d="M313.63,116.79l22.47,17.08S357,98.22,358.85,96s6.55-4.59,6.55-4.59l-2.6,45.72S351.49,166,336,164.42c-11.88-1.2-32.42-32.55-32.42-32.55Z"/><g class="cls-7"><path d="M335.68,133.34a19.72,19.72,0,0,0-2.27,16.43,2.42,2.42,0,0,0,.91,1.45,1.77,1.77,0,0,0,2.25-.75,5.18,5.18,0,0,0,.58-2.53,5.79,5.79,0,0,0,1.66,2.18,2,2,0,0,0,2.53-.09c.74-.82.33-2.12-.12-3.14q-2.87-6.51-5.74-13"/></g><path class="cls-8" d="M319.28,121.91c.14.09-2.16,4-5.15,8.62s-5.51,8.38-5.65,8.29,2.16-3.95,5.14-8.62S319.14,121.82,319.28,121.91Z"/><path class="cls-8" d="M313.56,121.28c-.06,0,.23-.35.74-.16a1,1,0,0,1,.6.71,1,1,0,0,1-.54,1,.94.94,0,0,1-1.4-1c.13-.53.54-.6.55-.52s-.14.25-.12.57.28.66.69.44a.45.45,0,0,0,0-.81C313.85,121.3,313.6,121.36,313.56,121.28Z"/><path class="cls-8" d="M336.12,144.71a12.4,12.4,0,0,1-1-5.39c-.05-3.07.71-5.47.86-5.42s-.31,2.43-.25,5.41S336.3,144.66,336.12,144.71Z"/><path class="cls-8" d="M340.48,144.55c-.14.09-1.61-2.09-2.88-5.05a18.31,18.31,0,0,1-1.7-5.56c.17-.05,1,2.4,2.26,5.32S340.63,144.46,340.48,144.55Z"/><path class="cls-14" d="M412.41,87.07,409,80.35H384.44L380.58,88,365.4,91.41l-6.54,97.9a6.68,6.68,0,0,0,.86,3.55h0l59.69,2.29,2.43,1c2.15-1.32.81-6.77.83-9.33l.77-48.49,11.81-38.73Z"/><g class="cls-7"><path d="M386.94,90.46l4.34-4.34q2.45,5.88,4.88,11.77a123.78,123.78,0,0,0,16-11.19L395.61,92q-2.1-5.57-4.19-11.12a42.29,42.29,0,0,1-4.16,9.62"/></g><path class="cls-14" d="M456.2,209.82l-16.09.83,0-46.17-16.64-26.16,11.81-38.73c2.43,1,20.76,47,25.43,59.48a14.08,14.08,0,0,1,.87,5.64Z"/><path class="cls-8" d="M365.4,111.62c.16,0-.64,9.48-1.79,21.14s-2.22,21.1-2.39,21.09.63-9.48,1.79-21.15S365.23,111.6,365.4,111.62Z"/><path class="cls-8" d="M391.41,80.92a60.31,60.31,0,0,1-2.93,7.87l-.33.79a1.86,1.86,0,0,1-.53.81,1,1,0,0,1-1.07.07,5.76,5.76,0,0,1-.68-.43l-2.21-1.49a9.81,9.81,0,0,1-2-1.51,10,10,0,0,1,2.18,1.15l2.28,1.38c.44.27.88.6,1.08.36a5,5,0,0,0,.67-1.37C389.69,84.27,391.25,80.85,391.41,80.92Z"/><path class="cls-8" d="M411,86.91a27.23,27.23,0,0,1-3.75,1.51c-2.35.86-5.6,2-9.2,3.25l-2,.67-.26.09-.11-.26c-1.27-3.07-2.36-5.79-3.12-7.74a20.81,20.81,0,0,1-1.12-3.19,19.8,19.8,0,0,1,1.48,3c.86,1.92,2,4.61,3.31,7.66l-.37-.16,2-.68c3.61-1.23,6.88-2.32,9.26-3.07A26.39,26.39,0,0,1,411,86.91Z"/><path class="cls-8" d="M432.72,101c0,.18-3.41,1.11-7.42,2.91s-7,3.72-7.14,3.56A8.3,8.3,0,0,1,420,106a37.48,37.48,0,0,1,10.37-4.61A7.56,7.56,0,0,1,432.72,101Z"/><path class="cls-8" d="M391.41,80.92a1.11,1.11,0,0,1,0,.29c0,.23,0,.51,0,.86,0,.75.07,1.87.08,3.31,0,2.87,0,7-.18,12.16-.37,10.27-1.66,24.42-3.7,40-1,7.77-2.1,15.16-2.84,21.9a143,143,0,0,0-1,18,92.68,92.68,0,0,0,.95,12.09c.18,1.42.41,2.51.52,3.26.05.35.09.63.13.85a.15.15,0,1,1-.07,0c0-.23-.11-.5-.18-.84-.15-.75-.42-1.83-.63-3.25a82.56,82.56,0,0,1-1.15-12.12,136.33,136.33,0,0,1,.84-18c.72-6.76,1.8-14.15,2.79-21.92,2.05-15.52,3.4-29.64,3.87-39.89.26-5.12.34-9.28.39-12.14,0-1.4,0-2.5,0-3.31,0-.35,0-.63,0-.86A1.11,1.11,0,0,1,391.41,80.92Z"/><path class="cls-8" d="M457.07,202.75c0,.17-3.82.12-8.52-.11s-8.51-.55-8.5-.72,3.82-.12,8.53.11S457.08,202.58,457.07,202.75Z"/><path class="cls-8" d="M442.8,204.55c.05.07,0,.23.05.44s.26.33.47.17.14-.36-.06-.5-.36-.08-.42-.14.11-.34.54-.27a.75.75,0,0,1,.59.46.8.8,0,0,1-.26.92.81.81,0,0,1-1,.07.79.79,0,0,1-.33-.68C442.45,204.58,442.77,204.48,442.8,204.55Z"/><g class="cls-7"><path d="M423.67,138.2q-2.61-4.74-5.24-9.47a130.21,130.21,0,0,0,3.46,49.94l1.62-40.26"/></g><path class="cls-8" d="M397.05,120.8a5.32,5.32,0,0,1,.95-.06l2.8-.07c2.42,0,5.93-.11,10.15-.13h.28l0,.29c-.27,3.69-.58,8-.92,12.54v.17l-.15.07-.62.33-6.8,3.58-.17.09-.15-.13-6.31-5.15-.1-.09v-.12c.3-3.39.54-6.22.72-8.31.09-.91.17-1.65.23-2.25a3.73,3.73,0,0,1,.11-.75,6.54,6.54,0,0,1,0,.86c0,.61-.07,1.37-.11,2.31-.11,2-.27,4.83-.46,8.17l-.09-.21,6.37,5.09-.32,0,6.78-3.59.62-.33-.16.24c.37-4.56.71-8.84,1-12.53l.27.29c-4.11,0-7.55-.09-10-.14l-2.86-.07A8,8,0,0,1,397.05,120.8Z"/><path class="cls-8" d="M367.54,193.34c0,.17-1.26-.06-2.07-1.27s-.56-2.44-.4-2.39.21,1,.91,2S367.6,193.18,367.54,193.34Z"/><path class="cls-8" d="M369.09,192.7a5.53,5.53,0,0,1-1.52-6c.18,0,0,1.44.43,3.09S369.24,192.59,369.09,192.7Z"/><path class="cls-8" d="M414.15,186c.15,0,.29,2.35-.94,4.93s-3.12,4-3.2,3.86,1.52-1.67,2.65-4.12S414,186,414.15,186Z"/><path class="cls-11" d="M312.37,118.66S294.2,104.89,291.65,104c-4.23-1.53-5.25-1.13-5.25-1.13l10,10.75s-10.54,3.55-11.3,4-1.13,2.74,1.43,2.74c2.11,0,12.22.23,12.22.23l8.33,6.09Z"/></g><g id="Speech_Bubble" data-name="Speech Bubble"><path class="cls-8" d="M473.23,0h.6l1.76.05c.39,0,.82,0,1.3.06l1.55.22,1.82.26,2,.5a33,33,0,0,1,9.82,4.29A34.65,34.65,0,0,1,508,31.44a35.7,35.7,0,0,1,.1,4.75c-.06.81,0,1.63-.16,2.44s-.24,1.62-.37,2.44a34.83,34.83,0,0,1-3.3,9.67A37.11,37.11,0,0,1,498,59.43a36.32,36.32,0,0,1-9.1,6.54,32.85,32.85,0,0,1-11.09,3.4,20.74,20.74,0,0,1-3,.26,27.08,27.08,0,0,1-3,.05,35.06,35.06,0,0,1-17.91-5.77l.36,0-12.15,4.88-.72.29.21-.75c1.22-4.46,2.42-8.79,3.57-13l.06.32a34.83,34.83,0,0,1-6.48-14.83,31.71,31.71,0,0,1-.47-7.61,24.4,24.4,0,0,1,.34-3.65c.09-.59.19-1.19.28-1.78s.28-1.15.42-1.72A34.75,34.75,0,0,1,452.91,6.35,33.34,33.34,0,0,1,461,2.09l1.82-.65L464.52,1l1.58-.4c.5-.09,1-.15,1.45-.22.92-.11,1.73-.27,2.43-.31L471.77,0l1.09,0h.37a1.61,1.61,0,0,1-.37,0l-1.09.09L470,.27c-.7,0-1.5.23-2.41.37A34.53,34.53,0,0,0,440,26.26c-.13.56-.31,1.11-.41,1.69s-.17,1.16-.26,1.74a23.6,23.6,0,0,0-.32,3.59,30.9,30.9,0,0,0,.49,7.45,34.22,34.22,0,0,0,6.39,14.52l.11.14-.05.18q-1.71,6.3-3.54,13l-.51-.46L454,63.22l.19-.08.17.11a34.24,34.24,0,0,0,17.51,5.64,26,26,0,0,0,2.93,0,21.39,21.39,0,0,0,2.89-.24,32.4,32.4,0,0,0,10.85-3.32,35.6,35.6,0,0,0,8.91-6.38,36.8,36.8,0,0,0,6.2-8.49A34.09,34.09,0,0,0,506.93,41c.12-.81.25-1.61.37-2.4s.11-1.6.16-2.38a34.54,34.54,0,0,0-.07-4.67A34.34,34.34,0,0,0,491.87,5.75a32.92,32.92,0,0,0-9.66-4.36l-2-.53-1.79-.3L476.87.31c-.47-.06-.91-.07-1.29-.1L473.83.08A2.53,2.53,0,0,1,473.23,0Z"/><path class="cls-6" d="M484.64,43.1l-.41,0-1.18,0-4.37.07L464,43.36h-.12v-.12c-.12-.78-.24-1.6-.36-2.43-1-7.11-1.92-13.46-2.51-17.61l.09.08-3.91,0h-1a1.65,1.65,0,0,1-.36,0l.36,0,1,0,3.9-.07h.08v.08c.62,4.14,1.56,10.49,2.62,17.59.12.83.24,1.65.35,2.43l-.14-.12,14.67,0,4.37,0h1.19Z"/><path class="cls-6" d="M464.31,43.51l0,0h-.49L463.7,43l0,0h0l0-.12-.29-2L460.9,23.4l-4.76,0c-.42,0-.49,0-.49-.15v0l0,0s.05-.05.45-.07l1,0,3.67-.06v-.09l.1.09h.34l0,.18a1,1,0,0,0,0,.16l.1.09h-.09c.62,4.14,1.54,10.38,2.58,17.34l.32,2.21,14.44,0,5.56,0c.47,0,.53,0,.53.15s-.05.13-.53.15l-1.18,0-4.37.07-14.37.13Zm0-.3v0l3.9,0ZM463,36.12,464,43h0l-.32-2.17C463.42,39.19,463.19,37.63,463,36.12Z"/><path class="cls-6" d="M463.38,39s0,0,.1,0l.31,0,1.18,0,4.41-.06,15.23-.14-.13.11c.44-2.56.91-5.34,1.4-8.21.25-1.48.5-2.93.73-4.31l.14.16-17.95.06h-5.31l-1.43,0h-.37l.37,0,1.43,0,5.31-.07,17.95-.15h.16l0,.17c-.23,1.38-.48,2.83-.73,4.31-.49,2.87-1,5.64-1.41,8.21l0,.11h-.11l-15.23,0L465,39h-1.59Z"/><path class="cls-6" d="M469.38,39.12l-5.9,0c-.11,0-.22,0-.22-.14s.11-.13.22-.14l1.48,0,4.42-.06,15-.14,1.36-8c.24-1.37.47-2.71.69-4l-17.64.05-7.12,0c-.13,0-.25,0-.25-.14s.12-.13.25-.14l1.8,0,5.32-.07L486.53,26V26l0,.05h.48l-.08.48,0,0h0l-2.05,12h0l0,0-.08.48h-.49l0,0v0Zm15-.3-2.22,0Zm2.34-12.26c-.22,1.31-.45,2.67-.69,4.05l-1.35,8h0l2-12Zm-.21-.27-4.39,0h4.39Z"/><path class="cls-6" d="M469.19,48.79s0-.18-.12-.49a2,2,0,0,0-.76-1.07,2,2,0,0,0-1.85-.24,1.94,1.94,0,0,0,0,3.63,2,2,0,0,0,1.85-.26,2.13,2.13,0,0,0,.75-1.08c.09-.31.09-.49.11-.49s.05.18,0,.52a2.06,2.06,0,0,1-.73,1.2,2.14,2.14,0,0,1-2.05.35,2.18,2.18,0,0,1,0-4.11,2.13,2.13,0,0,1,2.06.33,2,2,0,0,1,.75,1.19A1,1,0,0,1,469.19,48.79Z"/><path class="cls-6" d="M467.1,51.11a2.18,2.18,0,0,1-.74-.13,2.3,2.3,0,0,1,0-4.35,2.28,2.28,0,0,1,2.18.35,2.15,2.15,0,0,1,.79,1.27,1.72,1.72,0,0,1,0,.54,2,2,0,0,1,0,.54,2.17,2.17,0,0,1-.78,1.28A2.31,2.31,0,0,1,467.1,51.11Zm-.43-4.32a1.21,1.21,0,0,0-.25.08,2,2,0,0,0,0,3.87l.26.08-.25-.08a2.06,2.06,0,0,1,0-3.87Zm.48.19a1.82,1.82,0,1,0,1.1,3.28,2,2,0,0,0,.71-1,2.16,2.16,0,0,0,.08-.38s0,0,0-.08,0-.06,0-.09a2.3,2.3,0,0,0-.09-.36,1.93,1.93,0,0,0-.71-1A1.91,1.91,0,0,0,467.15,47Z"/><path class="cls-6" d="M482.47,48.71s0-.18-.12-.49a2,2,0,0,0-.76-1.07,2,2,0,1,0-1.83,3.4,2,2,0,0,0,1.85-.27,2.13,2.13,0,0,0,.75-1.08c.09-.3.09-.49.11-.49a1,1,0,0,1,0,.52,2.06,2.06,0,0,1-.73,1.2,2.18,2.18,0,1,1-2.08-3.76,2.13,2.13,0,0,1,2.06.33,2.11,2.11,0,0,1,.75,1.19C482.52,48.53,482.49,48.71,482.47,48.71Z"/><path class="cls-6" d="M480.38,51a2.28,2.28,0,0,1-.75-.13,2.3,2.3,0,1,1,2.16-4,2.15,2.15,0,0,1,.79,1.27,1.44,1.44,0,0,1,0,.54,1.63,1.63,0,0,1,0,.54,2.22,2.22,0,0,1-.78,1.28A2.31,2.31,0,0,1,480.38,51Zm-.45-4.31a1.09,1.09,0,0,0-.24.07,2.06,2.06,0,0,0,0,3.88l.29.08a1.52,1.52,0,0,1-.28-.09,2.06,2.06,0,0,1,0-3.87Zm.5.19a1.73,1.73,0,0,0-.65.12,1.82,1.82,0,0,0-1.17,1.7,1.83,1.83,0,0,0,2.92,1.45,2,2,0,0,0,.71-1,2.09,2.09,0,0,0,.08-.37.29.29,0,0,1,0-.09.31.31,0,0,1,0-.08,3.75,3.75,0,0,0-.09-.37,1.91,1.91,0,0,0-.71-1A1.84,1.84,0,0,0,480.43,46.91Z"/></g></g></svg>