<svg xmlns="http://www.w3.org/2000/svg" viewBox="0 0 261.1 304.09"><defs><style>.cls-1{fill:#092acc;}.cls-2{fill:#1e49e2;}.cls-3{fill:#35f;}.cls-4{fill:#190084;}.cls-5{fill:#0537c4;}.cls-6{fill:#1b0071;}.cls-7{fill:#1100b2;}.cls-8{fill:#1302b7;}</style></defs><g id="Layer_2" data-name="Layer 2"><g id="Layer_1-2" data-name="Layer 1"><polygon class="cls-1" points="52.16 34.17 59 0 152.03 0 152.03 134.05 52.16 34.17"/><path class="cls-2" d="M160.91,0h27.94c40.89,0,64.66,11.93,70.64,35.47l-98.58,98.59Z"/><path class="cls-3" d="M167.18,140.35,261,46.5a88.32,88.32,0,0,1-1.9,21.06c-6.62,33.59-30.06,58.08-69.69,72.79Z"/><path class="cls-4" d="M160.91,155.52l70.25,70.24c-10.65,39.34-34.27,64.11-70.25,73.66Z"/><polygon class="cls-5" points="30.93 140.35 50.06 44.65 145.76 140.35 30.93 140.35"/><path class="cls-6" d="M167.2,149.23h22.38c18.51,3.64,31.56,10.94,38.78,21.69s9.06,25.64,5.38,44.17c0,.19-.07.38-.11.57Z"/><path class="cls-7" d="M3.45,304.09,152,155.52v145.9a165.28,165.28,0,0,1-30.37,2.67Z"/><polygon class="cls-8" points="29.15 149.23 145.74 149.23 0 294.98 29.15 149.23"/></g></g></svg>